channel,time,status,program,pitch,velo
1,960,Note_on_c,0,53,100
1,960,Note_on_c,0,59,100
1,978,Note_off_c,0,53,100
1,978,Note_off_c,0,59,100
1,1080,Note_on_c,0,54,100
1,1080,Note_on_c,0,54,100
1,1098,Note_off_c,0,54,100
1,1098,Note_off_c,0,54,100
1,1200,Note_on_c,0,54,100
1,1200,Note_on_c,1,55,100
1,1218,Note_off_c,0,54,100
1,1218,Note_off_c,1,55,100
1,1320,Note_on_c,0,53,100
1,1320,Note_on_c,0,59,100
1,1338,Note_off_c,0,53,100
1,1338,Note_off_c,0,59,100
1,1440,Note_on_c,0,53,100
1,1440,Note_on_c,0,54,100
1,1458,Note_off_c,0,53,100
1,1458,Note_off_c,0,54,100
1,1560,Note_on_c,0,53,100
1,1560,Note_on_c,0,53,100
1,1560,Note_on_c,0,59,100
1,1560,Note_on_c,0,59,100
1,1560,Note_on_c,1,59,100
1,1560,Note_on_c,1,59,100
1,1578,Note_off_c,0,53,100
1,1578,Note_off_c,0,59,100
1,1578,Note_off_c,1,59,100
1,1578,Note_off_c,0,53,100
1,1578,Note_off_c,0,59,100
1,1578,Note_off_c,1,59,100
1,1680,Note_on_c,0,54,100
1,1698,Note_off_c,0,54,100
1,1800,Note_on_c,0,53,100
1,1800,Note_on_c,1,63,100
1,1818,Note_off_c,0,53,100
1,1818,Note_off_c,1,63,100
1,1920,Note_on_c,0,53,100
1,1920,Note_on_c,0,54,100
1,1938,Note_off_c,0,53,100
1,1938,Note_off_c,0,54,100
1,2040,Note_on_c,0,53,100
1,2040,Note_on_c,0,53,100
1,2040,Note_on_c,1,55,100
1,2040,Note_on_c,1,55,100
1,2058,Note_off_c,0,53,100
1,2058,Note_off_c,1,55,100
1,2058,Note_off_c,0,53,100
1,2058,Note_off_c,1,55,100
1,2160,Note_on_c,0,53,100
1,2160,Note_on_c,0,59,100
1,2178,Note_off_c,0,53,100
1,2178,Note_off_c,0,59,100
1,2280,Note_on_c,0,53,100
1,2280,Note_on_c,0,54,100
1,2280,Note_on_c,1,59,100
1,2298,Note_off_c,0,53,100
1,2298,Note_off_c,0,54,100
1,2298,Note_off_c,1,59,100
1,2400,Note_on_c,0,53,100
1,2400,Note_on_c,0,59,100
1,2418,Note_off_c,0,53,100
1,2418,Note_off_c,0,59,100
1,2520,Note_on_c,0,53,100
1,2520,Note_on_c,0,54,100
1,2538,Note_off_c,0,53,100
1,2538,Note_off_c,0,54,100
1,2640,Note_on_c,0,54,100
1,2658,Note_off_c,0,54,100
1,2760,Note_on_c,0,59,100
1,2760,Note_on_c,0,59,100
1,2760,Note_on_c,1,63,100
1,2760,Note_on_c,1,63,100
1,2778,Note_off_c,0,59,100
1,2778,Note_off_c,1,63,100
1,2778,Note_off_c,0,59,100
1,2778,Note_off_c,1,63,100
1,2880,Note_on_c,0,53,100
1,2880,Note_on_c,0,54,100
1,2898,Note_off_c,0,53,100
1,2898,Note_off_c,0,54,100
1,3000,Note_on_c,0,53,100
1,3000,Note_on_c,0,59,100
1,3018,Note_off_c,0,53,100
1,3018,Note_off_c,0,59,100
1,3120,Note_on_c,0,54,100
1,3120,Note_on_c,1,55,100
1,3138,Note_off_c,0,54,100
1,3138,Note_off_c,1,55,100
1,3240,Note_on_c,0,53,100
1,3240,Note_on_c,0,54,100
1,3258,Note_off_c,0,53,100
1,3258,Note_off_c,0,54,100
1,3360,Note_on_c,0,53,100
1,3360,Note_on_c,0,59,100
1,3360,Note_on_c,1,59,100
1,3378,Note_off_c,0,53,100
1,3378,Note_off_c,0,59,100
1,3378,Note_off_c,1,59,100
1,3480,Note_on_c,0,54,100
1,3480,Note_on_c,0,54,100
1,3498,Note_off_c,0,54,100
1,3498,Note_off_c,0,54,100
1,3600,Note_on_c,0,53,100
1,3600,Note_on_c,0,59,100
1,3600,Note_on_c,1,63,100
1,3618,Note_off_c,0,53,100
1,3618,Note_off_c,0,59,100
1,3618,Note_off_c,1,63,100
1,3720,Note_on_c,0,54,100
1,3738,Note_off_c,0,54,100
1,3840,Note_on_c,1,55,100
1,3858,Note_off_c,1,55,100
1,3960,Note_on_c,0,54,100
1,3978,Note_off_c,0,54,100
1,4080,Note_on_c,0,53,100
1,4080,Note_on_c,0,59,100
1,4098,Note_off_c,0,53,100
1,4098,Note_off_c,0,59,100
1,4200,Note_on_c,0,54,100
1,4218,Note_off_c,0,54,100
1,4320,Note_on_c,0,53,100
1,4320,Note_on_c,1,59,100
1,4338,Note_off_c,0,53,100
1,4338,Note_off_c,1,59,100
1,4440,Note_on_c,0,59,100
1,4458,Note_off_c,0,59,100
1,4560,Note_on_c,0,53,100
1,4560,Note_on_c,0,54,100
1,4578,Note_off_c,0,53,100
1,4578,Note_off_c,0,54,100
1,4680,Note_on_c,0,53,100
1,4680,Note_on_c,0,54,100
1,4680,Note_on_c,1,63,100
1,4699,Note_off_c,1,63,100
1,4699,Note_off_c,0,53,100
1,4699,Note_off_c,0,54,100
1,4920,Note_on_c,0,59,100
1,4920,Note_on_c,0,59,100
1,4920,Note_on_c,1,55,100
1,4920,Note_on_c,1,55,100
1,4938,Note_off_c,0,59,100
1,4938,Note_off_c,1,55,100
1,4938,Note_off_c,0,59,100
1,4938,Note_off_c,1,55,100
1,5040,Note_on_c,0,53,100
1,5040,Note_on_c,0,54,100
1,5058,Note_off_c,0,53,100
1,5058,Note_off_c,0,54,100
1,5160,Note_on_c,0,53,100
1,5160,Note_on_c,1,59,100
1,5178,Note_off_c,0,53,100
1,5178,Note_off_c,1,59,100
1,5280,Note_on_c,0,59,100
1,5298,Note_off_c,0,59,100
1,5400,Note_on_c,0,54,100
1,5400,Note_on_c,1,63,100
1,5418,Note_off_c,0,54,100
1,5418,Note_off_c,1,63,100
1,5520,Note_on_c,0,53,100
1,5520,Note_on_c,0,53,100
1,5520,Note_on_c,0,54,100
1,5520,Note_on_c,0,54,100
1,5538,Note_off_c,0,53,100
1,5538,Note_off_c,0,54,100
1,5538,Note_off_c,0,53,100
1,5538,Note_off_c,0,54,100
1,5640,Note_on_c,0,59,100
1,5658,Note_off_c,0,59,100
1,5760,Note_on_c,0,54,100
1,5778,Note_off_c,0,54,100
1,5880,Note_on_c,0,59,100
1,5880,Note_on_c,1,55,100
1,5898,Note_off_c,0,59,100
1,5898,Note_off_c,1,55,100
1,6000,Note_on_c,0,53,100
1,6000,Note_on_c,0,54,100
1,6018,Note_off_c,0,53,100
1,6018,Note_off_c,0,54,100
1,6120,Note_on_c,0,53,100
1,6120,Note_on_c,0,54,100
1,6138,Note_off_c,0,53,100
1,6138,Note_off_c,0,54,100
1,6240,Note_on_c,0,53,100
1,6240,Note_on_c,0,59,100
1,6240,Note_on_c,1,59,100
1,6258,Note_off_c,0,53,100
1,6258,Note_off_c,0,59,100
1,6258,Note_off_c,1,59,100
1,6480,Note_on_c,0,53,100
1,6480,Note_on_c,0,54,100
1,6480,Note_on_c,1,63,100
1,6498,Note_off_c,0,53,100
1,6498,Note_off_c,0,54,100
1,6498,Note_off_c,1,63,100
1,6600,Note_on_c,0,59,100
1,6618,Note_off_c,0,59,100
1,6720,Note_on_c,0,53,100
1,6720,Note_on_c,0,54,100
1,6720,Note_on_c,1,55,100
1,6738,Note_off_c,0,53,100
1,6738,Note_off_c,0,54,100
1,6738,Note_off_c,1,55,100
1,6840,Note_on_c,0,53,100
1,6858,Note_off_c,0,53,100
1,6960,Note_on_c,0,53,100
1,6960,Note_on_c,0,54,100
1,6960,Note_on_c,1,59,100
1,6978,Note_off_c,0,53,100
1,6978,Note_off_c,0,54,100
1,6978,Note_off_c,1,59,100
1,7080,Note_on_c,0,59,100
1,7080,Note_on_c,0,59,100
1,7098,Note_off_c,0,59,100
1,7098,Note_off_c,0,59,100
1,7320,Note_on_c,0,54,100
1,7320,Note_on_c,0,54,100
1,7338,Note_off_c,0,54,100
1,7338,Note_off_c,0,54,100
1,7440,Note_on_c,0,53,100
1,7440,Note_on_c,0,59,100
1,7440,Note_on_c,1,63,100
1,7458,Note_off_c,0,53,100
1,7458,Note_off_c,0,59,100
1,7458,Note_off_c,1,63,100
1,7560,Note_on_c,0,53,100
1,7560,Note_on_c,0,53,100
1,7560,Note_on_c,0,54,100
1,7560,Note_on_c,0,54,100
1,7578,Note_off_c,0,53,100
1,7578,Note_off_c,0,54,100
1,7578,Note_off_c,0,53,100
1,7578,Note_off_c,0,54,100
1,7680,Note_on_c,0,54,100
1,7698,Note_off_c,0,54,100
1,7800,Note_on_c,0,59,100
1,7800,Note_on_c,1,55,100
1,7818,Note_off_c,0,59,100
1,7818,Note_off_c,1,55,100
1,8040,Note_on_c,0,54,100
1,8040,Note_on_c,1,59,100
1,8058,Note_off_c,0,54,100
1,8058,Note_off_c,1,59,100
1,8160,Note_on_c,0,53,100
1,8160,Note_on_c,0,59,100
1,8178,Note_off_c,0,53,100
1,8178,Note_off_c,0,59,100
1,8280,Note_on_c,0,54,100
1,8280,Note_on_c,1,63,100
1,8280,Note_on_c,1,63,100
1,8298,Note_off_c,0,54,100
1,8298,Note_off_c,1,63,100
1,8298,Note_off_c,1,63,100
1,8400,Note_on_c,0,54,100
1,8400,Note_on_c,0,68,100
1,8418,Note_off_c,0,54,100
1,8418,Note_off_c,0,68,100
1,8520,Note_on_c,1,63,100
1,8538,Note_off_c,1,63,100
1,8640,Note_on_c,0,63,100
1,8658,Note_off_c,0,63,100
1,8760,Note_on_c,0,54,100
1,8760,Note_on_c,0,54,100
1,8760,Note_on_c,0,58,100
1,8760,Note_on_c,0,58,100
1,8778,Note_off_c,0,54,100
1,8778,Note_off_c,0,58,100
1,8778,Note_off_c,0,54,100
1,8778,Note_off_c,0,58,100
1,8880,Note_on_c,0,59,100
1,8898,Note_off_c,0,59,100
1,9000,Note_on_c,0,53,100
1,9000,Note_on_c,0,53,100
1,9000,Note_on_c,1,63,100
1,9000,Note_on_c,1,63,100
1,9018,Note_off_c,0,53,100
1,9018,Note_off_c,1,63,100
1,9018,Note_off_c,0,53,100
1,9018,Note_off_c,1,63,100
1,9120,Note_on_c,0,68,100
1,9138,Note_off_c,0,68,100
1,9240,Note_on_c,0,59,100
1,9240,Note_on_c,0,59,100
1,9240,Note_on_c,0,68,100
1,9240,Note_on_c,0,68,100
1,9258,Note_off_c,0,59,100
1,9258,Note_off_c,0,68,100
1,9258,Note_off_c,0,59,100
1,9258,Note_off_c,0,68,100
1,9360,Note_on_c,0,54,100
1,9360,Note_on_c,0,68,100
1,9360,Note_on_c,1,63,100
1,9378,Note_off_c,0,54,100
1,9378,Note_off_c,0,68,100
1,9378,Note_off_c,1,63,100
1,9480,Note_on_c,0,54,100
1,9480,Note_on_c,0,68,100
1,9480,Note_on_c,0,68,100
1,9498,Note_off_c,0,54,100
1,9498,Note_off_c,0,68,100
1,9498,Note_off_c,0,68,100
1,9600,Note_on_c,0,59,100
1,9600,Note_on_c,1,55,100
1,9618,Note_off_c,0,59,100
1,9618,Note_off_c,1,55,100
1,9720,Note_on_c,0,54,100
1,9720,Note_on_c,0,54,100
1,9738,Note_off_c,0,54,100
1,9738,Note_off_c,0,54,100
1,9840,Note_on_c,0,59,100
1,9840,Note_on_c,0,68,100
1,9840,Note_on_c,1,59,100
1,9858,Note_off_c,0,59,100
1,9858,Note_off_c,0,68,100
1,9858,Note_off_c,1,59,100
1,9960,Note_on_c,0,54,100
1,9978,Note_off_c,0,54,100
1,10080,Note_on_c,0,54,100
1,10080,Note_on_c,1,63,100
1,10098,Note_off_c,0,54,100
1,10098,Note_off_c,1,63,100
1,10200,Note_on_c,0,59,100
1,10200,Note_on_c,0,59,100
1,10200,Note_on_c,0,68,100
1,10200,Note_on_c,0,68,100
1,10218,Note_off_c,0,59,100
1,10218,Note_off_c,0,68,100
1,10218,Note_off_c,0,59,100
1,10218,Note_off_c,0,68,100
1,10320,Note_on_c,0,54,100
1,10338,Note_off_c,0,54,100
1,10560,Note_on_c,0,68,100
1,10560,Note_on_c,1,55,100
1,10578,Note_off_c,0,68,100
1,10578,Note_off_c,1,55,100
1,10680,Note_on_c,0,68,100
1,10698,Note_off_c,0,68,100
1,10800,Note_on_c,0,59,100
1,10800,Note_on_c,0,68,100
1,10818,Note_off_c,0,59,100
1,10818,Note_off_c,0,68,100
1,10920,Note_on_c,0,54,100
1,10920,Note_on_c,0,68,100
1,10920,Note_on_c,1,59,100
1,10938,Note_off_c,0,54,100
1,10938,Note_off_c,0,68,100
1,10938,Note_off_c,1,59,100
1,11040,Note_on_c,0,54,100
1,11058,Note_off_c,0,54,100
1,11160,Note_on_c,0,68,100
1,11160,Note_on_c,1,63,100
1,11178,Note_off_c,0,68,100
1,11178,Note_off_c,1,63,100
1,11280,Note_on_c,0,68,100
1,11298,Note_off_c,0,68,100
1,11400,Note_on_c,0,59,100
1,11400,Note_on_c,1,55,100
1,11418,Note_off_c,0,59,100
1,11418,Note_off_c,1,55,100
1,11520,Note_on_c,0,54,100
1,11538,Note_off_c,0,54,100
1,11640,Note_on_c,1,59,100
1,11658,Note_off_c,1,59,100
1,11760,Note_on_c,0,59,100
1,11778,Note_off_c,0,59,100
1,11880,Note_on_c,0,54,100
1,11880,Note_on_c,0,54,100
1,11880,Note_on_c,0,68,100
1,11898,Note_off_c,0,54,100
1,11898,Note_off_c,0,68,100
1,11898,Note_off_c,0,54,100
1,12120,Note_on_c,0,54,100
1,12120,Note_on_c,0,54,100
1,12120,Note_on_c,0,68,100
1,12120,Note_on_c,0,68,100
1,12120,Note_on_c,1,63,100
1,12120,Note_on_c,1,63,100
1,12138,Note_off_c,0,54,100
1,12138,Note_off_c,0,68,100
1,12138,Note_off_c,1,63,100
1,12138,Note_off_c,0,54,100
1,12138,Note_off_c,0,68,100
1,12138,Note_off_c,1,63,100
1,12240,Note_on_c,0,59,100
1,12240,Note_on_c,0,68,100
1,12258,Note_off_c,0,59,100
1,12258,Note_off_c,0,68,100
1,12360,Note_on_c,0,54,100
1,12360,Note_on_c,0,68,100
1,12378,Note_off_c,0,54,100
1,12378,Note_off_c,0,68,100
1,12480,Note_on_c,0,59,100
1,12480,Note_on_c,1,55,100
1,12498,Note_off_c,0,59,100
1,12498,Note_off_c,1,55,100
1,12600,Note_on_c,0,54,100
1,12618,Note_off_c,0,54,100
1,12720,Note_on_c,0,54,100
1,12720,Note_on_c,0,68,100
1,12720,Note_on_c,1,59,100
1,12738,Note_off_c,0,54,100
1,12738,Note_off_c,0,68,100
1,12738,Note_off_c,1,59,100
1,12840,Note_on_c,0,59,100
1,12858,Note_off_c,0,59,100
1,12960,Note_on_c,1,63,100
1,12978,Note_off_c,1,63,100
1,13080,Note_on_c,0,54,100
1,13098,Note_off_c,0,54,100
1,13200,Note_on_c,0,59,100
1,13200,Note_on_c,0,68,100
1,13200,Note_on_c,1,55,100
1,13218,Note_off_c,0,59,100
1,13218,Note_off_c,0,68,100
1,13218,Note_off_c,1,55,100
1,13320,Note_on_c,0,54,100
1,13320,Note_on_c,0,68,100
1,13338,Note_off_c,0,54,100
1,13338,Note_off_c,0,68,100
1,13440,Note_on_c,0,54,100
1,13458,Note_off_c,0,54,100
1,13560,Note_on_c,0,59,100
1,13560,Note_on_c,0,68,100
1,13578,Note_off_c,0,59,100
1,13578,Note_off_c,0,68,100
1,13680,Note_on_c,0,54,100
1,13680,Note_on_c,0,68,100
1,13680,Note_on_c,1,59,100
1,13698,Note_off_c,0,54,100
1,13698,Note_off_c,0,68,100
1,13698,Note_off_c,1,59,100
1,13800,Note_on_c,0,68,100
1,13818,Note_off_c,0,68,100
1,13920,Note_on_c,0,59,100
1,13920,Note_on_c,0,68,100
1,13938,Note_off_c,0,59,100
1,13938,Note_off_c,0,68,100
1,14040,Note_on_c,0,54,100
1,14040,Note_on_c,1,63,100
1,14058,Note_off_c,0,54,100
1,14058,Note_off_c,1,63,100
1,14160,Note_on_c,0,54,100
1,14178,Note_off_c,0,54,100
1,14280,Note_on_c,0,59,100
1,14280,Note_on_c,0,68,100
1,14280,Note_on_c,1,55,100
1,14298,Note_off_c,0,59,100
1,14298,Note_off_c,0,68,100
1,14298,Note_off_c,1,55,100
1,14400,Note_on_c,0,54,100
1,14418,Note_off_c,0,54,100
1,14520,Note_on_c,0,59,100
1,14520,Note_on_c,0,59,100
1,14520,Note_on_c,0,68,100
1,14520,Note_on_c,0,68,100
1,14520,Note_on_c,1,59,100
1,14520,Note_on_c,1,59,100
1,14538,Note_off_c,0,59,100
1,14538,Note_off_c,0,68,100
1,14538,Note_off_c,1,59,100
1,14538,Note_off_c,0,59,100
1,14538,Note_off_c,0,68,100
1,14538,Note_off_c,1,59,100
1,14640,Note_on_c,0,68,100
1,14658,Note_off_c,0,68,100
1,14760,Note_on_c,0,54,100
1,14760,Note_on_c,0,68,100
1,14760,Note_on_c,1,63,100
1,14778,Note_off_c,0,54,100
1,14778,Note_off_c,0,68,100
1,14778,Note_off_c,1,63,100
1,14880,Note_on_c,0,54,100
1,14898,Note_off_c,0,54,100
1,15000,Note_on_c,0,59,100
1,15000,Note_on_c,0,68,100
1,15018,Note_off_c,0,59,100
1,15018,Note_off_c,0,68,100
1,15120,Note_on_c,0,54,100
1,15120,Note_on_c,0,68,100
1,15138,Note_off_c,0,54,100
1,15138,Note_off_c,0,68,100
1,15240,Note_on_c,0,59,100
1,15240,Note_on_c,0,68,100
1,15240,Note_on_c,1,55,100
1,15240,Note_on_c,1,55,100
1,15258,Note_off_c,0,59,100
1,15258,Note_off_c,0,68,100
1,15258,Note_off_c,1,55,100
1,15258,Note_off_c,1,55,100
1,15360,Note_on_c,0,54,100
1,15378,Note_off_c,0,54,100
1,15480,Note_on_c,0,54,100
1,15480,Note_on_c,0,68,100
1,15498,Note_off_c,0,54,100
1,15498,Note_off_c,0,68,100
1,15600,Note_on_c,0,59,100
1,15600,Note_on_c,0,68,100
1,15600,Note_on_c,1,59,100
1,15618,Note_off_c,0,59,100
1,15618,Note_off_c,0,68,100
1,15618,Note_off_c,1,59,100
1,15720,Note_on_c,0,54,100
1,15738,Note_off_c,0,54,100
1,15840,Note_on_c,0,59,100
1,15840,Note_on_c,0,68,100
1,15840,Note_on_c,1,63,100
1,15858,Note_off_c,0,59,100
1,15858,Note_off_c,0,68,100
1,15858,Note_off_c,1,63,100
1,15960,Note_on_c,0,68,100
1,15979,Note_off_c,0,68,100
1,16080,Note_on_c,0,54,100
1,16080,Note_on_c,0,68,100
1,16080,Note_on_c,1,55,100
1,16098,Note_off_c,0,54,100
1,16098,Note_off_c,0,68,100
1,16098,Note_off_c,1,55,100
1,16200,Note_on_c,0,54,100
1,16218,Note_off_c,0,54,100
1,16320,Note_on_c,0,59,100
1,16320,Note_on_c,0,68,100
1,16320,Note_on_c,1,59,100
1,16338,Note_off_c,0,59,100
1,16338,Note_off_c,0,68,100
1,16338,Note_off_c,1,59,100
1,16440,Note_on_c,0,54,100
1,16440,Note_on_c,0,63,100
1,16458,Note_off_c,0,54,100
1,16458,Note_off_c,0,63,100
1,16560,Note_on_c,0,58,100
1,16560,Note_on_c,0,59,100
1,16578,Note_off_c,0,58,100
1,16578,Note_off_c,0,59,100
1,16680,Note_on_c,0,53,100
1,16680,Note_on_c,0,53,100
1,16680,Note_on_c,0,54,100
1,16680,Note_on_c,0,54,100
1,16698,Note_off_c,0,53,100
1,16698,Note_off_c,0,54,100
1,16698,Note_off_c,0,53,100
1,16698,Note_off_c,0,54,100
1,16800,Note_on_c,1,59,100
1,16818,Note_off_c,1,59,100
1,16920,Note_on_c,0,54,100
1,16938,Note_off_c,0,54,100
1,17040,Note_on_c,0,59,100
1,17040,Note_on_c,0,68,100
1,17058,Note_off_c,0,59,100
1,17058,Note_off_c,0,68,100
1,17160,Note_on_c,0,54,100
1,17160,Note_on_c,0,54,100
1,17160,Note_on_c,1,59,100
1,17160,Note_on_c,1,59,100
1,17178,Note_off_c,0,54,100
1,17178,Note_off_c,1,59,100
1,17178,Note_off_c,0,54,100
1,17178,Note_off_c,1,59,100
1,17280,Note_on_c,0,63,100
1,17298,Note_off_c,0,63,100
1,17400,Note_on_c,0,58,100
1,17400,Note_on_c,0,58,100
1,17400,Note_on_c,0,59,100
1,17400,Note_on_c,0,59,100
1,17400,Note_on_c,1,59,100
1,17400,Note_on_c,1,59,100
1,17418,Note_off_c,0,58,100
1,17418,Note_off_c,0,59,100
1,17418,Note_off_c,1,59,100
1,17418,Note_off_c,0,58,100
1,17418,Note_off_c,0,59,100
1,17418,Note_off_c,1,59,100
1,17520,Note_on_c,0,54,100
1,17520,Note_on_c,0,58,100
1,17538,Note_off_c,0,54,100
1,17538,Note_off_c,0,58,100
1,17640,Note_on_c,0,54,100
1,17640,Note_on_c,0,54,100
1,17640,Note_on_c,1,63,100
1,17640,Note_on_c,1,63,100
1,17658,Note_off_c,0,54,100
1,17658,Note_off_c,1,63,100
1,17658,Note_off_c,0,54,100
1,17658,Note_off_c,1,63,100
1,17760,Note_on_c,0,58,100
1,17760,Note_on_c,0,59,100
1,17778,Note_off_c,0,58,100
1,17778,Note_off_c,0,59,100
1,17880,Note_on_c,0,54,100
1,17880,Note_on_c,1,55,100
1,17898,Note_off_c,0,54,100
1,17898,Note_off_c,1,55,100
1,18000,Note_on_c,0,59,100
1,18018,Note_off_c,0,59,100
1,18120,Note_on_c,0,54,100
1,18138,Note_off_c,0,54,100
1,18240,Note_on_c,0,58,100
1,18240,Note_on_c,0,59,100
1,18258,Note_off_c,0,58,100
1,18258,Note_off_c,0,59,100
1,18360,Note_on_c,0,54,100
1,18360,Note_on_c,0,54,100
1,18360,Note_on_c,0,63,100
1,18360,Note_on_c,0,63,100
1,18360,Note_on_c,1,59,100
1,18360,Note_on_c,1,59,100
1,18378,Note_off_c,0,54,100
1,18378,Note_off_c,0,63,100
1,18378,Note_off_c,1,59,100
1,18378,Note_off_c,0,54,100
1,18378,Note_off_c,0,63,100
1,18378,Note_off_c,1,59,100
1,18480,Note_on_c,0,59,100
1,18480,Note_on_c,0,68,100
1,18498,Note_off_c,0,59,100
1,18498,Note_off_c,0,68,100
1,18600,Note_on_c,0,54,100
1,18600,Note_on_c,0,54,100
1,18618,Note_off_c,0,54,100
1,18618,Note_off_c,0,54,100
1,18720,Note_on_c,0,54,100
1,18720,Note_on_c,1,63,100
1,18738,Note_off_c,0,54,100
1,18738,Note_off_c,1,63,100
1,18840,Note_on_c,0,53,100
1,18840,Note_on_c,0,53,100
1,18858,Note_off_c,0,53,100
1,18858,Note_off_c,0,53,100
1,18960,Note_on_c,0,53,100
1,18960,Note_on_c,0,59,100
1,18960,Note_on_c,1,63,100
1,18978,Note_off_c,0,53,100
1,18978,Note_off_c,0,59,100
1,18978,Note_off_c,1,63,100
1,19080,Note_on_c,0,53,100
1,19080,Note_on_c,0,54,100
1,19080,Note_on_c,0,54,100
1,19098,Note_off_c,0,53,100
1,19098,Note_off_c,0,54,100
1,19098,Note_off_c,0,54,100
1,19200,Note_on_c,0,59,100
1,19200,Note_on_c,1,63,100
1,19218,Note_off_c,0,59,100
1,19218,Note_off_c,1,63,100
1,19320,Note_on_c,0,54,100
1,19320,Note_on_c,0,54,100
1,19338,Note_off_c,0,54,100
1,19338,Note_off_c,0,54,100
1,19440,Note_on_c,0,53,100
1,19440,Note_on_c,0,54,100
1,19440,Note_on_c,1,63,100
1,19458,Note_off_c,0,53,100
1,19458,Note_off_c,0,54,100
1,19458,Note_off_c,1,63,100
1,19560,Note_on_c,0,53,100
1,19560,Note_on_c,0,59,100
1,19578,Note_off_c,0,53,100
1,19578,Note_off_c,0,59,100
1,19680,Note_on_c,0,57,100
1,19698,Note_off_c,0,57,100
1,19800,Note_on_c,0,59,100
1,19818,Note_off_c,0,59,100
1,19920,Note_on_c,0,53,100
1,19920,Note_on_c,0,55,100
1,19920,Note_on_c,1,63,100
1,19938,Note_off_c,0,53,100
1,19938,Note_off_c,0,55,100
1,19938,Note_off_c,1,63,100
1,20040,Note_on_c,0,57,100
1,20058,Note_off_c,0,57,100
1,20160,Note_on_c,0,56,100
1,20160,Note_on_c,0,62,100
1,20178,Note_off_c,0,56,100
1,20178,Note_off_c,0,62,100
1,20280,Note_on_c,0,54,100
1,20280,Note_on_c,1,64,100
1,20298,Note_off_c,0,54,100
1,20298,Note_off_c,1,64,100
1,20400,Note_on_c,0,54,100
1,20400,Note_on_c,0,62,100
1,20418,Note_off_c,0,54,100
1,20418,Note_off_c,0,62,100
1,20520,Note_on_c,1,65,100
1,20538,Note_off_c,1,65,100
1,20640,Note_on_c,0,54,100
1,20658,Note_off_c,0,54,100
1,20760,Note_on_c,0,53,100
1,20760,Note_on_c,1,61,100
1,20760,Note_on_c,1,61,100
1,20778,Note_off_c,0,53,100
1,20778,Note_off_c,1,61,100
1,20778,Note_off_c,1,61,100
1,20880,Note_on_c,0,53,100
1,20880,Note_on_c,0,62,100
1,20898,Note_off_c,0,53,100
1,20898,Note_off_c,0,62,100
1,21000,Note_on_c,0,57,100
1,21000,Note_on_c,0,57,100
1,21000,Note_on_c,1,62,100
1,21000,Note_on_c,1,62,100
1,21018,Note_off_c,0,57,100
1,21018,Note_off_c,1,62,100
1,21018,Note_off_c,0,57,100
1,21018,Note_off_c,1,62,100
1,21120,Note_on_c,0,57,100
1,21120,Note_on_c,0,59,100
1,21138,Note_off_c,0,57,100
1,21138,Note_off_c,0,59,100
1,21240,Note_on_c,0,57,100
1,21240,Note_on_c,0,57,100
1,21258,Note_off_c,0,57,100
1,21258,Note_off_c,0,57,100
1,21360,Note_on_c,0,54,100
1,21378,Note_off_c,0,54,100
1,21480,Note_on_c,0,55,100
1,21480,Note_on_c,0,58,100
1,21480,Note_on_c,1,63,100
1,21498,Note_off_c,0,55,100
1,21498,Note_off_c,0,58,100
1,21498,Note_off_c,1,63,100
1,21600,Note_on_c,0,57,100
1,21618,Note_off_c,0,57,100
1,21720,Note_on_c,0,56,100
1,21720,Note_on_c,0,62,100
1,21720,Note_on_c,0,62,100
1,21738,Note_off_c,0,56,100
1,21738,Note_off_c,0,62,100
1,21738,Note_off_c,0,62,100
1,21840,Note_on_c,0,54,100
1,21840,Note_on_c,1,64,100
1,21858,Note_off_c,0,54,100
1,21858,Note_off_c,1,64,100
1,21960,Note_on_c,0,54,100
1,21960,Note_on_c,0,57,100
1,21978,Note_off_c,0,54,100
1,21978,Note_off_c,0,57,100
1,22080,Note_on_c,0,59,100
1,22080,Note_on_c,1,65,100
1,22098,Note_off_c,0,59,100
1,22098,Note_off_c,1,65,100
1,22200,Note_on_c,0,53,100
1,22218,Note_off_c,0,53,100
1,22320,Note_on_c,0,62,100
1,22320,Note_on_c,1,61,100
1,22338,Note_off_c,0,62,100
1,22338,Note_off_c,1,61,100
1,22440,Note_on_c,0,57,100
1,22458,Note_off_c,0,57,100
1,22560,Note_on_c,0,54,100
1,22560,Note_on_c,1,62,100
1,22578,Note_off_c,0,54,100
1,22578,Note_off_c,1,62,100
1,22680,Note_on_c,0,55,100
1,22680,Note_on_c,0,62,100
1,22698,Note_off_c,0,55,100
1,22698,Note_off_c,0,62,100
1,22800,Note_on_c,0,54,100
1,22800,Note_on_c,0,56,100
1,22818,Note_off_c,0,54,100
1,22818,Note_off_c,0,56,100
1,22920,Note_on_c,0,54,100
1,22920,Note_on_c,0,58,100
1,22938,Note_off_c,0,54,100
1,22938,Note_off_c,0,58,100
1,23040,Note_on_c,0,57,100
1,23040,Note_on_c,1,63,100
1,23058,Note_off_c,0,57,100
1,23058,Note_off_c,1,63,100
1,23160,Note_on_c,0,53,100
1,23178,Note_off_c,0,53,100
1,23280,Note_on_c,0,57,100
1,23298,Note_off_c,0,57,100
1,23400,Note_on_c,0,57,100
1,23400,Note_on_c,0,57,100
1,23400,Note_on_c,1,64,100
1,23400,Note_on_c,1,64,100
1,23418,Note_off_c,0,57,100
1,23418,Note_off_c,1,64,100
1,23418,Note_off_c,0,57,100
1,23418,Note_off_c,1,64,100
1,23520,Note_on_c,0,57,100
1,23520,Note_on_c,0,59,100
1,23538,Note_off_c,0,57,100
1,23538,Note_off_c,0,59,100
1,23640,Note_on_c,0,57,100
1,23640,Note_on_c,1,64,100
1,23658,Note_off_c,0,57,100
1,23658,Note_off_c,1,64,100
1,23760,Note_on_c,0,57,100
1,23760,Note_on_c,0,59,100
1,23778,Note_off_c,0,57,100
1,23778,Note_off_c,0,59,100
1,23880,Note_on_c,0,53,100
1,23880,Note_on_c,0,53,100
1,23880,Note_on_c,0,57,100
1,23880,Note_on_c,0,57,100
1,23880,Note_on_c,1,64,100
1,23880,Note_on_c,1,64,100
1,23898,Note_off_c,0,53,100
1,23898,Note_off_c,0,57,100
1,23898,Note_off_c,1,64,100
1,23898,Note_off_c,0,53,100
1,23898,Note_off_c,0,57,100
1,23898,Note_off_c,1,64,100
1,24000,Note_on_c,0,57,100
1,24018,Note_off_c,0,57,100
1,24120,Note_on_c,0,57,100
1,24120,Note_on_c,1,64,100
1,24138,Note_off_c,0,57,100
1,24138,Note_off_c,1,64,100
1,24240,Note_on_c,0,57,100
1,24240,Note_on_c,0,62,100
1,24258,Note_off_c,0,57,100
1,24258,Note_off_c,0,62,100
1,24360,Note_on_c,0,54,100
1,24360,Note_on_c,0,57,100
1,24378,Note_off_c,0,54,100
1,24378,Note_off_c,0,57,100
1,24480,Note_on_c,0,57,100
1,24498,Note_off_c,0,57,100
1,24600,Note_on_c,0,62,100
1,24600,Note_on_c,0,62,100
1,24600,Note_on_c,1,64,100
1,24600,Note_on_c,1,64,100
1,24618,Note_off_c,0,62,100
1,24618,Note_off_c,1,64,100
1,24618,Note_off_c,0,62,100
1,24618,Note_off_c,1,64,100
1,24720,Note_on_c,0,54,100
1,24720,Note_on_c,0,57,100
1,24738,Note_off_c,0,54,100
1,24738,Note_off_c,0,57,100
1,24840,Note_on_c,0,53,100
1,24840,Note_on_c,0,57,100
1,24858,Note_off_c,0,53,100
1,24858,Note_off_c,0,57,100
1,24960,Note_on_c,0,57,100
1,24960,Note_on_c,0,62,100
1,24960,Note_on_c,1,64,100
1,24978,Note_off_c,0,57,100
1,24978,Note_off_c,0,62,100
1,24978,Note_off_c,1,64,100
1,25080,Note_on_c,0,57,100
1,25098,Note_off_c,0,57,100
1,25200,Note_on_c,0,59,100
1,25200,Note_on_c,1,64,100
1,25218,Note_off_c,0,59,100
1,25218,Note_off_c,1,64,100
1,25320,Note_on_c,0,57,100
1,25320,Note_on_c,0,57,100
1,25338,Note_off_c,0,57,100
1,25338,Note_off_c,0,57,100
1,25440,Note_on_c,0,54,100
1,25440,Note_on_c,0,57,100
1,25440,Note_on_c,1,64,100
1,25458,Note_off_c,0,54,100
1,25458,Note_off_c,0,57,100
1,25458,Note_off_c,1,64,100
1,25560,Note_on_c,0,58,100
1,25578,Note_off_c,0,58,100
1,25680,Note_on_c,0,57,100
1,25680,Note_on_c,1,64,100
1,25698,Note_off_c,0,57,100
1,25698,Note_off_c,1,64,100
1,25800,Note_on_c,0,62,100
1,25818,Note_off_c,0,62,100
1,25920,Note_on_c,0,54,100
1,25920,Note_on_c,0,57,100
1,25938,Note_off_c,0,54,100
1,25938,Note_off_c,0,57,100
1,26040,Note_on_c,0,57,100
1,26058,Note_off_c,0,57,100
1,26160,Note_on_c,0,57,100
1,26160,Note_on_c,1,64,100
1,26178,Note_off_c,0,57,100
1,26178,Note_off_c,1,64,100
1,26280,Note_on_c,0,59,100
1,26298,Note_off_c,0,59,100
1,26400,Note_on_c,0,53,100
1,26418,Note_off_c,0,53,100
1,26520,Note_on_c,0,62,100
1,26520,Note_on_c,1,64,100
1,26538,Note_off_c,0,62,100
1,26538,Note_off_c,1,64,100
1,26640,Note_on_c,0,57,100
1,26658,Note_off_c,0,57,100
1,26760,Note_on_c,0,57,100
1,26760,Note_on_c,0,57,100
1,26760,Note_on_c,1,64,100
1,26760,Note_on_c,1,64,100
1,26778,Note_off_c,0,57,100
1,26778,Note_off_c,1,64,100
1,26778,Note_off_c,0,57,100
1,26778,Note_off_c,1,64,100
1,26880,Note_on_c,0,54,100
1,26880,Note_on_c,0,57,100
1,26898,Note_off_c,0,54,100
1,26898,Note_off_c,0,57,100
1,27000,Note_on_c,0,62,100
1,27000,Note_on_c,1,64,100
1,27018,Note_off_c,0,62,100
1,27018,Note_off_c,1,64,100
1,27120,Note_on_c,0,54,100
1,27120,Note_on_c,0,57,100
1,27138,Note_off_c,0,54,100
1,27138,Note_off_c,0,57,100
1,27240,Note_on_c,0,58,100
1,27240,Note_on_c,1,64,100
1,27258,Note_off_c,0,58,100
1,27258,Note_off_c,1,64,100
1,27360,Note_on_c,0,57,100
1,27378,Note_off_c,0,57,100
1,27600,Note_on_c,0,57,100
1,27618,Note_off_c,0,57,100
1,27720,Note_on_c,0,57,100
1,27720,Note_on_c,0,59,100
1,27720,Note_on_c,1,64,100
1,27738,Note_off_c,0,57,100
1,27738,Note_off_c,0,59,100
1,27738,Note_off_c,1,64,100
1,27840,Note_on_c,0,57,100
1,27858,Note_off_c,0,57,100
1,27960,Note_on_c,0,59,100
1,27978,Note_off_c,0,59,100
1,28080,Note_on_c,0,53,100
1,28080,Note_on_c,0,57,100
1,28080,Note_on_c,1,64,100
1,28098,Note_off_c,0,53,100
1,28098,Note_off_c,0,57,100
1,28098,Note_off_c,1,64,100
1,28200,Note_on_c,0,57,100
1,28218,Note_off_c,0,57,100
1,28320,Note_on_c,0,57,100
1,28320,Note_on_c,1,64,100
1,28338,Note_off_c,0,57,100
1,28338,Note_off_c,1,64,100
1,28440,Note_on_c,0,62,100
1,28458,Note_off_c,0,62,100
1,28560,Note_on_c,0,54,100
1,28560,Note_on_c,1,56,100
1,28578,Note_off_c,0,54,100
1,28578,Note_off_c,1,56,100
1,28680,Note_on_c,0,62,100
1,28698,Note_off_c,0,62,100
1,28800,Note_on_c,1,60,100
1,28818,Note_off_c,1,60,100
1,28920,Note_on_c,0,54,100
1,28920,Note_on_c,0,62,100
1,28938,Note_off_c,0,54,100
1,28938,Note_off_c,0,62,100
1,29040,Note_on_c,0,53,100
1,29040,Note_on_c,0,67,100
1,29058,Note_off_c,0,53,100
1,29058,Note_off_c,0,67,100
1,29160,Note_on_c,0,62,100
1,29178,Note_off_c,0,62,100
1,29280,Note_on_c,0,57,100
1,29280,Note_on_c,1,64,100
1,29298,Note_off_c,0,57,100
1,29298,Note_off_c,1,64,100
1,29400,Note_on_c,0,59,100
1,29400,Note_on_c,0,59,100
1,29400,Note_on_c,0,72,100
1,29400,Note_on_c,0,72,100
1,29418,Note_off_c,0,59,100
1,29418,Note_off_c,0,72,100
1,29418,Note_off_c,0,59,100
1,29418,Note_off_c,0,72,100
1,29520,Note_on_c,0,57,100
1,29538,Note_off_c,0,57,100
1,29640,Note_on_c,0,54,100
1,29640,Note_on_c,1,56,100
1,29658,Note_off_c,0,54,100
1,29658,Note_off_c,1,56,100
1,29760,Note_on_c,0,58,100
1,29778,Note_off_c,0,58,100
1,29880,Note_on_c,0,57,100
1,29880,Note_on_c,0,57,100
1,29880,Note_on_c,0,62,100
1,29880,Note_on_c,0,62,100
1,29880,Note_on_c,1,60,100
1,29880,Note_on_c,1,60,100
1,29898,Note_off_c,0,57,100
1,29898,Note_off_c,0,62,100
1,29898,Note_off_c,1,60,100
1,29898,Note_off_c,0,57,100
1,29898,Note_off_c,0,62,100
1,29898,Note_off_c,1,60,100
1,30000,Note_on_c,0,62,100
1,30000,Note_on_c,0,67,100
1,30018,Note_off_c,0,62,100
1,30018,Note_off_c,0,67,100
1,30120,Note_on_c,0,54,100
1,30120,Note_on_c,0,54,100
1,30120,Note_on_c,0,72,100
1,30120,Note_on_c,0,72,100
1,30120,Note_on_c,1,64,100
1,30120,Note_on_c,1,64,100
1,30138,Note_off_c,0,54,100
1,30138,Note_off_c,0,72,100
1,30138,Note_off_c,1,64,100
1,30138,Note_off_c,0,54,100
1,30138,Note_off_c,0,72,100
1,30138,Note_off_c,1,64,100
1,30240,Note_on_c,0,57,100
1,30258,Note_off_c,0,57,100
1,30360,Note_on_c,0,57,100
1,30360,Note_on_c,0,59,100
1,30360,Note_on_c,1,56,100
1,30378,Note_off_c,0,57,100
1,30378,Note_off_c,0,59,100
1,30378,Note_off_c,1,56,100
1,30480,Note_on_c,0,53,100
1,30480,Note_on_c,0,62,100
1,30498,Note_off_c,0,53,100
1,30498,Note_off_c,0,62,100
1,30600,Note_on_c,0,62,100
1,30600,Note_on_c,0,62,100
1,30618,Note_off_c,0,62,100
1,30618,Note_off_c,0,62,100
1,30720,Note_on_c,0,57,100
1,30720,Note_on_c,0,67,100
1,30738,Note_off_c,0,57,100
1,30738,Note_off_c,0,67,100
1,30840,Note_on_c,0,54,100
1,30840,Note_on_c,0,54,100
1,30840,Note_on_c,0,72,100
1,30840,Note_on_c,0,72,100
1,30840,Note_on_c,1,60,100
1,30840,Note_on_c,1,60,100
1,30858,Note_off_c,0,54,100
1,30858,Note_off_c,0,72,100
1,30858,Note_off_c,1,60,100
1,30858,Note_off_c,0,54,100
1,30858,Note_off_c,0,72,100
1,30858,Note_off_c,1,60,100
1,30960,Note_on_c,0,57,100
1,30960,Note_on_c,0,62,100
1,30978,Note_off_c,0,57,100
1,30978,Note_off_c,0,62,100
1,31080,Note_on_c,0,54,100
1,31098,Note_off_c,0,54,100
1,31200,Note_on_c,0,58,100
1,31200,Note_on_c,0,62,100
1,31200,Note_on_c,1,64,100
1,31218,Note_off_c,0,58,100
1,31218,Note_off_c,0,62,100
1,31218,Note_off_c,1,64,100
1,31320,Note_on_c,0,57,100
1,31320,Note_on_c,0,67,100
1,31338,Note_off_c,0,57,100
1,31338,Note_off_c,0,67,100
1,31440,Note_on_c,0,72,100
1,31440,Note_on_c,1,56,100
1,31458,Note_off_c,0,72,100
1,31458,Note_off_c,1,56,100
1,31560,Note_on_c,0,57,100
1,31578,Note_off_c,0,57,100
1,31680,Note_on_c,0,57,100
1,31680,Note_on_c,0,59,100
1,31680,Note_on_c,1,60,100
1,31698,Note_off_c,0,57,100
1,31698,Note_off_c,0,59,100
1,31698,Note_off_c,1,60,100
1,31800,Note_on_c,0,62,100
1,31800,Note_on_c,0,62,100
1,31818,Note_off_c,0,62,100
1,31818,Note_off_c,0,62,100
1,31920,Note_on_c,0,57,100
1,31920,Note_on_c,0,67,100
1,31920,Note_on_c,1,64,100
1,31938,Note_off_c,0,57,100
1,31938,Note_off_c,0,67,100
1,31938,Note_off_c,1,64,100
1,32040,Note_on_c,0,59,100
1,32040,Note_on_c,0,59,100
1,32058,Note_off_c,0,59,100
1,32058,Note_off_c,0,59,100
1,32160,Note_on_c,0,72,100
1,32160,Note_on_c,0,72,100
1,32178,Note_off_c,0,72,100
1,32178,Note_off_c,0,72,100
1,32280,Note_on_c,0,53,100
1,32280,Note_on_c,0,53,100
1,32298,Note_off_c,0,53,100
1,32298,Note_off_c,0,53,100
1,32400,Note_on_c,0,57,100
1,32400,Note_on_c,1,56,100
1,32418,Note_off_c,0,57,100
1,32418,Note_off_c,1,56,100
1,32520,Note_on_c,0,57,100
1,32520,Note_on_c,0,62,100
1,32538,Note_off_c,0,57,100
1,32538,Note_off_c,0,62,100
1,32640,Note_on_c,0,62,100
1,32640,Note_on_c,0,67,100
1,32658,Note_off_c,0,62,100
1,32658,Note_off_c,0,67,100
1,32760,Note_on_c,0,54,100
1,32760,Note_on_c,0,54,100
1,32760,Note_on_c,0,72,100
1,32760,Note_on_c,0,72,100
1,32760,Note_on_c,1,60,100
1,32760,Note_on_c,1,60,100
1,32778,Note_off_c,0,54,100
1,32778,Note_off_c,0,72,100
1,32778,Note_off_c,1,60,100
1,32778,Note_off_c,0,54,100
1,32778,Note_off_c,0,72,100
1,32778,Note_off_c,1,60,100
1,32880,Note_on_c,0,62,100
1,32898,Note_off_c,0,62,100
1,33000,Note_on_c,0,57,100
1,33000,Note_on_c,1,64,100
1,33018,Note_off_c,0,57,100
1,33018,Note_off_c,1,64,100
1,33120,Note_on_c,0,54,100
1,33120,Note_on_c,0,62,100
1,33138,Note_off_c,0,54,100
1,33138,Note_off_c,0,62,100
1,33240,Note_on_c,0,53,100
1,33240,Note_on_c,1,56,100
1,33258,Note_off_c,0,53,100
1,33258,Note_off_c,1,56,100
1,33360,Note_on_c,0,62,100
1,33360,Note_on_c,0,67,100
1,33378,Note_off_c,0,62,100
1,33378,Note_off_c,0,67,100
1,33480,Note_on_c,0,57,100
1,33480,Note_on_c,0,72,100
1,33480,Note_on_c,1,61,100
1,33498,Note_off_c,0,57,100
1,33498,Note_off_c,0,72,100
1,33498,Note_off_c,1,61,100
1,33600,Note_on_c,0,56,100
1,33600,Note_on_c,0,62,100
1,33618,Note_off_c,0,56,100
1,33618,Note_off_c,0,62,100
1,33720,Note_on_c,0,57,100
1,33720,Note_on_c,0,62,100
1,33738,Note_off_c,0,57,100
1,33738,Note_off_c,0,62,100
1,33840,Note_on_c,0,54,100
1,33840,Note_on_c,0,64,100
1,33858,Note_off_c,0,54,100
1,33858,Note_off_c,0,64,100
1,33960,Note_on_c,0,59,100
1,33960,Note_on_c,1,62,100
1,33978,Note_off_c,0,59,100
1,33978,Note_off_c,1,62,100
1,34080,Note_on_c,0,57,100
1,34080,Note_on_c,0,70,100
1,34098,Note_off_c,0,57,100
1,34098,Note_off_c,0,70,100
1,34200,Note_on_c,0,59,100
1,34200,Note_on_c,0,59,100
1,34218,Note_off_c,0,59,100
1,34218,Note_off_c,0,59,100
1,34320,Note_on_c,0,54,100
1,34320,Note_on_c,1,53,100
1,34338,Note_off_c,0,54,100
1,34338,Note_off_c,1,53,100
1,34440,Note_on_c,0,53,100
1,34440,Note_on_c,0,57,100
1,34460,Note_off_c,0,53,100
1,34460,Note_off_c,0,57,100
1,34560,Note_on_c,0,59,100
1,34560,Note_on_c,0,61,100
1,34560,Note_on_c,1,61,100
1,34578,Note_off_c,0,59,100
1,34578,Note_off_c,0,61,100
1,34578,Note_off_c,1,61,100
1,34680,Note_on_c,0,59,100
1,34680,Note_on_c,0,62,100
1,34698,Note_off_c,0,59,100
1,34698,Note_off_c,0,62,100
1,34800,Note_on_c,0,59,100
1,34800,Note_on_c,0,62,100
1,34800,Note_on_c,1,60,100
1,34818,Note_off_c,0,59,100
1,34818,Note_off_c,0,62,100
1,34818,Note_off_c,1,60,100
1,34920,Note_on_c,0,59,100
1,34920,Note_on_c,0,59,100
1,34920,Note_on_c,0,60,100
1,34920,Note_on_c,0,60,100
1,34938,Note_off_c,0,59,100
1,34938,Note_off_c,0,60,100
1,34938,Note_off_c,0,59,100
1,34938,Note_off_c,0,60,100
1,35040,Note_on_c,0,58,100
1,35040,Note_on_c,0,59,100
1,35040,Note_on_c,1,59,100
1,35058,Note_off_c,0,58,100
1,35058,Note_off_c,0,59,100
1,35058,Note_off_c,1,59,100
1,35160,Note_on_c,0,61,100
1,35178,Note_off_c,0,61,100
1,35280,Note_on_c,0,62,100
1,35298,Note_off_c,0,62,100
1,35400,Note_on_c,0,59,100
1,35400,Note_on_c,0,62,100
1,35418,Note_off_c,0,59,100
1,35418,Note_off_c,0,62,100
1,35520,Note_on_c,0,59,100
1,35520,Note_on_c,1,58,100
1,35538,Note_off_c,0,59,100
1,35538,Note_off_c,1,58,100
1,35640,Note_on_c,0,58,100
1,35640,Note_on_c,0,59,100
1,35659,Note_off_c,0,58,100
1,35659,Note_off_c,0,59,100
1,35760,Note_on_c,0,62,100
1,35778,Note_off_c,0,62,100
1,35880,Note_on_c,0,59,100
1,35880,Note_on_c,0,59,100
1,35880,Note_on_c,1,61,100
1,35880,Note_on_c,1,61,100
1,35898,Note_off_c,0,59,100
1,35898,Note_off_c,1,61,100
1,35898,Note_off_c,0,59,100
1,35898,Note_off_c,1,61,100
1,36000,Note_on_c,0,59,100
1,36018,Note_off_c,0,59,100
1,36120,Note_on_c,0,59,100
1,36120,Note_on_c,1,61,100
1,36120,Note_on_c,1,61,100
1,36138,Note_off_c,0,59,100
1,36138,Note_off_c,1,61,100
1,36138,Note_off_c,1,61,100
1,36240,Note_on_c,0,59,100
1,36258,Note_off_c,0,59,100
1,36360,Note_on_c,0,59,100
1,36360,Note_on_c,1,61,100
1,36378,Note_off_c,0,59,100
1,36378,Note_off_c,1,61,100
1,36480,Note_on_c,0,59,100
1,36498,Note_off_c,0,59,100
1,36600,Note_on_c,0,59,100
1,36600,Note_on_c,1,61,100
1,36618,Note_off_c,0,59,100
1,36618,Note_off_c,1,61,100
1,36720,Note_on_c,0,59,100
1,36720,Note_on_c,0,61,100
1,36738,Note_off_c,0,59,100
1,36738,Note_off_c,0,61,100
1,36840,Note_on_c,0,58,100
1,36840,Note_on_c,0,62,100
1,36858,Note_off_c,0,58,100
1,36858,Note_off_c,0,62,100
1,37080,Note_on_c,0,59,100
1,37080,Note_on_c,1,61,100
1,37080,Note_on_c,1,61,100
1,37098,Note_off_c,0,59,100
1,37098,Note_off_c,1,61,100
1,37098,Note_off_c,1,61,100
1,37200,Note_on_c,0,58,100
1,37200,Note_on_c,0,60,100
1,37218,Note_off_c,0,58,100
1,37218,Note_off_c,0,60,100
1,37440,Note_on_c,0,62,100
1,37440,Note_on_c,1,61,100
1,37458,Note_off_c,0,62,100
1,37458,Note_off_c,1,61,100
1,37560,Note_on_c,0,59,100
1,37560,Note_on_c,0,59,100
1,37560,Note_on_c,0,62,100
1,37560,Note_on_c,0,62,100
1,37578,Note_off_c,0,59,100
1,37578,Note_off_c,0,62,100
1,37578,Note_off_c,0,59,100
1,37578,Note_off_c,0,62,100
1,37680,Note_on_c,0,58,100
1,37680,Note_on_c,0,59,100
1,37680,Note_on_c,1,57,100
1,37698,Note_off_c,0,58,100
1,37698,Note_off_c,0,59,100
1,37698,Note_off_c,1,57,100
1,37800,Note_on_c,0,62,100
1,37818,Note_off_c,0,62,100
1,37920,Note_on_c,1,57,100
1,37938,Note_off_c,1,57,100
1,38040,Note_on_c,0,59,100
1,38058,Note_off_c,0,59,100
1,38160,Note_on_c,0,60,100
1,38160,Note_on_c,0,62,100
1,38160,Note_on_c,1,57,100
1,38178,Note_off_c,0,60,100
1,38178,Note_off_c,0,62,100
1,38178,Note_off_c,1,57,100
1,38280,Note_on_c,0,59,100
1,38280,Note_on_c,0,61,100
1,38298,Note_off_c,0,59,100
1,38298,Note_off_c,0,61,100
1,38400,Note_on_c,0,62,100
1,38418,Note_off_c,0,62,100
1,38520,Note_on_c,0,59,100
1,38538,Note_off_c,0,59,100
1,38640,Note_on_c,0,59,100
1,38640,Note_on_c,1,58,100
1,38658,Note_off_c,0,59,100
1,38658,Note_off_c,1,58,100
1,38760,Note_on_c,0,58,100
1,38778,Note_off_c,0,58,100
1,38880,Note_on_c,0,62,100
1,38898,Note_off_c,0,62,100
1,39000,Note_on_c,0,59,100
1,39000,Note_on_c,1,59,100
1,39018,Note_off_c,0,59,100
1,39018,Note_off_c,1,59,100
1,39120,Note_on_c,0,62,100
1,39138,Note_off_c,0,62,100
1,39240,Note_on_c,0,58,100
1,39240,Note_on_c,0,58,100
1,39240,Note_on_c,0,62,100
1,39240,Note_on_c,0,62,100
1,39240,Note_on_c,1,61,100
1,39240,Note_on_c,1,61,100
1,39258,Note_off_c,0,58,100
1,39258,Note_off_c,0,62,100
1,39258,Note_off_c,1,61,100
1,39258,Note_off_c,0,58,100
1,39258,Note_off_c,0,62,100
1,39258,Note_off_c,1,61,100
1,39360,Note_on_c,0,58,100
1,39360,Note_on_c,0,62,100
1,39378,Note_off_c,0,58,100
1,39378,Note_off_c,0,62,100
1,39480,Note_on_c,1,58,100
1,39480,Note_on_c,1,58,100
1,39498,Note_off_c,1,58,100
1,39498,Note_off_c,1,58,100
1,39600,Note_on_c,0,62,100
1,39600,Note_on_c,0,62,100
1,39618,Note_off_c,0,62,100
1,39618,Note_off_c,0,62,100
1,39720,Note_on_c,0,62,100
1,39720,Note_on_c,1,60,100
1,39738,Note_off_c,0,62,100
1,39738,Note_off_c,1,60,100
1,39840,Note_on_c,0,58,100
1,39840,Note_on_c,0,60,100
1,39858,Note_off_c,0,58,100
1,39858,Note_off_c,0,60,100
1,39960,Note_on_c,0,61,100
1,39960,Note_on_c,0,62,100
1,39978,Note_off_c,0,61,100
1,39978,Note_off_c,0,62,100
1,40080,Note_on_c,0,62,100
1,40098,Note_off_c,0,62,100
1,40200,Note_on_c,0,58,100
1,40200,Note_on_c,0,59,100
1,40200,Note_on_c,1,57,100
1,40200,Note_on_c,1,57,100
1,40218,Note_off_c,0,58,100
1,40218,Note_off_c,0,59,100
1,40218,Note_off_c,1,57,100
1,40218,Note_off_c,1,57,100
1,40320,Note_on_c,0,62,100
1,40338,Note_off_c,0,62,100
1,40440,Note_on_c,0,58,100
1,40440,Note_on_c,0,58,100
1,40440,Note_on_c,0,62,100
1,40440,Note_on_c,0,62,100
1,40458,Note_off_c,0,58,100
1,40458,Note_off_c,0,62,100
1,40458,Note_off_c,0,58,100
1,40458,Note_off_c,0,62,100
1,40560,Note_on_c,0,58,100
1,40560,Note_on_c,1,59,100
1,40578,Note_off_c,0,58,100
1,40578,Note_off_c,1,59,100
1,40680,Note_on_c,0,62,100
1,40698,Note_off_c,0,62,100
1,40800,Note_on_c,0,60,100
