channel,time,status,program,pitch,velo
1,53,Note_on_c,0,69,80
1,148,Note_off_c,0,69,0
1,171,Note_on_c,0,72,40
1,265,Note_off_c,0,72,0
1,293,Note_on_c,0,76,80
1,388,Note_off_c,0,76,0
1,410,Note_on_c,0,86,40
1,505,Note_off_c,0,86,0
1,533,Note_on_c,0,90,80
1,628,Note_off_c,0,90,0
1,650,Note_on_c,0,55,40
1,745,Note_off_c,0,55,0
1,772,Note_on_c,0,58,80
1,873,Note_off_c,0,58,0
1,890,Note_on_c,0,62,40
1,984,Note_off_c,0,62,0
1,1012,Note_on_c,0,72,80
1,1112,Note_off_c,0,72,0
1,1129,Note_on_c,0,75,40
1,1224,Note_off_c,0,75,0
1,1252,Note_on_c,0,79,80
1,1352,Note_off_c,0,79,0
1,1369,Note_on_c,0,82,40
1,1463,Note_off_c,0,82,0
1,1497,Note_on_c,0,86,80
1,1592,Note_off_c,0,86,0
1,1608,Note_on_c,0,72,40
1,1703,Note_off_c,0,72,0
1,1737,Note_on_c,0,75,80
1,1829,Note_off_c,0,75,0
1,1846,Note_on_c,0,55,40
1,1940,Note_off_c,0,55,0
1,1973,Note_on_c,0,58,80
1,2068,Note_off_c,0,58,0
1,2085,Note_on_c,0,62,40
1,2179,Note_off_c,0,62,0
1,2213,Note_on_c,0,72,80
1,2307,Note_off_c,0,72,0
1,2324,Note_on_c,0,76,40
1,2419,Note_off_c,0,76,0
1,2452,Note_on_c,0,55,80
1,2547,Note_off_c,0,55,0
1,2564,Note_on_c,0,58,40
1,2659,Note_off_c,0,58,0
1,2692,Note_on_c,0,62,80
1,2787,Note_off_c,0,62,0
1,2804,Note_on_c,0,82,40
1,2904,Note_off_c,0,82,0
1,2932,Note_on_c,0,86,80
1,3026,Note_off_c,0,86,0
1,3043,Note_on_c,0,72,40
1,3143,Note_off_c,0,72,0
1,3171,Note_on_c,0,75,80
1,3266,Note_off_c,0,75,0
1,3283,Note_on_c,0,79,40
1,3383,Note_off_c,0,79,0
1,3411,Note_on_c,0,72,80
1,3506,Note_off_c,0,72,0
1,3528,Note_on_c,0,75,40
1,3623,Note_off_c,0,75,0
1,3651,Note_on_c,0,55,80
1,3745,Note_off_c,0,55,0
1,3768,Note_on_c,0,58,40
1,3862,Note_off_c,0,58,0
1,3890,Note_on_c,0,62,80
1,3985,Note_off_c,0,62,0
1,4007,Note_on_c,0,48,40
1,4102,Note_off_c,0,48,0
1,4130,Note_on_c,0,51,80
1,4225,Note_off_c,0,51,0
1,4247,Note_on_c,0,62,40
1,4342,Note_off_c,0,62,0
1,4369,Note_on_c,0,65,80
1,4470,Note_off_c,0,65,0
1,4486,Note_on_c,0,69,40
1,4581,Note_off_c,0,69,0
1,4609,Note_on_c,0,72,80
1,4709,Note_off_c,0,72,0
1,4726,Note_on_c,0,76,40
1,4821,Note_off_c,0,76,0
1,4849,Note_on_c,0,55,80
1,4949,Note_off_c,0,55,0
1,4966,Note_on_c,0,58,40
1,5060,Note_off_c,0,58,0
1,5094,Note_on_c,0,79,80
1,5189,Note_off_c,0,79,0
1,5205,Note_on_c,0,82,40
1,5300,Note_off_c,0,82,0
1,5333,Note_on_c,0,86,80
1,5428,Note_off_c,0,86,0
1,5445,Note_on_c,0,89,40
1,5540,Note_off_c,0,89,0
1,5573,Note_on_c,0,93,80
1,5668,Note_off_c,0,93,0
1,5685,Note_on_c,0,72,40
1,5779,Note_off_c,0,72,0
1,5813,Note_on_c,0,76,80
1,5907,Note_off_c,0,76,0
1,5924,Note_on_c,0,79,40
1,6019,Note_off_c,0,79,0
1,6052,Note_on_c,0,83,80
1,6147,Note_off_c,0,83,0
1,6164,Note_on_c,0,48,40
1,6258,Note_off_c,0,48,0
1,6292,Note_on_c,0,51,80
1,6387,Note_off_c,0,51,0
1,6403,Note_on_c,0,55,40
1,6504,Note_off_c,0,55,0
1,6532,Note_on_c,0,55,80
1,6626,Note_off_c,0,55,0
1,6643,Note_on_c,0,58,40
1,6743,Note_off_c,0,58,0
1,6771,Note_on_c,0,62,80
1,6866,Note_off_c,0,62,0
1,6883,Note_on_c,0,82,40
1,6983,Note_off_c,0,82,0
1,7011,Note_on_c,0,86,80
1,7106,Note_off_c,0,86,0
1,7128,Note_on_c,0,72,40
1,7223,Note_off_c,0,72,0
1,7251,Note_on_c,0,75,80
1,7345,Note_off_c,0,75,0
1,7368,Note_on_c,0,79,40
1,7462,Note_off_c,0,79,0
1,7490,Note_on_c,0,58,80
1,7585,Note_off_c,0,58,0
1,7607,Note_on_c,0,62,40
1,7702,Note_off_c,0,62,0
1,7730,Note_on_c,0,65,80
1,7824,Note_off_c,0,65,0
1,7847,Note_on_c,0,69,40
1,7941,Note_off_c,0,69,0
1,7969,Note_on_c,0,48,80
1,8070,Note_off_c,0,48,0
1,8086,Note_on_c,0,51,40
1,8181,Note_off_c,0,51,0
1,8209,Note_on_c,0,55,80
1,8309,Note_off_c,0,55,0
1,8326,Note_on_c,0,65,40
1,8421,Note_off_c,0,65,0
1,8449,Note_on_c,0,69,80
1,8549,Note_off_c,0,69,0
1,8566,Note_on_c,0,55,40
1,8660,Note_off_c,0,55,0
1,8694,Note_on_c,0,58,80
1,8788,Note_off_c,0,58,0
1,8805,Note_on_c,0,62,40
1,8900,Note_off_c,0,62,0
1,8933,Note_on_c,0,72,80
1,9028,Note_off_c,0,72,0
1,9045,Note_on_c,0,75,40
1,9140,Note_off_c,0,75,0
1,9173,Note_on_c,0,79,80
1,9268,Note_off_c,0,79,0
1,9284,Note_on_c,0,82,40
1,9379,Note_off_c,0,82,0
1,9413,Note_on_c,0,86,80
1,9507,Note_off_c,0,86,0
1,9524,Note_on_c,0,72,40
1,9619,Note_off_c,0,72,0
1,9652,Note_on_c,0,75,80
1,9747,Note_off_c,0,75,0
1,9764,Note_on_c,0,55,40
1,9858,Note_off_c,0,55,0
1,9892,Note_on_c,0,58,80
1,9987,Note_off_c,0,58,0
1,10003,Note_on_c,0,62,40
1,10104,Note_off_c,0,62,0
1,10132,Note_on_c,0,65,80
1,10226,Note_off_c,0,65,0
1,10243,Note_on_c,0,69,40
1,10343,Note_off_c,0,69,0
1,10371,Note_on_c,0,55,80
1,10466,Note_off_c,0,55,0
1,10483,Note_on_c,0,58,40
1,10583,Note_off_c,0,58,0
1,10611,Note_on_c,0,62,80
1,10705,Note_off_c,0,62,0
1,10722,Note_on_c,0,65,40
1,10822,Note_off_c,0,65,0
1,10850,Note_on_c,0,69,80
1,10945,Note_off_c,0,69,0
1,10967,Note_on_c,0,72,40
1,11062,Note_off_c,0,72,0
1,11090,Note_on_c,0,76,80
1,11185,Note_off_c,0,76,0
1,11207,Note_on_c,0,96,40
1,11302,Note_off_c,0,96,0
1,11330,Note_on_c,0,100,80
1,11424,Note_off_c,0,100,0
1,11447,Note_on_c,0,103,40
1,11541,Note_off_c,0,103,0
1,11569,Note_on_c,0,83,80
1,11669,Note_off_c,0,83,0
1,11686,Note_on_c,0,48,40
1,11781,Note_off_c,0,48,0
1,11809,Note_on_c,0,51,80
1,11909,Note_off_c,0,51,0
1,11926,Note_on_c,0,55,40
1,12021,Note_off_c,0,55,0
1,12049,Note_on_c,0,48,80
1,12149,Note_off_c,0,48,0
1,12166,Note_on_c,0,58,40
1,12260,Note_off_c,0,58,0
1,12294,Note_on_c,0,62,80
1,12388,Note_off_c,0,62,0
1,12405,Note_on_c,0,65,40
1,12500,Note_off_c,0,65,0
1,12533,Note_on_c,0,69,80
1,12628,Note_off_c,0,69,0
1,12645,Note_on_c,0,55,40
1,12739,Note_off_c,0,55,0
1,12773,Note_on_c,0,58,80
1,12868,Note_off_c,0,58,0
1,12884,Note_on_c,0,62,40
1,12979,Note_off_c,0,62,0
1,13013,Note_on_c,0,82,80
1,13107,Note_off_c,0,82,0
1,13124,Note_on_c,0,86,40
1,13219,Note_off_c,0,86,0
1,13252,Note_on_c,0,89,80
1,13347,Note_off_c,0,89,0
1,13364,Note_on_c,0,93,40
1,13458,Note_off_c,0,93,0
1,13492,Note_on_c,0,72,80
1,13587,Note_off_c,0,72,0
1,13603,Note_on_c,0,51,40
1,13704,Note_off_c,0,51,0
1,13731,Note_on_c,0,55,80
1,13826,Note_off_c,0,55,0
1,13843,Note_on_c,0,58,40
1,13943,Note_off_c,0,58,0
1,13971,Note_on_c,0,62,80
1,14066,Note_off_c,0,62,0
1,14083,Note_on_c,0,48,40
1,14183,Note_off_c,0,48,0
1,14211,Note_on_c,0,51,80
1,14306,Note_off_c,0,51,0
1,14322,Note_on_c,0,55,40
1,14423,Note_off_c,0,55,0
1,14450,Note_on_c,0,55,80
1,14545,Note_off_c,0,55,0
1,14567,Note_on_c,0,58,40
1,14662,Note_off_c,0,58,0
1,14690,Note_on_c,0,62,80
1,14785,Note_off_c,0,62,0
1,14807,Note_on_c,0,65,40
1,14902,Note_off_c,0,65,0
1,14930,Note_on_c,0,69,80
1,15024,Note_off_c,0,69,0
1,15047,Note_on_c,0,72,40
1,15141,Note_off_c,0,72,0
1,15169,Note_on_c,0,75,80
1,15269,Note_off_c,0,75,0
1,15286,Note_on_c,0,79,40
1,15381,Note_off_c,0,79,0
1,15409,Note_on_c,0,82,80
1,15509,Note_off_c,0,82,0
1,15526,Note_on_c,0,86,40
1,15621,Note_off_c,0,86,0
1,15648,Note_on_c,0,89,80
1,15749,Note_off_c,0,89,0
1,15765,Note_on_c,0,93,40
1,15860,Note_off_c,0,93,0
1,15894,Note_on_c,0,48,80
1,15988,Note_off_c,0,48,0
1,16005,Note_on_c,0,51,40
1,16100,Note_off_c,0,51,0
1,16133,Note_on_c,0,55,80
1,16228,Note_off_c,0,55,0
1,16245,Note_on_c,0,65,40
1,16339,Note_off_c,0,65,0
1,16373,Note_on_c,0,69,80
1,16468,Note_off_c,0,69,0
1,16484,Note_on_c,0,72,40
1,16579,Note_off_c,0,72,0
1,16612,Note_on_c,0,76,80
1,16707,Note_off_c,0,76,0
1,16724,Note_on_c,0,79,40
1,16819,Note_off_c,0,79,0
1,16852,Note_on_c,0,100,80
1,16947,Note_off_c,0,100,0
1,16964,Note_on_c,0,103,40
1,17058,Note_off_c,0,103,0
1,17092,Note_on_c,0,107,80
1,17187,Note_off_c,0,107,0
1,17203,Note_on_c,0,72,40
1,17303,Note_off_c,0,72,0
1,17331,Note_on_c,0,75,80
1,17426,Note_off_c,0,75,0
1,17443,Note_on_c,0,79,40
1,17543,Note_off_c,0,79,0
1,17571,Note_on_c,0,72,80
1,17666,Note_off_c,0,72,0
1,17682,Note_on_c,0,51,40
1,17783,Note_off_c,0,51,0
1,17811,Note_on_c,0,55,80
1,17905,Note_off_c,0,55,0
1,17922,Note_on_c,0,58,40
1,18022,Note_off_c,0,58,0
1,18050,Note_on_c,0,62,80
1,18145,Note_off_c,0,62,0
1,18167,Note_on_c,0,48,40
1,18262,Note_off_c,0,48,0
1,18290,Note_on_c,0,58,80
1,18385,Note_off_c,0,58,0
1,18407,Note_on_c,0,62,40
1,18502,Note_off_c,0,62,0
1,18529,Note_on_c,0,65,80
1,18624,Note_off_c,0,65,0
1,18646,Note_on_c,0,69,40
1,18741,Note_off_c,0,69,0
1,18769,Note_on_c,0,72,80
1,18869,Note_off_c,0,72,0
1,18886,Note_on_c,0,76,40
1,18981,Note_off_c,0,76,0
1,19009,Note_on_c,0,55,80
1,19109,Note_off_c,0,55,0
1,19126,Note_on_c,0,75,40
1,19220,Note_off_c,0,75,0
1,19248,Note_on_c,0,79,80
1,19349,Note_off_c,0,79,0
1,19365,Note_on_c,0,82,40
1,19460,Note_off_c,0,82,0
1,19488,Note_on_c,0,86,80
1,19588,Note_off_c,0,86,0
1,19605,Note_on_c,0,72,40
1,19700,Note_off_c,0,72,0
1,19733,Note_on_c,0,51,80
1,19828,Note_off_c,0,51,0
1,19845,Note_on_c,0,55,40
1,19939,Note_off_c,0,55,0
1,19973,Note_on_c,0,48,80
1,20068,Note_off_c,0,48,0
1,20084,Note_on_c,0,51,40
1,20179,Note_off_c,0,51,0
1,20212,Note_on_c,0,55,80
1,20307,Note_off_c,0,55,0
1,20324,Note_on_c,0,58,40
1,20419,Note_off_c,0,58,0
1,20452,Note_on_c,0,62,80
1,20547,Note_off_c,0,62,0
1,20564,Note_on_c,0,55,40
1,20658,Note_off_c,0,55,0
1,20692,Note_on_c,0,58,80
1,20786,Note_off_c,0,58,0
1,20803,Note_on_c,0,62,40
1,20903,Note_off_c,0,62,0
1,20931,Note_on_c,0,82,80
1,21026,Note_off_c,0,82,0
1,21043,Note_on_c,0,86,40
1,21143,Note_off_c,0,86,0
1,21171,Note_on_c,0,89,80
1,21266,Note_off_c,0,89,0
1,21282,Note_on_c,0,93,40
1,21383,Note_off_c,0,93,0
1,21411,Note_on_c,0,72,80
1,21505,Note_off_c,0,72,0
1,21522,Note_on_c,0,51,40
1,21622,Note_off_c,0,51,0
1,21650,Note_on_c,0,55,80
1,21745,Note_off_c,0,55,0
1,21767,Note_on_c,0,58,40
1,21862,Note_off_c,0,58,0
1,21890,Note_on_c,0,62,80
1,21985,Note_off_c,0,62,0
1,22007,Note_on_c,0,65,40
1,22102,Note_off_c,0,65,0
1,22129,Note_on_c,0,69,80
1,22224,Note_off_c,0,69,0
1,22246,Note_on_c,0,72,40
1,22341,Note_off_c,0,72,0
1,22369,Note_on_c,0,83,80
1,22469,Note_off_c,0,83,0
1,22486,Note_on_c,0,86,40
1,22581,Note_off_c,0,86,0
1,22609,Note_on_c,0,90,80
1,22709,Note_off_c,0,90,0
1,22726,Note_on_c,0,55,40
1,22820,Note_off_c,0,55,0
1,22848,Note_on_c,0,58,80
1,22949,Note_off_c,0,58,0
1,22965,Note_on_c,0,79,40
1,23060,Note_off_c,0,79,0
1,23088,Note_on_c,0,72,80
1,23188,Note_off_c,0,72,0
1,23205,Note_on_c,0,75,40
1,23300,Note_off_c,0,75,0
1,23333,Note_on_c,0,79,80
1,23428,Note_off_c,0,79,0
1,23445,Note_on_c,0,82,40
1,23539,Note_off_c,0,82,0
1,23573,Note_on_c,0,86,80
1,23667,Note_off_c,0,86,0
1,23684,Note_on_c,0,72,40
1,23779,Note_off_c,0,72,0
1,23812,Note_on_c,0,51,80
1,23907,Note_off_c,0,51,0
1,23924,Note_on_c,0,55,40
1,24019,Note_off_c,0,55,0
1,24052,Note_on_c,0,58,80
1,24147,Note_off_c,0,58,0
1,24163,Note_on_c,0,62,40
1,24258,Note_off_c,0,62,0
1,24292,Note_on_c,0,65,80
1,24386,Note_off_c,0,65,0
1,24403,Note_on_c,0,76,40
1,24503,Note_off_c,0,76,0
1,24531,Note_on_c,0,55,80
1,24626,Note_off_c,0,55,0
1,24643,Note_on_c,0,58,40
1,24743,Note_off_c,0,58,0
1,24771,Note_on_c,0,62,80
1,24866,Note_off_c,0,62,0
1,24882,Note_on_c,0,65,40
1,24983,Note_off_c,0,65,0
1,25011,Note_on_c,0,69,80
1,25105,Note_off_c,0,69,0
1,25122,Note_on_c,0,55,40
1,25222,Note_off_c,0,55,0
1,25250,Note_on_c,0,75,80
1,25345,Note_off_c,0,75,0
1,25367,Note_on_c,0,79,40
1,25462,Note_off_c,0,79,0
1,25490,Note_on_c,0,72,80
1,25584,Note_off_c,0,72,0
1,25607,Note_on_c,0,51,40
1,25701,Note_off_c,0,51,0
1,25729,Note_on_c,0,55,80
1,25824,Note_off_c,0,55,0
1,25846,Note_on_c,0,58,40
1,25941,Note_off_c,0,58,0
1,25969,Note_on_c,0,62,80
1,26069,Note_off_c,0,62,0
1,26086,Note_on_c,0,48,40
1,26181,Note_off_c,0,48,0
1,26209,Note_on_c,0,58,80
1,26309,Note_off_c,0,58,0
1,26326,Note_on_c,0,62,40
1,26420,Note_off_c,0,62,0
1,26448,Note_on_c,0,65,80
1,26549,Note_off_c,0,65,0
1,26565,Note_on_c,0,69,40
1,26660,Note_off_c,0,69,0
1,26688,Note_on_c,0,72,80
1,26788,Note_off_c,0,72,0
1,26805,Note_on_c,0,76,40
1,26900,Note_off_c,0,76,0
1,26933,Note_on_c,0,55,80
1,27028,Note_off_c,0,55,0
1,27045,Note_on_c,0,75,40
1,27139,Note_off_c,0,75,0
1,27173,Note_on_c,0,79,80
1,27267,Note_off_c,0,79,0
1,27284,Note_on_c,0,82,40
1,27379,Note_off_c,0,82,0
1,27412,Note_on_c,0,86,80
1,27507,Note_off_c,0,86,0
1,27524,Note_on_c,0,89,40
1,27618,Note_off_c,0,89,0
1,27652,Note_on_c,0,69,80
1,27747,Note_off_c,0,69,0
1,27763,Note_on_c,0,72,40
1,27858,Note_off_c,0,72,0
1,27892,Note_on_c,0,76,80
1,27986,Note_off_c,0,76,0
1,28003,Note_on_c,0,79,40
1,28103,Note_off_c,0,79,0
1,28131,Note_on_c,0,83,80
1,28226,Note_off_c,0,83,0
1,28243,Note_on_c,0,48,40
1,28343,Note_off_c,0,48,0
1,28371,Note_on_c,0,51,80
1,28465,Note_off_c,0,51,0
1,28482,Note_on_c,0,62,40
1,28583,Note_off_c,0,62,0
1,28610,Note_on_c,0,55,80
1,28705,Note_off_c,0,55,0
1,28722,Note_on_c,0,58,40
1,28822,Note_off_c,0,58,0
1,28850,Note_on_c,0,62,80
1,28945,Note_off_c,0,62,0
1,28967,Note_on_c,0,65,40
1,29062,Note_off_c,0,65,0
1,29090,Note_on_c,0,86,80
1,29184,Note_off_c,0,86,0
1,29207,Note_on_c,0,72,40
1,29301,Note_off_c,0,72,0
1,29329,Note_on_c,0,75,80
1,29424,Note_off_c,0,75,0
1,29446,Note_on_c,0,79,40
1,29541,Note_off_c,0,79,0
1,29569,Note_on_c,0,82,80
1,29669,Note_off_c,0,82,0
1,29686,Note_on_c,0,86,40
1,29781,Note_off_c,0,86,0
1,29809,Note_on_c,0,89,80
1,29909,Note_off_c,0,89,0
1,29926,Note_on_c,0,69,40
1,30020,Note_off_c,0,69,0
1,30048,Note_on_c,0,48,80
1,30148,Note_off_c,0,48,0
1,30165,Note_on_c,0,51,40
1,30260,Note_off_c,0,51,0
1,30288,Note_on_c,0,62,80
1,30388,Note_off_c,0,62,0
1,30405,Note_on_c,0,65,40
1,30500,Note_off_c,0,65,0
1,30533,Note_on_c,0,69,80
1,30628,Note_off_c,0,69,0
1,30644,Note_on_c,0,55,40
1,30739,Note_off_c,0,55,0
1,30772,Note_on_c,0,58,80
1,30867,Note_off_c,0,58,0
1,30884,Note_on_c,0,79,40
1,30979,Note_off_c,0,79,0
1,31012,Note_on_c,0,72,80
1,31107,Note_off_c,0,72,0
1,31124,Note_on_c,0,75,40
1,31218,Note_off_c,0,75,0
1,31252,Note_on_c,0,79,80
1,31346,Note_off_c,0,79,0
1,31363,Note_on_c,0,82,40
1,31458,Note_off_c,0,82,0
1,31491,Note_on_c,0,86,80
1,31586,Note_off_c,0,86,0
1,31603,Note_on_c,0,72,40
1,31703,Note_off_c,0,72,0
1,31731,Note_on_c,0,51,80
1,31826,Note_off_c,0,51,0
1,31843,Note_on_c,0,55,40
1,31943,Note_off_c,0,55,0
1,31971,Note_on_c,0,58,80
1,32066,Note_off_c,0,58,0
1,32082,Note_on_c,0,62,40
1,32182,Note_off_c,0,62,0
1,32210,Note_on_c,0,65,80
1,32305,Note_off_c,0,65,0
1,32322,Note_on_c,0,76,40
1,32422,Note_off_c,0,76,0
1,32450,Note_on_c,0,55,80
1,32545,Note_off_c,0,55,0
1,32567,Note_on_c,0,58,40
1,32662,Note_off_c,0,58,0
1,32690,Note_on_c,0,62,80
1,32784,Note_off_c,0,62,0
1,32807,Note_on_c,0,65,40
1,32901,Note_off_c,0,65,0
1,32929,Note_on_c,0,69,80
1,33024,Note_off_c,0,69,0
1,33046,Note_on_c,0,72,40
1,33141,Note_off_c,0,72,0
1,33169,Note_on_c,0,93,80
1,33269,Note_off_c,0,93,0
1,33286,Note_on_c,0,96,40
1,33381,Note_off_c,0,96,0
1,33408,Note_on_c,0,100,80
1,33509,Note_off_c,0,100,0
1,33525,Note_on_c,0,103,40
1,33620,Note_off_c,0,103,0
1,33648,Note_on_c,0,107,80
1,33748,Note_off_c,0,107,0
1,33765,Note_on_c,0,48,40
1,33860,Note_off_c,0,48,0
1,33888,Note_on_c,0,51,80
1,33988,Note_off_c,0,51,0
1,34005,Note_on_c,0,55,40
1,34099,Note_off_c,0,55,0
1,34133,Note_on_c,0,48,80
1,34228,Note_off_c,0,48,0
1,34244,Note_on_c,0,51,40
1,34339,Note_off_c,0,51,0
1,34373,Note_on_c,0,55,80
1,34467,Note_off_c,0,55,0
1,34484,Note_on_c,0,58,40
1,34579,Note_off_c,0,58,0
1,34612,Note_on_c,0,69,80
1,34707,Note_off_c,0,69,0
1,34724,Note_on_c,0,55,40
1,34818,Note_off_c,0,55,0
1,34852,Note_on_c,0,58,80
1,34946,Note_off_c,0,58,0
1,34963,Note_on_c,0,79,40
1,35058,Note_off_c,0,79,0
1,35091,Note_on_c,0,82,80
1,35186,Note_off_c,0,82,0
1,35203,Note_on_c,0,86,40
1,35298,Note_off_c,0,86,0
1,35331,Note_on_c,0,89,80
1,35426,Note_off_c,0,89,0
1,35442,Note_on_c,0,93,40
1,35543,Note_off_c,0,93,0
1,35571,Note_on_c,0,48,80
1,35665,Note_off_c,0,48,0
1,35682,Note_on_c,0,51,40
1,35782,Note_off_c,0,51,0
1,35810,Note_on_c,0,55,80
1,35905,Note_off_c,0,55,0
1,35922,Note_on_c,0,58,40
1,36022,Note_off_c,0,58,0
1,36050,Note_on_c,0,62,80
1,36145,Note_off_c,0,62,0
1,36167,Note_on_c,0,48,40
1,36262,Note_off_c,0,48,0
1,36290,Note_on_c,0,51,80
1,36384,Note_off_c,0,51,0
1,36407,Note_on_c,0,62,40
1,36501,Note_off_c,0,62,0
1,36529,Note_on_c,0,55,80
1,36624,Note_off_c,0,55,0
1,36646,Note_on_c,0,58,40
1,36741,Note_off_c,0,58,0
1,36769,Note_on_c,0,62,80
1,36869,Note_off_c,0,62,0
1,36886,Note_on_c,0,65,40
1,36980,Note_off_c,0,65,0
1,37008,Note_on_c,0,86,80
1,37109,Note_off_c,0,86,0
1,37125,Note_on_c,0,72,40
1,37220,Note_off_c,0,72,0
1,37248,Note_on_c,0,75,80
1,37348,Note_off_c,0,75,0
1,37365,Note_on_c,0,79,40
1,37460,Note_off_c,0,79,0
1,37488,Note_on_c,0,82,80
1,37588,Note_off_c,0,82,0
1,37605,Note_on_c,0,86,40
1,37699,Note_off_c,0,86,0
1,37733,Note_on_c,0,89,80
1,37828,Note_off_c,0,89,0
1,37844,Note_on_c,0,69,40
1,37939,Note_off_c,0,69,0
1,37972,Note_on_c,0,48,80
1,38067,Note_off_c,0,48,0
1,38084,Note_on_c,0,51,40
1,38179,Note_off_c,0,51,0
1,38212,Note_on_c,0,55,80
1,38307,Note_off_c,0,55,0
1,38323,Note_on_c,0,58,40
1,38418,Note_off_c,0,58,0
1,38452,Note_on_c,0,69,80
1,38546,Note_off_c,0,69,0
1,38563,Note_on_c,0,72,40
1,38658,Note_off_c,0,72,0
1,38691,Note_on_c,0,76,80
1,38786,Note_off_c,0,76,0
1,38803,Note_on_c,0,79,40
1,38897,Note_off_c,0,79,0
1,38931,Note_on_c,0,83,80
1,39026,Note_off_c,0,83,0
1,39042,Note_on_c,0,86,40
1,39143,Note_off_c,0,86,0
1,39170,Note_on_c,0,90,80
1,39265,Note_off_c,0,90,0
1,39282,Note_on_c,0,72,40
1,39382,Note_off_c,0,72,0
1,39410,Note_on_c,0,75,80
1,39505,Note_off_c,0,75,0
1,39522,Note_on_c,0,79,40
1,39622,Note_off_c,0,79,0
1,39650,Note_on_c,0,48,80
1,39744,Note_off_c,0,48,0
1,39767,Note_on_c,0,51,40
1,39862,Note_off_c,0,51,0
1,39889,Note_on_c,0,55,80
1,39984,Note_off_c,0,55,0
1,40006,Note_on_c,0,58,40
1,40101,Note_off_c,0,58,0
1,40129,Note_on_c,0,62,80
1,40224,Note_off_c,0,62,0
1,40246,Note_on_c,0,55,40
1,40341,Note_off_c,0,55,0
1,40369,Note_on_c,0,58,80
1,40469,Note_off_c,0,58,0
1,40486,Note_on_c,0,62,40
1,40581,Note_off_c,0,62,0
1,40608,Note_on_c,0,65,80
1,40709,Note_off_c,0,65,0
1,40725,Note_on_c,0,69,40
1,40820,Note_off_c,0,69,0
1,40848,Note_on_c,0,72,80
1,40948,Note_off_c,0,72,0
1,40965,Note_on_c,0,76,40
1,41060,Note_off_c,0,76,0
1,41087,Note_on_c,0,72,80
1,41188,Note_off_c,0,72,0
1,41205,Note_on_c,0,75,40
1,41299,Note_off_c,0,75,0
1,41333,Note_on_c,0,79,80
1,41427,Note_off_c,0,79,0
1,41444,Note_on_c,0,82,40
1,41539,Note_off_c,0,82,0
1,41572,Note_on_c,0,86,80
1,41667,Note_off_c,0,86,0
1,41684,Note_on_c,0,48,40
1,41778,Note_off_c,0,48,0
1,41812,Note_on_c,0,51,80
1,41907,Note_off_c,0,51,0
1,41923,Note_on_c,0,55,40
1,42018,Note_off_c,0,55,0
1,42052,Note_on_c,0,48,80
1,42146,Note_off_c,0,48,0
1,42163,Note_on_c,0,51,40
1,42258,Note_off_c,0,51,0
1,42291,Note_on_c,0,55,80
1,42386,Note_off_c,0,55,0
1,42403,Note_on_c,0,58,40
1,42497,Note_off_c,0,58,0
1,42531,Note_on_c,0,69,80
1,42626,Note_off_c,0,69,0
1,42642,Note_on_c,0,55,40
1,42743,Note_off_c,0,55,0
1,42770,Note_on_c,0,58,80
1,42865,Note_off_c,0,58,0
1,42882,Note_on_c,0,62,40
1,42982,Note_off_c,0,62,0
1,43010,Note_on_c,0,65,80
1,43105,Note_off_c,0,65,0
1,43121,Note_on_c,0,86,40
1,43222,Note_off_c,0,86,0
1,43250,Note_on_c,0,89,80
1,43344,Note_off_c,0,89,0
1,43367,Note_on_c,0,93,40
1,43461,Note_off_c,0,93,0
1,43489,Note_on_c,0,72,80
1,43584,Note_off_c,0,72,0
1,43606,Note_on_c,0,75,40
1,43701,Note_off_c,0,75,0
1,43729,Note_on_c,0,79,80
1,43824,Note_off_c,0,79,0
1,43846,Note_on_c,0,82,40
1,43941,Note_off_c,0,82,0
1,43969,Note_on_c,0,62,80
1,44063,Note_off_c,0,62,0
1,44086,Note_on_c,0,65,40
1,44180,Note_off_c,0,65,0
1,44208,Note_on_c,0,69,80
1,44308,Note_off_c,0,69,0
1,44325,Note_on_c,0,79,40
1,44420,Note_off_c,0,79,0
1,44448,Note_on_c,0,83,80
1,44548,Note_off_c,0,83,0
1,44565,Note_on_c,0,86,40
1,44660,Note_off_c,0,86,0
1,44687,Note_on_c,0,90,80
1,44788,Note_off_c,0,90,0
1,44805,Note_on_c,0,55,40
1,44899,Note_off_c,0,55,0
1,44933,Note_on_c,0,75,80
1,45027,Note_off_c,0,75,0
1,45044,Note_on_c,0,79,40
1,45139,Note_off_c,0,79,0
1,45172,Note_on_c,0,72,80
1,45267,Note_off_c,0,72,0
1,45284,Note_on_c,0,75,40
1,45379,Note_off_c,0,75,0
1,45412,Note_on_c,0,79,80
1,45507,Note_off_c,0,79,0
1,45523,Note_on_c,0,82,40
1,45618,Note_off_c,0,82,0
1,45652,Note_on_c,0,86,80
1,45746,Note_off_c,0,86,0
1,45763,Note_on_c,0,48,40
1,45858,Note_off_c,0,48,0
1,45891,Note_on_c,0,51,80
1,45986,Note_off_c,0,51,0
1,46003,Note_on_c,0,55,40
1,46097,Note_off_c,0,55,0
1,46131,Note_on_c,0,58,80
1,46226,Note_off_c,0,58,0
1,46242,Note_on_c,0,62,40
1,46342,Note_off_c,0,62,0
1,46370,Note_on_c,0,72,80
1,46465,Note_off_c,0,72,0
1,46482,Note_on_c,0,76,40
1,46582,Note_off_c,0,76,0
1,46610,Note_on_c,0,55,80
1,46705,Note_off_c,0,55,0
1,46722,Note_on_c,0,58,40
1,46822,Note_off_c,0,58,0
1,46850,Note_on_c,0,62,80
1,46944,Note_off_c,0,62,0
1,46967,Note_on_c,0,65,40
1,47061,Note_off_c,0,65,0
1,47089,Note_on_c,0,69,80
1,47184,Note_off_c,0,69,0
1,47206,Note_on_c,0,72,40
1,47301,Note_off_c,0,72,0
1,47329,Note_on_c,0,75,80
1,47424,Note_off_c,0,75,0
1,47446,Note_on_c,0,79,40
1,47541,Note_off_c,0,79,0
1,47569,Note_on_c,0,72,80
1,47663,Note_off_c,0,72,0
1,47686,Note_on_c,0,75,40
1,47780,Note_off_c,0,75,0
1,47808,Note_on_c,0,55,80
1,47908,Note_off_c,0,55,0
1,47925,Note_on_c,0,58,40
1,48020,Note_off_c,0,58,0
1,48048,Note_on_c,0,62,80
1,48148,Note_off_c,0,62,0
1,48165,Note_on_c,0,48,40
1,48260,Note_off_c,0,48,0
1,48287,Note_on_c,0,51,80
1,48388,Note_off_c,0,51,0
1,48404,Note_on_c,0,55,40
1,48499,Note_off_c,0,55,0
1,48533,Note_on_c,0,58,80
1,48627,Note_off_c,0,58,0
1,48644,Note_on_c,0,69,40
1,48739,Note_off_c,0,69,0
1,48772,Note_on_c,0,72,80
1,48867,Note_off_c,0,72,0
1,48884,Note_on_c,0,76,40
1,48978,Note_off_c,0,76,0
1,49012,Note_on_c,0,72,80
1,49106,Note_off_c,0,72,0
1,49123,Note_on_c,0,75,40
1,49218,Note_off_c,0,75,0
1,49252,Note_on_c,0,79,80
1,49346,Note_off_c,0,79,0
1,49363,Note_on_c,0,82,40
1,49458,Note_off_c,0,82,0
1,49491,Note_on_c,0,86,80
1,49586,Note_off_c,0,86,0
1,49602,Note_on_c,0,65,40
1,49697,Note_off_c,0,65,0
1,49731,Note_on_c,0,69,80
1,49825,Note_off_c,0,69,0
1,49842,Note_on_c,0,72,40
1,49942,Note_off_c,0,72,0
1,49970,Note_on_c,0,76,80
1,50065,Note_off_c,0,76,0
1,50082,Note_on_c,0,79,40
1,50182,Note_off_c,0,79,0
1,50210,Note_on_c,0,83,80
1,50305,Note_off_c,0,83,0
1,50321,Note_on_c,0,48,40
1,50422,Note_off_c,0,48,0
1,50450,Note_on_c,0,58,80
1,50544,Note_off_c,0,58,0
1,50567,Note_on_c,0,62,40
1,50661,Note_off_c,0,62,0
1,50689,Note_on_c,0,55,80
1,50784,Note_off_c,0,55,0
1,50806,Note_on_c,0,58,40
1,50901,Note_off_c,0,58,0
1,50929,Note_on_c,0,62,80
1,51023,Note_off_c,0,62,0
1,51046,Note_on_c,0,82,40
1,51140,Note_off_c,0,82,0
1,51168,Note_on_c,0,86,80
1,51263,Note_off_c,0,86,0
1,51285,Note_on_c,0,72,40
1,51380,Note_off_c,0,72,0
1,51408,Note_on_c,0,75,80
1,51508,Note_off_c,0,75,0
1,51525,Note_on_c,0,79,40
1,51620,Note_off_c,0,79,0
1,51648,Note_on_c,0,82,80
1,51748,Note_off_c,0,82,0
1,51765,Note_on_c,0,86,40
1,51859,Note_off_c,0,86,0
1,51887,Note_on_c,0,65,80
1,51988,Note_off_c,0,65,0
1,52004,Note_on_c,0,69,40
1,52099,Note_off_c,0,69,0
1,52132,Note_on_c,0,48,80
1,52227,Note_off_c,0,48,0
1,52244,Note_on_c,0,51,40
1,52339,Note_off_c,0,51,0
1,52372,Note_on_c,0,55,80
1,52467,Note_off_c,0,55,0
1,52484,Note_on_c,0,65,40
1,52578,Note_off_c,0,65,0
1,52612,Note_on_c,0,69,80
1,52707,Note_off_c,0,69,0
1,52723,Note_on_c,0,55,40
1,52818,Note_off_c,0,55,0
1,52851,Note_on_c,0,58,80
1,52946,Note_off_c,0,58,0
1,52963,Note_on_c,0,62,40
1,53058,Note_off_c,0,62,0
1,53091,Note_on_c,0,55,80
1,53186,Note_off_c,0,55,0
1,53202,Note_on_c,0,58,40
1,53297,Note_off_c,0,58,0
1,53331,Note_on_c,0,79,80
1,53425,Note_off_c,0,79,0
1,53442,Note_on_c,0,82,40
1,53542,Note_off_c,0,82,0
1,53570,Note_on_c,0,86,80
1,53665,Note_off_c,0,86,0
1,53682,Note_on_c,0,48,40
1,53782,Note_off_c,0,48,0
1,53810,Note_on_c,0,51,80
1,53905,Note_off_c,0,51,0
1,53921,Note_on_c,0,55,40
1,54022,Note_off_c,0,55,0
1,54049,Note_on_c,0,58,80
1,54144,Note_off_c,0,58,0
1,54167,Note_on_c,0,62,40
1,54261,Note_off_c,0,62,0
1,54289,Note_on_c,0,72,80
1,54384,Note_off_c,0,72,0
1,54406,Note_on_c,0,76,40
1,54501,Note_off_c,0,76,0
1,54529,Note_on_c,0,55,80
1,54623,Note_off_c,0,55,0
1,54646,Note_on_c,0,58,40
1,54740,Note_off_c,0,58,0
1,54768,Note_on_c,0,62,80
1,54863,Note_off_c,0,62,0
1,54885,Note_on_c,0,65,40
1,54980,Note_off_c,0,65,0
1,55008,Note_on_c,0,69,80
1,55108,Note_off_c,0,69,0
1,55125,Note_on_c,0,89,40
1,55220,Note_off_c,0,89,0
1,55248,Note_on_c,0,93,80
1,55348,Note_off_c,0,93,0
1,55365,Note_on_c,0,96,40
1,55459,Note_off_c,0,96,0
1,55487,Note_on_c,0,100,80
1,55588,Note_off_c,0,100,0
1,55604,Note_on_c,0,103,40
1,55699,Note_off_c,0,103,0
1,55732,Note_on_c,0,83,80
1,55827,Note_off_c,0,83,0
1,55844,Note_on_c,0,48,40
1,55939,Note_off_c,0,48,0
1,55972,Note_on_c,0,51,80
1,56067,Note_off_c,0,51,0
1,56084,Note_on_c,0,55,40
1,56178,Note_off_c,0,55,0
1,56212,Note_on_c,0,48,80
1,56306,Note_off_c,0,48,0
1,56323,Note_on_c,0,51,40
1,56418,Note_off_c,0,51,0
1,56451,Note_on_c,0,55,80
1,56546,Note_off_c,0,55,0
1,56563,Note_on_c,0,65,40
1,56657,Note_off_c,0,65,0
1,56691,Note_on_c,0,69,80
1,56786,Note_off_c,0,69,0
1,56802,Note_on_c,0,55,40
1,56897,Note_off_c,0,55,0
1,56931,Note_on_c,0,58,80
1,57025,Note_off_c,0,58,0
1,57042,Note_on_c,0,62,40
1,57142,Note_off_c,0,62,0
1,57170,Note_on_c,0,82,80
1,57265,Note_off_c,0,82,0
1,57282,Note_on_c,0,86,40
1,57382,Note_off_c,0,86,0
1,57410,Note_on_c,0,89,80
1,57505,Note_off_c,0,89,0
1,57521,Note_on_c,0,93,40
1,57622,Note_off_c,0,93,0
1,57649,Note_on_c,0,72,80
1,57744,Note_off_c,0,72,0
1,57766,Note_on_c,0,75,40
1,57861,Note_off_c,0,75,0
1,57890,Note_on_c,0,79,80
1,57984,Note_off_c,0,79,0
1,58006,Note_on_c,0,58,40
1,58101,Note_off_c,0,58,0
1,58129,Note_on_c,0,62,80
1,58223,Note_off_c,0,62,0
1,58246,Note_on_c,0,48,40
1,58340,Note_off_c,0,48,0
1,58368,Note_on_c,0,58,80
1,58463,Note_off_c,0,58,0
1,58485,Note_on_c,0,62,40
1,58580,Note_off_c,0,62,0
1,58608,Note_on_c,0,55,80
1,58708,Note_off_c,0,55,0
1,58725,Note_on_c,0,58,40
1,58820,Note_off_c,0,58,0
1,58848,Note_on_c,0,62,80
1,58948,Note_off_c,0,62,0
1,58965,Note_on_c,0,82,40
1,59059,Note_off_c,0,82,0
1,59087,Note_on_c,0,86,80
1,59187,Note_off_c,0,86,0
1,59204,Note_on_c,0,72,40
1,59299,Note_off_c,0,72,0
1,59332,Note_on_c,0,75,80
1,59427,Note_off_c,0,75,0
1,59444,Note_on_c,0,79,40
1,59538,Note_off_c,0,79,0
1,59572,Note_on_c,0,82,80
1,59667,Note_off_c,0,82,0
1,59683,Note_on_c,0,86,40
1,59778,Note_off_c,0,86,0
1,59812,Note_on_c,0,65,80
1,59906,Note_off_c,0,65,0
1,59923,Note_on_c,0,69,40
1,60018,Note_off_c,0,69,0
1,60051,Note_on_c,0,48,80
1,60146,Note_off_c,0,48,0
1,60163,Note_on_c,0,51,40
1,60257,Note_off_c,0,51,0
1,60291,Note_on_c,0,55,80
1,60386,Note_off_c,0,55,0
1,60402,Note_on_c,0,65,40
1,60497,Note_off_c,0,65,0
1,60530,Note_on_c,0,69,80
1,60625,Note_off_c,0,69,0
1,60642,Note_on_c,0,72,40
1,60742,Note_off_c,0,72,0
1,60770,Note_on_c,0,76,80
1,60865,Note_off_c,0,76,0
1,60882,Note_on_c,0,79,40
1,60982,Note_off_c,0,79,0
1,61010,Note_on_c,0,83,80
1,61105,Note_off_c,0,83,0
1,61121,Note_on_c,0,86,40
1,61221,Note_off_c,0,86,0
1,61249,Note_on_c,0,107,80
1,61344,Note_off_c,0,107,0
1,61366,Note_on_c,0,72,40
1,61461,Note_off_c,0,72,0
1,61489,Note_on_c,0,75,80
1,61584,Note_off_c,0,75,0
1,61606,Note_on_c,0,79,40
1,61701,Note_off_c,0,79,0
1,61729,Note_on_c,0,72,80
1,61823,Note_off_c,0,72,0
1,61846,Note_on_c,0,51,40
1,61940,Note_off_c,0,51,0
1,61968,Note_on_c,0,55,80
1,62063,Note_off_c,0,55,0
1,62085,Note_on_c,0,58,40
1,62180,Note_off_c,0,58,0
1,62208,Note_on_c,0,62,80
1,62308,Note_off_c,0,62,0
1,62325,Note_on_c,0,48,40
1,62420,Note_off_c,0,48,0
1,62447,Note_on_c,0,51,80
1,62548,Note_off_c,0,51,0
1,62565,Note_on_c,0,55,40
1,62659,Note_off_c,0,55,0
1,62687,Note_on_c,0,65,80
1,62787,Note_off_c,0,65,0
1,62804,Note_on_c,0,69,40
1,62899,Note_off_c,0,69,0
1,62932,Note_on_c,0,72,80
1,63027,Note_off_c,0,72,0
1,63044,Note_on_c,0,93,40
1,63138,Note_off_c,0,93,0
1,63172,Note_on_c,0,72,80
1,63267,Note_off_c,0,72,0
1,63283,Note_on_c,0,75,40
1,63378,Note_off_c,0,75,0
1,63412,Note_on_c,0,79,80
1,63506,Note_off_c,0,79,0
1,63523,Note_on_c,0,82,40
1,63618,Note_off_c,0,82,0
1,63651,Note_on_c,0,62,80
1,63746,Note_off_c,0,62,0
1,63763,Note_on_c,0,48,40
1,63857,Note_off_c,0,48,0
1,63891,Note_on_c,0,51,80
1,63986,Note_off_c,0,51,0
1,64002,Note_on_c,0,55,40
1,64097,Note_off_c,0,55,0
1,64130,Note_on_c,0,48,80
1,64225,Note_off_c,0,48,0
1,64242,Note_on_c,0,51,40
1,64342,Note_off_c,0,51,0
1,64370,Note_on_c,0,55,80
1,64465,Note_off_c,0,55,0
1,64481,Note_on_c,0,65,40
1,64582,Note_off_c,0,65,0
1,64610,Note_on_c,0,69,80
1,64704,Note_off_c,0,69,0
1,64721,Note_on_c,0,55,40
1,64821,Note_off_c,0,55,0
1,64849,Note_on_c,0,58,80
1,64944,Note_off_c,0,58,0
1,64966,Note_on_c,0,62,40
1,65061,Note_off_c,0,62,0
1,65089,Note_on_c,0,82,80
1,65184,Note_off_c,0,82,0
1,65206,Note_on_c,0,86,40
1,65301,Note_off_c,0,86,0
1,65329,Note_on_c,0,89,80
1,65423,Note_off_c,0,89,0
1,65446,Note_on_c,0,93,40
1,65540,Note_off_c,0,93,0
1,65568,Note_on_c,0,72,80
1,65663,Note_off_c,0,72,0
1,65685,Note_on_c,0,75,40
1,65780,Note_off_c,0,75,0
1,65808,Note_on_c,0,79,80
1,65908,Note_off_c,0,79,0
1,65925,Note_on_c,0,58,40
1,66019,Note_off_c,0,58,0
1,66047,Note_on_c,0,62,80
1,66148,Note_off_c,0,62,0
1,66165,Note_on_c,0,65,40
1,66259,Note_off_c,0,65,0
1,66287,Note_on_c,0,69,80
1,66387,Note_off_c,0,69,0
1,66404,Note_on_c,0,72,40
1,66499,Note_off_c,0,72,0
1,66532,Note_on_c,0,83,80
1,66627,Note_off_c,0,83,0
1,66644,Note_on_c,0,86,40
1,66738,Note_off_c,0,86,0
1,66772,Note_on_c,0,90,80
1,66866,Note_off_c,0,90,0
1,66883,Note_on_c,0,55,40
1,66978,Note_off_c,0,55,0
1,67012,Note_on_c,0,58,80
1,67106,Note_off_c,0,58,0
1,67123,Note_on_c,0,62,40
1,67218,Note_off_c,0,62,0
1,67251,Note_on_c,0,55,80
1,67346,Note_off_c,0,55,0
1,67362,Note_on_c,0,75,40
1,67457,Note_off_c,0,75,0
1,67491,Note_on_c,0,79,80
1,67585,Note_off_c,0,79,0
1,67602,Note_on_c,0,82,40
1,67697,Note_off_c,0,82,0
1,67730,Note_on_c,0,62,80
1,67825,Note_off_c,0,62,0
1,67842,Note_on_c,0,48,40
1,67942,Note_off_c,0,48,0
1,67970,Note_on_c,0,51,80
1,68065,Note_off_c,0,51,0
1,68081,Note_on_c,0,55,40
1,68182,Note_off_c,0,55,0
1,68210,Note_on_c,0,58,80
1,68304,Note_off_c,0,58,0
1,68321,Note_on_c,0,69,40
1,68421,Note_off_c,0,69,0
1,68449,Note_on_c,0,72,80
1,68544,Note_off_c,0,72,0
1,68566,Note_on_c,0,76,40
1,68661,Note_off_c,0,76,0
1,68689,Note_on_c,0,55,80
1,68784,Note_off_c,0,55,0
1,68806,Note_on_c,0,58,40
1,68901,Note_off_c,0,58,0
1,68928,Note_on_c,0,62,80
1,69023,Note_off_c,0,62,0
1,69046,Note_on_c,0,65,40
1,69140,Note_off_c,0,65,0
1,69168,Note_on_c,0,86,80
1,69263,Note_off_c,0,86,0
1,69285,Note_on_c,0,72,40
1,69380,Note_off_c,0,72,0
1,69408,Note_on_c,0,75,80
1,69508,Note_off_c,0,75,0
1,69525,Note_on_c,0,79,40
1,69619,Note_off_c,0,79,0
1,69647,Note_on_c,0,72,80
1,69748,Note_off_c,0,72,0
1,69764,Note_on_c,0,51,40
1,69859,Note_off_c,0,51,0
1,69887,Note_on_c,0,55,80
1,69987,Note_off_c,0,55,0
1,70004,Note_on_c,0,58,40
1,70099,Note_off_c,0,58,0
1,70132,Note_on_c,0,62,80
1,70227,Note_off_c,0,62,0
1,70244,Note_on_c,0,48,40
1,70338,Note_off_c,0,48,0
1,70372,Note_on_c,0,51,80
1,70466,Note_off_c,0,51,0
1,70483,Note_on_c,0,55,40
1,70578,Note_off_c,0,55,0
1,70611,Note_on_c,0,65,80
1,70706,Note_off_c,0,65,0
1,70723,Note_on_c,0,69,40
1,70817,Note_off_c,0,69,0
1,70862,Note_on_c,0,48,40
1,70957,Note_off_c,0,48,0
1,70990,Note_on_c,0,51,84
1,71085,Note_off_c,0,51,0
1,71102,Note_on_c,0,55,40
1,71197,Note_off_c,0,55,0
1,71230,Note_on_c,0,48,117
1,71325,Note_off_c,0,48,0
1,71341,Note_on_c,0,51,40
1,71436,Note_off_c,0,51,0
1,71470,Note_on_c,0,62,113
1,71564,Note_off_c,0,62,0
1,71581,Note_on_c,0,65,40
1,71676,Note_off_c,0,65,0
1,71709,Note_on_c,0,69,89
1,71804,Note_off_c,0,69,0
1,71821,Note_on_c,0,55,40
1,71915,Note_off_c,0,55,0
1,71949,Note_on_c,0,58,90
1,72044,Note_off_c,0,58,0
1,72060,Note_on_c,0,62,40
1,72161,Note_off_c,0,62,0
1,72188,Note_on_c,0,65,97
1,72283,Note_off_c,0,65,0
1,72300,Note_on_c,0,86,40
1,72400,Note_off_c,0,86,0
1,72428,Note_on_c,0,89,106
1,72523,Note_off_c,0,89,0
1,72540,Note_on_c,0,93,40
1,72640,Note_off_c,0,93,0
1,72668,Note_on_c,0,72,92
1,72762,Note_off_c,0,72,0
1,72785,Note_on_c,0,75,40
1,72879,Note_off_c,0,75,0
1,72907,Note_on_c,0,55,105
1,73002,Note_off_c,0,55,0
1,73024,Note_on_c,0,58,40
1,73119,Note_off_c,0,58,0
1,73147,Note_on_c,0,62,83
1,73242,Note_off_c,0,62,0
1,73264,Note_on_c,0,48,40
1,73359,Note_off_c,0,48,0
1,73387,Note_on_c,0,51,105
1,73481,Note_off_c,0,51,0
1,73504,Note_on_c,0,55,40
1,73598,Note_off_c,0,55,0
1,73626,Note_on_c,0,48,106
1,73726,Note_off_c,0,48,0
1,73743,Note_on_c,0,58,40
1,73838,Note_off_c,0,58,0
1,73866,Note_on_c,0,62,111
1,73966,Note_off_c,0,62,0
1,73983,Note_on_c,0,65,40
1,74078,Note_off_c,0,65,0
1,74105,Note_on_c,0,69,112
1,74206,Note_off_c,0,69,0
1,74222,Note_on_c,0,55,40
1,74317,Note_off_c,0,55,0
1,74351,Note_on_c,0,75,101
1,74445,Note_off_c,0,75,0
1,74462,Note_on_c,0,79,40
1,74557,Note_off_c,0,79,0
1,74590,Note_on_c,0,82,95
1,74685,Note_off_c,0,82,0
1,74702,Note_on_c,0,86,40
1,74796,Note_off_c,0,86,0
1,74830,Note_on_c,0,89,88
1,74925,Note_off_c,0,89,0
1,74941,Note_on_c,0,93,40
1,75036,Note_off_c,0,93,0
1,75069,Note_on_c,0,72,80
1,75164,Note_off_c,0,72,0
1,75181,Note_on_c,0,51,40
1,75276,Note_off_c,0,51,0
1,75309,Note_on_c,0,55,90
1,75404,Note_off_c,0,55,0
1,75421,Note_on_c,0,58,40
1,75515,Note_off_c,0,58,0
1,75549,Note_on_c,0,69,96
1,75643,Note_off_c,0,69,0
1,75660,Note_on_c,0,72,40
1,75761,Note_off_c,0,72,0
1,75788,Note_on_c,0,76,102
1,75883,Note_off_c,0,76,0
1,75900,Note_on_c,0,79,40
1,76000,Note_off_c,0,79,0
1,76028,Note_on_c,0,83,84
1,76123,Note_off_c,0,83,0
1,76139,Note_on_c,0,103,40
1,76240,Note_off_c,0,103,0
1,76268,Note_on_c,0,107,108
1,76362,Note_off_c,0,107,0
1,76385,Note_on_c,0,72,40
1,76479,Note_off_c,0,72,0
1,76507,Note_on_c,0,75,105
1,76602,Note_off_c,0,75,0
1,76624,Note_on_c,0,79,40
1,76719,Note_off_c,0,79,0
1,76747,Note_on_c,0,72,118
1,76842,Note_off_c,0,72,0
1,76864,Note_on_c,0,75,40
1,76959,Note_off_c,0,75,0
1,76986,Note_on_c,0,55,91
1,77081,Note_off_c,0,55,0
1,77104,Note_on_c,0,58,40
1,77198,Note_off_c,0,58,0
1,77226,Note_on_c,0,62,114
1,77326,Note_off_c,0,62,0
1,77343,Note_on_c,0,48,40
1,77438,Note_off_c,0,48,0
1,77466,Note_on_c,0,51,110
1,77566,Note_off_c,0,51,0
1,77583,Note_on_c,0,62,40
1,77677,Note_off_c,0,62,0
1,77705,Note_on_c,0,65,105
1,77806,Note_off_c,0,65,0
1,77822,Note_on_c,0,69,40
1,77917,Note_off_c,0,69,0
1,77951,Note_on_c,0,72,95
1,78045,Note_off_c,0,72,0
1,78062,Note_on_c,0,76,40
1,78157,Note_off_c,0,76,0
1,78190,Note_on_c,0,55,112
1,78285,Note_off_c,0,55,0
1,78302,Note_on_c,0,58,40
1,78396,Note_off_c,0,58,0
1,78430,Note_on_c,0,79,110
1,78525,Note_off_c,0,79,0
1,78541,Note_on_c,0,82,40
1,78636,Note_off_c,0,82,0
1,78669,Note_on_c,0,86,93
1,78764,Note_off_c,0,86,0
1,78781,Note_on_c,0,72,40
1,78876,Note_off_c,0,72,0
1,78909,Note_on_c,0,75,106
1,79004,Note_off_c,0,75,0
1,79020,Note_on_c,0,55,40
1,79115,Note_off_c,0,55,0
1,79149,Note_on_c,0,48,119
1,79243,Note_off_c,0,48,0
1,79260,Note_on_c,0,51,40
1,79360,Note_off_c,0,51,0
1,79388,Note_on_c,0,55,103
1,79483,Note_off_c,0,55,0
1,79500,Note_on_c,0,58,40
1,79600,Note_off_c,0,58,0
1,79628,Note_on_c,0,62,83
1,79723,Note_off_c,0,62,0
1,79739,Note_on_c,0,48,40
1,79840,Note_off_c,0,48,0
1,79867,Note_on_c,0,58,106
1,79962,Note_off_c,0,58,0
1,79985,Note_on_c,0,62,40
1,80079,Note_off_c,0,62,0
1,80107,Note_on_c,0,65,116
1,80202,Note_off_c,0,65,0
1,80224,Note_on_c,0,86,40
1,80319,Note_off_c,0,86,0
1,80347,Note_on_c,0,89,108
1,80441,Note_off_c,0,89,0
1,80464,Note_on_c,0,93,40
1,80559,Note_off_c,0,93,0
1,80586,Note_on_c,0,72,110
1,80681,Note_off_c,0,72,0
1,80703,Note_on_c,0,75,40
1,80798,Note_off_c,0,75,0
1,80826,Note_on_c,0,55,102
1,80926,Note_off_c,0,55,0
1,80943,Note_on_c,0,58,40
1,81038,Note_off_c,0,58,0
1,81066,Note_on_c,0,62,95
1,81166,Note_off_c,0,62,0
1,81183,Note_on_c,0,65,40
1,81277,Note_off_c,0,65,0
1,81305,Note_on_c,0,69,101
1,81406,Note_off_c,0,69,0
1,81422,Note_on_c,0,72,40
1,81517,Note_off_c,0,72,0
1,81550,Note_on_c,0,76,94
1,81645,Note_off_c,0,76,0
1,81662,Note_on_c,0,86,40
1,81757,Note_off_c,0,86,0
1,81790,Note_on_c,0,90,117
1,81885,Note_off_c,0,90,0
1,81902,Note_on_c,0,55,40
1,81996,Note_off_c,0,55,0
1,82030,Note_on_c,0,58,117
1,82124,Note_off_c,0,58,0
1,82141,Note_on_c,0,62,40
1,82236,Note_off_c,0,62,0
1,82269,Note_on_c,0,72,102
1,82364,Note_off_c,0,72,0
1,82381,Note_on_c,0,75,40
1,82475,Note_off_c,0,75,0
1,82509,Note_on_c,0,79,118
1,82604,Note_off_c,0,79,0
1,82620,Note_on_c,0,82,40
1,82715,Note_off_c,0,82,0
1,82749,Note_on_c,0,86,88
1,82843,Note_off_c,0,86,0
1,82860,Note_on_c,0,72,40
1,82960,Note_off_c,0,72,0
1,82988,Note_on_c,0,75,119
1,83083,Note_off_c,0,75,0
1,83100,Note_on_c,0,55,40
1,83200,Note_off_c,0,55,0
1,83228,Note_on_c,0,58,100
1,83322,Note_off_c,0,58,0
1,83339,Note_on_c,0,62,40
1,83439,Note_off_c,0,62,0
1,83467,Note_on_c,0,65,92
1,83562,Note_off_c,0,65,0
1,83585,Note_on_c,0,69,40
1,83679,Note_off_c,0,69,0
1,83707,Note_on_c,0,55,108
1,83802,Note_off_c,0,55,0
1,83824,Note_on_c,0,58,40
1,83919,Note_off_c,0,58,0
1,83947,Note_on_c,0,62,86
1,84041,Note_off_c,0,62,0
1,84064,Note_on_c,0,65,40
1,84158,Note_off_c,0,65,0
1,84186,Note_on_c,0,69,91
1,84281,Note_off_c,0,69,0
1,84303,Note_on_c,0,55,40
1,84398,Note_off_c,0,55,0
1,84426,Note_on_c,0,58,119
1,84526,Note_off_c,0,58,0
1,84543,Note_on_c,0,79,40
1,84638,Note_off_c,0,79,0
1,84666,Note_on_c,0,72,80
1,84766,Note_off_c,0,72,0
1,84783,Note_on_c,0,75,40
1,84877,Note_off_c,0,75,0
1,84905,Note_on_c,0,55,81
1,85005,Note_off_c,0,55,0
1,85022,Note_on_c,0,58,40
1,85117,Note_off_c,0,58,0
1,85150,Note_on_c,0,62,105
1,85245,Note_off_c,0,62,0
1,85262,Note_on_c,0,48,40
1,85356,Note_off_c,0,48,0
1,85390,Note_on_c,0,51,95
1,85485,Note_off_c,0,51,0
1,85502,Note_on_c,0,62,40
1,85596,Note_off_c,0,62,0
1,85630,Note_on_c,0,65,114
1,85724,Note_off_c,0,65,0
1,85741,Note_on_c,0,69,40
1,85836,Note_off_c,0,69,0
1,85869,Note_on_c,0,72,95
1,85964,Note_off_c,0,72,0
1,85981,Note_on_c,0,76,40
1,86075,Note_off_c,0,76,0
1,86109,Note_on_c,0,55,109
1,86204,Note_off_c,0,55,0
1,86220,Note_on_c,0,58,40
1,86315,Note_off_c,0,58,0
1,86349,Note_on_c,0,79,100
1,86443,Note_off_c,0,79,0
1,86460,Note_on_c,0,82,40
1,86560,Note_off_c,0,82,0
1,86588,Note_on_c,0,86,95
1,86683,Note_off_c,0,86,0
1,86700,Note_on_c,0,89,40
1,86800,Note_off_c,0,89,0
1,86828,Note_on_c,0,93,92
1,86923,Note_off_c,0,93,0
1,86939,Note_on_c,0,72,40
1,87040,Note_off_c,0,72,0
1,87067,Note_on_c,0,76,103
1,87162,Note_off_c,0,76,0
1,87184,Note_on_c,0,79,40
1,87279,Note_off_c,0,79,0
1,87307,Note_on_c,0,83,82
1,87402,Note_off_c,0,83,0
1,87424,Note_on_c,0,48,40
1,87519,Note_off_c,0,48,0
1,87547,Note_on_c,0,51,89
1,87641,Note_off_c,0,51,0
1,87664,Note_on_c,0,55,40
1,87758,Note_off_c,0,55,0
1,87786,Note_on_c,0,55,92
1,87881,Note_off_c,0,55,0
1,87903,Note_on_c,0,58,40
1,87998,Note_off_c,0,58,0
1,88026,Note_on_c,0,62,112
1,88126,Note_off_c,0,62,0
1,88143,Note_on_c,0,65,40
1,88238,Note_off_c,0,65,0
1,88266,Note_on_c,0,69,111
1,88366,Note_off_c,0,69,0
1,88382,Note_on_c,0,72,40
1,88477,Note_off_c,0,72,0
1,88505,Note_on_c,0,75,108
1,88605,Note_off_c,0,75,0
1,88622,Note_on_c,0,79,40
1,88717,Note_off_c,0,79,0
1,88750,Note_on_c,0,82,94
1,88845,Note_off_c,0,82,0
1,88862,Note_on_c,0,86,40
1,88956,Note_off_c,0,86,0
1,88990,Note_on_c,0,89,85
1,89085,Note_off_c,0,89,0
1,89101,Note_on_c,0,93,40
1,89196,Note_off_c,0,93,0
1,89230,Note_on_c,0,48,105
1,89324,Note_off_c,0,48,0
1,89341,Note_on_c,0,51,40
1,89436,Note_off_c,0,51,0
1,89469,Note_on_c,0,55,91
1,89564,Note_off_c,0,55,0
1,89581,Note_on_c,0,65,40
1,89675,Note_off_c,0,65,0
1,89709,Note_on_c,0,69,108
1,89803,Note_off_c,0,69,0
1,89820,Note_on_c,0,55,40
1,89915,Note_off_c,0,55,0
1,89949,Note_on_c,0,58,103
1,90043,Note_off_c,0,58,0
1,90060,Note_on_c,0,62,40
1,90160,Note_off_c,0,62,0
1,90188,Note_on_c,0,72,99
1,90283,Note_off_c,0,72,0
1,90299,Note_on_c,0,75,40
1,90400,Note_off_c,0,75,0
1,90428,Note_on_c,0,79,108
1,90522,Note_off_c,0,79,0
1,90539,Note_on_c,0,82,40
1,90639,Note_off_c,0,82,0
1,90667,Note_on_c,0,86,84
1,90762,Note_off_c,0,86,0
1,90784,Note_on_c,0,72,40
1,90879,Note_off_c,0,72,0
1,90907,Note_on_c,0,75,112
1,91002,Note_off_c,0,75,0
1,91024,Note_on_c,0,55,40
1,91119,Note_off_c,0,55,0
1,91147,Note_on_c,0,58,96
1,91241,Note_off_c,0,58,0
1,91264,Note_on_c,0,62,40
1,91358,Note_off_c,0,62,0
1,91386,Note_on_c,0,65,90
1,91481,Note_off_c,0,65,0
1,91503,Note_on_c,0,69,40
1,91598,Note_off_c,0,69,0
1,91626,Note_on_c,0,55,83
1,91726,Note_off_c,0,55,0
1,91743,Note_on_c,0,58,40
1,91838,Note_off_c,0,58,0
1,91865,Note_on_c,0,62,95
1,91966,Note_off_c,0,62,0
1,91983,Note_on_c,0,65,40
1,92077,Note_off_c,0,65,0
1,92105,Note_on_c,0,69,91
1,92205,Note_off_c,0,69,0
1,92222,Note_on_c,0,72,40
1,92317,Note_off_c,0,72,0
1,92350,Note_on_c,0,76,84
1,92445,Note_off_c,0,76,0
1,92462,Note_on_c,0,96,40
1,92556,Note_off_c,0,96,0
1,92590,Note_on_c,0,100,81
1,92685,Note_off_c,0,100,0
1,92701,Note_on_c,0,103,40
1,92796,Note_off_c,0,103,0
1,92829,Note_on_c,0,107,106
1,92924,Note_off_c,0,107,0
1,92941,Note_on_c,0,72,40
1,93036,Note_off_c,0,72,0
1,93069,Note_on_c,0,51,118
1,93164,Note_off_c,0,51,0
1,93181,Note_on_c,0,55,40
1,93275,Note_off_c,0,55,0
1,93309,Note_on_c,0,48,96
1,93403,Note_off_c,0,48,0
1,93420,Note_on_c,0,51,40
1,93515,Note_off_c,0,51,0
1,93548,Note_on_c,0,55,95
1,93643,Note_off_c,0,55,0
1,93660,Note_on_c,0,58,40
1,93760,Note_off_c,0,58,0
1,93788,Note_on_c,0,62,99
1,93883,Note_off_c,0,62,0
1,93899,Note_on_c,0,55,40
1,94000,Note_off_c,0,55,0
1,94028,Note_on_c,0,58,112
1,94122,Note_off_c,0,58,0
1,94139,Note_on_c,0,62,40
1,94239,Note_off_c,0,62,0
1,94267,Note_on_c,0,82,108
1,94362,Note_off_c,0,82,0
1,94384,Note_on_c,0,86,40
1,94479,Note_off_c,0,86,0
1,94507,Note_on_c,0,89,82
1,94602,Note_off_c,0,89,0
1,94624,Note_on_c,0,93,40
1,94719,Note_off_c,0,93,0
1,94746,Note_on_c,0,72,114
1,94841,Note_off_c,0,72,0
1,94863,Note_on_c,0,51,40
1,94958,Note_off_c,0,51,0
1,94986,Note_on_c,0,55,118
1,95081,Note_off_c,0,55,0
1,95103,Note_on_c,0,58,40
1,95198,Note_off_c,0,58,0
1,95226,Note_on_c,0,62,95
1,95326,Note_off_c,0,62,0
1,95343,Note_on_c,0,48,40
1,95437,Note_off_c,0,48,0
1,95465,Note_on_c,0,51,107
1,95566,Note_off_c,0,51,0
1,95582,Note_on_c,0,55,40
1,95677,Note_off_c,0,55,0
1,95705,Note_on_c,0,55,109
1,95805,Note_off_c,0,55,0
1,95822,Note_on_c,0,58,40
1,95917,Note_off_c,0,58,0
1,95950,Note_on_c,0,62,83
1,96045,Note_off_c,0,62,0
1,96062,Note_on_c,0,65,40
1,96156,Note_off_c,0,65,0
1,96190,Note_on_c,0,69,81
1,96284,Note_off_c,0,69,0
1,96301,Note_on_c,0,72,40
1,96396,Note_off_c,0,72,0
1,96429,Note_on_c,0,75,114
1,96524,Note_off_c,0,75,0
1,96541,Note_on_c,0,79,40
1,96636,Note_off_c,0,79,0
1,96669,Note_on_c,0,82,109
1,96764,Note_off_c,0,82,0
1,96781,Note_on_c,0,86,40
1,96875,Note_off_c,0,86,0
1,96909,Note_on_c,0,89,92
1,97003,Note_off_c,0,89,0
1,97020,Note_on_c,0,93,40
1,97115,Note_off_c,0,93,0
1,97148,Note_on_c,0,48,103
1,97243,Note_off_c,0,48,0
1,97260,Note_on_c,0,51,40
1,97360,Note_off_c,0,51,0
1,97388,Note_on_c,0,55,92
1,97483,Note_off_c,0,55,0
1,97499,Note_on_c,0,58,40
1,97600,Note_off_c,0,58,0
1,97628,Note_on_c,0,62,112
1,97722,Note_off_c,0,62,0
1,97739,Note_on_c,0,72,40
1,97839,Note_off_c,0,72,0
1,97867,Note_on_c,0,76,91
1,97962,Note_off_c,0,76,0
1,97984,Note_on_c,0,79,40
1,98079,Note_off_c,0,79,0
1,98107,Note_on_c,0,83,97
1,98201,Note_off_c,0,83,0
1,98224,Note_on_c,0,86,40
1,98318,Note_off_c,0,86,0
1,98346,Note_on_c,0,90,104
1,98441,Note_off_c,0,90,0
1,98463,Note_on_c,0,55,40
1,98558,Note_off_c,0,55,0
1,98586,Note_on_c,0,75,107
1,98681,Note_off_c,0,75,0
1,98703,Note_on_c,0,79,40
1,98798,Note_off_c,0,79,0
1,98826,Note_on_c,0,72,107
1,98926,Note_off_c,0,72,0
1,98943,Note_on_c,0,51,40
1,99037,Note_off_c,0,51,0
1,99065,Note_on_c,0,55,107
1,99166,Note_off_c,0,55,0
1,99182,Note_on_c,0,58,40
1,99277,Note_off_c,0,58,0
1,99305,Note_on_c,0,62,83
1,99405,Note_off_c,0,62,0
1,99422,Note_on_c,0,48,40
1,99517,Note_off_c,0,48,0
1,99550,Note_on_c,0,58,118
1,99645,Note_off_c,0,58,0
1,99661,Note_on_c,0,62,40
1,99756,Note_off_c,0,62,0
1,99790,Note_on_c,0,65,112
1,99884,Note_off_c,0,65,0
1,99901,Note_on_c,0,69,40
1,99996,Note_off_c,0,69,0
1,100029,Note_on_c,0,72,84
1,100124,Note_off_c,0,72,0
1,100141,Note_on_c,0,76,40
1,100236,Note_off_c,0,76,0
1,100269,Note_on_c,0,55,105
1,100364,Note_off_c,0,55,0
1,100380,Note_on_c,0,75,40
1,100475,Note_off_c,0,75,0
1,100509,Note_on_c,0,79,111
1,100603,Note_off_c,0,79,0
1,100620,Note_on_c,0,82,40
1,100715,Note_off_c,0,82,0
1,100748,Note_on_c,0,86,101
1,100843,Note_off_c,0,86,0
1,100860,Note_on_c,0,72,40
1,100960,Note_off_c,0,72,0
1,100988,Note_on_c,0,51,81
1,101082,Note_off_c,0,51,0
1,101099,Note_on_c,0,55,40
1,101200,Note_off_c,0,55,0
1,101227,Note_on_c,0,48,90
1,101322,Note_off_c,0,48,0
1,101339,Note_on_c,0,51,40
1,101439,Note_off_c,0,51,0
1,101467,Note_on_c,0,55,94
1,101562,Note_off_c,0,55,0
1,101579,Note_on_c,0,58,40
1,101679,Note_off_c,0,58,0
1,101707,Note_on_c,0,62,110
1,101801,Note_off_c,0,62,0
1,101824,Note_on_c,0,55,40
1,101918,Note_off_c,0,55,0
1,101946,Note_on_c,0,58,93
1,102041,Note_off_c,0,58,0
1,102063,Note_on_c,0,62,40
1,102158,Note_off_c,0,62,0
1,102186,Note_on_c,0,65,88
1,102281,Note_off_c,0,65,0
1,102303,Note_on_c,0,69,40
1,102398,Note_off_c,0,69,0
1,102426,Note_on_c,0,89,108
1,102526,Note_off_c,0,89,0
1,102543,Note_on_c,0,93,40
1,102637,Note_off_c,0,93,0
1,102665,Note_on_c,0,72,109
1,102765,Note_off_c,0,72,0
1,102782,Note_on_c,0,75,40
1,102877,Note_off_c,0,75,0
1,102905,Note_on_c,0,79,115
1,103005,Note_off_c,0,79,0
1,103022,Note_on_c,0,82,40
1,103117,Note_off_c,0,82,0
1,103150,Note_on_c,0,86,97
1,103245,Note_off_c,0,86,0
1,103262,Note_on_c,0,65,40
1,103356,Note_off_c,0,65,0
1,103390,Note_on_c,0,69,112
1,103484,Note_off_c,0,69,0
1,103501,Note_on_c,0,72,40
1,103596,Note_off_c,0,72,0
1,103629,Note_on_c,0,83,116
1,103724,Note_off_c,0,83,0
1,103741,Note_on_c,0,86,40
1,103835,Note_off_c,0,86,0
1,103869,Note_on_c,0,90,92
1,103964,Note_off_c,0,90,0
1,103980,Note_on_c,0,55,40
1,104075,Note_off_c,0,55,0
1,104109,Note_on_c,0,58,102
1,104203,Note_off_c,0,58,0
1,104220,Note_on_c,0,79,40
1,104315,Note_off_c,0,79,0
1,104348,Note_on_c,0,72,89
1,104443,Note_off_c,0,72,0
1,104460,Note_on_c,0,75,40
1,104560,Note_off_c,0,75,0
1,104588,Note_on_c,0,79,116
1,104682,Note_off_c,0,79,0
1,104699,Note_on_c,0,82,40
1,104800,Note_off_c,0,82,0
1,104827,Note_on_c,0,86,115
1,104922,Note_off_c,0,86,0
1,104939,Note_on_c,0,72,40
1,105039,Note_off_c,0,72,0
1,105067,Note_on_c,0,51,81
1,105162,Note_off_c,0,51,0
1,105178,Note_on_c,0,55,40
1,105279,Note_off_c,0,55,0
1,105307,Note_on_c,0,58,87
1,105401,Note_off_c,0,58,0
1,105424,Note_on_c,0,62,40
1,105518,Note_off_c,0,62,0
1,105546,Note_on_c,0,65,92
1,105641,Note_off_c,0,65,0
1,105663,Note_on_c,0,76,40
1,105758,Note_off_c,0,76,0
1,105786,Note_on_c,0,55,105
1,105881,Note_off_c,0,55,0
1,105903,Note_on_c,0,58,40
1,105998,Note_off_c,0,58,0
1,106025,Note_on_c,0,62,115
1,106126,Note_off_c,0,62,0
1,106143,Note_on_c,0,65,40
1,106237,Note_off_c,0,65,0
1,106265,Note_on_c,0,69,119
1,106365,Note_off_c,0,69,0
1,106382,Note_on_c,0,55,40
1,106477,Note_off_c,0,55,0
1,106505,Note_on_c,0,75,93
1,106605,Note_off_c,0,75,0
1,106622,Note_on_c,0,79,40
1,106716,Note_off_c,0,79,0
1,106750,Note_on_c,0,72,119
1,106845,Note_off_c,0,72,0
1,106861,Note_on_c,0,75,40
1,106956,Note_off_c,0,75,0
1,106990,Note_on_c,0,79,118
1,107084,Note_off_c,0,79,0
1,107101,Note_on_c,0,58,40
1,107196,Note_off_c,0,58,0
1,107229,Note_on_c,0,62,86
1,107324,Note_off_c,0,62,0
1,107341,Note_on_c,0,48,40
1,107435,Note_off_c,0,48,0
1,107469,Note_on_c,0,51,84
1,107564,Note_off_c,0,51,0
1,107580,Note_on_c,0,55,40
1,107675,Note_off_c,0,55,0
1,107708,Note_on_c,0,58,103
1,107803,Note_off_c,0,58,0
1,107820,Note_on_c,0,62,40
1,107915,Note_off_c,0,62,0
1,107948,Note_on_c,0,72,117
1,108043,Note_off_c,0,72,0
1,108059,Note_on_c,0,76,40
1,108160,Note_off_c,0,76,0
1,108188,Note_on_c,0,55,105
1,108283,Note_off_c,0,55,0
1,108300,Note_on_c,0,75,40
1,108400,Note_off_c,0,75,0
1,108428,Note_on_c,0,79,105
1,108523,Note_off_c,0,79,0
1,108540,Note_on_c,0,82,40
1,108640,Note_off_c,0,82,0
1,108668,Note_on_c,0,86,88
1,108763,Note_off_c,0,86,0
1,108779,Note_on_c,0,89,40
1,108880,Note_off_c,0,89,0
1,108908,Note_on_c,0,69,119
1,109002,Note_off_c,0,69,0
1,109025,Note_on_c,0,72,40
1,109119,Note_off_c,0,72,0
1,109147,Note_on_c,0,76,95
1,109242,Note_off_c,0,76,0
1,109264,Note_on_c,0,79,40
1,109359,Note_off_c,0,79,0
1,109387,Note_on_c,0,83,101
1,109481,Note_off_c,0,83,0
1,109504,Note_on_c,0,48,40
1,109598,Note_off_c,0,48,0
1,109626,Note_on_c,0,51,88
1,109727,Note_off_c,0,51,0
1,109744,Note_on_c,0,62,40
1,109838,Note_off_c,0,62,0
1,109866,Note_on_c,0,55,84
1,109966,Note_off_c,0,55,0
1,109983,Note_on_c,0,58,40
1,110078,Note_off_c,0,58,0
1,110106,Note_on_c,0,62,90
1,110206,Note_off_c,0,62,0
1,110223,Note_on_c,0,65,40
1,110317,Note_off_c,0,65,0
1,110345,Note_on_c,0,86,84
1,110446,Note_off_c,0,86,0
1,110462,Note_on_c,0,72,40
1,110557,Note_off_c,0,72,0
1,110591,Note_on_c,0,75,102
1,110685,Note_off_c,0,75,0
1,110702,Note_on_c,0,79,40
1,110797,Note_off_c,0,79,0
1,110830,Note_on_c,0,82,83
1,110925,Note_off_c,0,82,0
1,110942,Note_on_c,0,86,40
1,111036,Note_off_c,0,86,0
1,111070,Note_on_c,0,89,81
1,111164,Note_off_c,0,89,0
1,111181,Note_on_c,0,69,40
1,111276,Note_off_c,0,69,0
1,111309,Note_on_c,0,48,114
1,111404,Note_off_c,0,48,0
1,111421,Note_on_c,0,51,40
1,111516,Note_off_c,0,51,0
1,111549,Note_on_c,0,55,105
1,111644,Note_off_c,0,55,0
1,111660,Note_on_c,0,58,40
1,111761,Note_off_c,0,58,0
1,111789,Note_on_c,0,69,90
1,111883,Note_off_c,0,69,0
1,111900,Note_on_c,0,55,40
1,112000,Note_off_c,0,55,0
1,112028,Note_on_c,0,58,111
1,112123,Note_off_c,0,58,0
1,112140,Note_on_c,0,62,40
1,112240,Note_off_c,0,62,0
1,112268,Note_on_c,0,55,101
1,112363,Note_off_c,0,55,0
1,112379,Note_on_c,0,58,40
1,112480,Note_off_c,0,58,0
1,112508,Note_on_c,0,62,92
1,112602,Note_off_c,0,62,0
1,112625,Note_on_c,0,82,40
1,112719,Note_off_c,0,82,0
1,112747,Note_on_c,0,86,118
1,112842,Note_off_c,0,86,0
1,112864,Note_on_c,0,72,40
1,112959,Note_off_c,0,72,0
1,112987,Note_on_c,0,51,113
1,113081,Note_off_c,0,51,0
1,113104,Note_on_c,0,55,40
1,113198,Note_off_c,0,55,0
1,113226,Note_on_c,0,58,118
1,113327,Note_off_c,0,58,0
1,113343,Note_on_c,0,62,40
1,113438,Note_off_c,0,62,0
1,113466,Note_on_c,0,65,114
1,113566,Note_off_c,0,65,0
1,113583,Note_on_c,0,76,40
1,113678,Note_off_c,0,76,0
1,113706,Note_on_c,0,55,113
1,113806,Note_off_c,0,55,0
1,113823,Note_on_c,0,58,40
1,113917,Note_off_c,0,58,0
1,113945,Note_on_c,0,62,91
1,114046,Note_off_c,0,62,0
1,114062,Note_on_c,0,65,40
1,114157,Note_off_c,0,65,0
1,114190,Note_on_c,0,69,114
1,114285,Note_off_c,0,69,0
1,114302,Note_on_c,0,72,40
1,114397,Note_off_c,0,72,0
1,114430,Note_on_c,0,93,111
1,114525,Note_off_c,0,93,0
1,114541,Note_on_c,0,96,40
1,114636,Note_off_c,0,96,0
1,114670,Note_on_c,0,100,97
1,114764,Note_off_c,0,100,0
1,114781,Note_on_c,0,103,40
1,114876,Note_off_c,0,103,0
1,114909,Note_on_c,0,107,118
1,115004,Note_off_c,0,107,0
1,115021,Note_on_c,0,48,40
1,115115,Note_off_c,0,48,0
1,115149,Note_on_c,0,51,95
1,115244,Note_off_c,0,51,0
1,115260,Note_on_c,0,55,40
1,115361,Note_off_c,0,55,0
1,115389,Note_on_c,0,48,95
1,115483,Note_off_c,0,48,0
1,115500,Note_on_c,0,51,40
1,115600,Note_off_c,0,51,0
1,115628,Note_on_c,0,55,104
1,115723,Note_off_c,0,55,0
1,115740,Note_on_c,0,58,40
1,115840,Note_off_c,0,58,0
1,115868,Note_on_c,0,69,81
1,115963,Note_off_c,0,69,0
1,115979,Note_on_c,0,55,40
1,116079,Note_off_c,0,55,0
1,116107,Note_on_c,0,58,103
1,116202,Note_off_c,0,58,0
1,116224,Note_on_c,0,62,40
1,116319,Note_off_c,0,62,0
1,116347,Note_on_c,0,65,104
1,116442,Note_off_c,0,65,0
1,116464,Note_on_c,0,86,40
1,116559,Note_off_c,0,86,0
1,116587,Note_on_c,0,89,97
1,116681,Note_off_c,0,89,0
1,116704,Note_on_c,0,93,40
1,116798,Note_off_c,0,93,0
1,116826,Note_on_c,0,72,85
1,116927,Note_off_c,0,72,0
1,116943,Note_on_c,0,75,40
1,117038,Note_off_c,0,75,0
1,117066,Note_on_c,0,79,112
1,117166,Note_off_c,0,79,0
1,117183,Note_on_c,0,82,40
1,117278,Note_off_c,0,82,0
1,117306,Note_on_c,0,62,101
1,117406,Note_off_c,0,62,0
1,117423,Note_on_c,0,48,40
1,117517,Note_off_c,0,48,0
1,117545,Note_on_c,0,51,95
1,117645,Note_off_c,0,51,0
1,117662,Note_on_c,0,62,40
1,117757,Note_off_c,0,62,0
1,117790,Note_on_c,0,55,117
1,117885,Note_off_c,0,55,0
1,117902,Note_on_c,0,58,40
1,117996,Note_off_c,0,58,0
1,118030,Note_on_c,0,62,83
1,118125,Note_off_c,0,62,0
1,118141,Note_on_c,0,65,40
1,118236,Note_off_c,0,65,0
1,118270,Note_on_c,0,86,99
1,118364,Note_off_c,0,86,0
1,118381,Note_on_c,0,72,40
1,118476,Note_off_c,0,72,0
1,118509,Note_on_c,0,75,119
1,118604,Note_off_c,0,75,0
1,118621,Note_on_c,0,79,40
1,118715,Note_off_c,0,79,0
1,118749,Note_on_c,0,82,118
1,118844,Note_off_c,0,82,0
1,118860,Note_on_c,0,86,40
1,118960,Note_off_c,0,86,0
1,118988,Note_on_c,0,89,85
1,119083,Note_off_c,0,89,0
1,119100,Note_on_c,0,69,40
1,119200,Note_off_c,0,69,0
1,119228,Note_on_c,0,48,89
1,119323,Note_off_c,0,48,0
1,119339,Note_on_c,0,51,40
1,119440,Note_off_c,0,51,0
1,119468,Note_on_c,0,55,109
1,119562,Note_off_c,0,55,0
1,119579,Note_on_c,0,58,40
1,119679,Note_off_c,0,58,0
1,119707,Note_on_c,0,69,106
1,119802,Note_off_c,0,69,0
1,119824,Note_on_c,0,72,40
1,119919,Note_off_c,0,72,0
1,119947,Note_on_c,0,76,102
1,120042,Note_off_c,0,76,0
1,120064,Note_on_c,0,79,40
1,120159,Note_off_c,0,79,0
1,120187,Note_on_c,0,83,108
1,120281,Note_off_c,0,83,0
1,120304,Note_on_c,0,86,40
1,120398,Note_off_c,0,86,0
1,120426,Note_on_c,0,90,100
1,120526,Note_off_c,0,90,0
1,120543,Note_on_c,0,72,40
1,120638,Note_off_c,0,72,0
1,120666,Note_on_c,0,75,100
1,120766,Note_off_c,0,75,0
1,120783,Note_on_c,0,79,40
1,120877,Note_off_c,0,79,0
1,120905,Note_on_c,0,72,103
1,121006,Note_off_c,0,72,0
1,121023,Note_on_c,0,75,40
1,121117,Note_off_c,0,75,0
1,121145,Note_on_c,0,55,93
1,121245,Note_off_c,0,55,0
1,121262,Note_on_c,0,58,40
1,121357,Note_off_c,0,58,0
1,121390,Note_on_c,0,62,111
1,121485,Note_off_c,0,62,0
1,121502,Note_on_c,0,48,40
1,121596,Note_off_c,0,48,0
1,121630,Note_on_c,0,51,97
1,121725,Note_off_c,0,51,0
1,121741,Note_on_c,0,55,40
1,121836,Note_off_c,0,55,0
1,121870,Note_on_c,0,58,85
1,121964,Note_off_c,0,58,0
1,121981,Note_on_c,0,69,40
1,122076,Note_off_c,0,69,0
1,122109,Note_on_c,0,72,89
1,122204,Note_off_c,0,72,0
1,122221,Note_on_c,0,76,40
1,122315,Note_off_c,0,76,0
1,122349,Note_on_c,0,72,95
1,122443,Note_off_c,0,72,0
1,122460,Note_on_c,0,75,40
1,122560,Note_off_c,0,75,0
1,122588,Note_on_c,0,79,101
1,122683,Note_off_c,0,79,0
1,122700,Note_on_c,0,82,40
1,122800,Note_off_c,0,82,0
1,122828,Note_on_c,0,86,105
1,122923,Note_off_c,0,86,0
1,122939,Note_on_c,0,48,40
1,123040,Note_off_c,0,48,0
1,123068,Note_on_c,0,51,119
1,123162,Note_off_c,0,51,0
1,123179,Note_on_c,0,55,40
1,123279,Note_off_c,0,55,0
1,123307,Note_on_c,0,48,102
1,123402,Note_off_c,0,48,0
1,123424,Note_on_c,0,51,40
1,123519,Note_off_c,0,51,0
1,123547,Note_on_c,0,55,88
1,123642,Note_off_c,0,55,0
1,123664,Note_on_c,0,58,40
1,123759,Note_off_c,0,58,0
1,123787,Note_on_c,0,69,103
1,123881,Note_off_c,0,69,0
1,123904,Note_on_c,0,55,40
1,123998,Note_off_c,0,55,0
1,124026,Note_on_c,0,58,80
1,124126,Note_off_c,0,58,0
1,124143,Note_on_c,0,62,40
1,124238,Note_off_c,0,62,0
1,124266,Note_on_c,0,65,93
1,124366,Note_off_c,0,65,0
1,124383,Note_on_c,0,86,40
1,124477,Note_off_c,0,86,0
1,124505,Note_on_c,0,89,96
1,124606,Note_off_c,0,89,0
1,124622,Note_on_c,0,93,40
1,124717,Note_off_c,0,93,0
1,124745,Note_on_c,0,72,101
1,124845,Note_off_c,0,72,0
1,124862,Note_on_c,0,75,40
1,124957,Note_off_c,0,75,0
1,124990,Note_on_c,0,79,109
1,125085,Note_off_c,0,79,0
1,125102,Note_on_c,0,82,40
1,125196,Note_off_c,0,82,0
1,125230,Note_on_c,0,62,94
1,125325,Note_off_c,0,62,0
1,125341,Note_on_c,0,65,40
1,125436,Note_off_c,0,65,0
1,125469,Note_on_c,0,69,105
1,125564,Note_off_c,0,69,0
1,125581,Note_on_c,0,72,40
1,125676,Note_off_c,0,72,0
1,125709,Note_on_c,0,76,88
1,125804,Note_off_c,0,76,0
1,125821,Note_on_c,0,86,40
1,125915,Note_off_c,0,86,0
1,125949,Note_on_c,0,90,93
1,126043,Note_off_c,0,90,0
1,126060,Note_on_c,0,55,40
1,126155,Note_off_c,0,55,0
1,126188,Note_on_c,0,58,104
1,126283,Note_off_c,0,58,0
1,126300,Note_on_c,0,62,40
1,126400,Note_off_c,0,62,0
1,126428,Note_on_c,0,55,93
1,126523,Note_off_c,0,55,0
1,126539,Note_on_c,0,58,40
1,126640,Note_off_c,0,58,0
1,126668,Note_on_c,0,79,102
1,126762,Note_off_c,0,79,0
1,126779,Note_on_c,0,82,40
1,126879,Note_off_c,0,82,0
1,126907,Note_on_c,0,86,94
1,127002,Note_off_c,0,86,0
1,127024,Note_on_c,0,48,40
1,127119,Note_off_c,0,48,0
1,127147,Note_on_c,0,51,80
1,127242,Note_off_c,0,51,0
1,127264,Note_on_c,0,55,40
1,127359,Note_off_c,0,55,0
1,127386,Note_on_c,0,58,85
1,127481,Note_off_c,0,58,0
1,127503,Note_on_c,0,62,40
1,127598,Note_off_c,0,62,0
1,127626,Note_on_c,0,72,83
1,127726,Note_off_c,0,72,0
1,127743,Note_on_c,0,76,40
1,127838,Note_off_c,0,76,0
1,127866,Note_on_c,0,55,100
1,127966,Note_off_c,0,55,0
1,127983,Note_on_c,0,58,40
1,128077,Note_off_c,0,58,0
1,128105,Note_on_c,0,62,105
1,128206,Note_off_c,0,62,0
1,128222,Note_on_c,0,65,40
1,128317,Note_off_c,0,65,0
1,128345,Note_on_c,0,69,106
1,128445,Note_off_c,0,69,0
1,128462,Note_on_c,0,72,40
1,128557,Note_off_c,0,72,0
1,128590,Note_on_c,0,75,113
1,128685,Note_off_c,0,75,0
1,128702,Note_on_c,0,79,40
1,128796,Note_off_c,0,79,0
1,128830,Note_on_c,0,72,97
1,128924,Note_off_c,0,72,0
1,128941,Note_on_c,0,75,40
1,129036,Note_off_c,0,75,0
1,129069,Note_on_c,0,55,84
1,129164,Note_off_c,0,55,0
1,129181,Note_on_c,0,58,40
1,129276,Note_off_c,0,58,0
1,129309,Note_on_c,0,62,119
1,129404,Note_off_c,0,62,0
1,129420,Note_on_c,0,48,40
1,129515,Note_off_c,0,48,0
1,129549,Note_on_c,0,51,107
1,129643,Note_off_c,0,51,0
1,129660,Note_on_c,0,55,40
1,129755,Note_off_c,0,55,0
1,129788,Note_on_c,0,58,99
1,129883,Note_off_c,0,58,0
1,129900,Note_on_c,0,69,40
1,130000,Note_off_c,0,69,0
1,130028,Note_on_c,0,72,100
1,130123,Note_off_c,0,72,0
1,130139,Note_on_c,0,76,40
1,130240,Note_off_c,0,76,0
1,130268,Note_on_c,0,55,92
1,130362,Note_off_c,0,55,0
1,130379,Note_on_c,0,58,40
1,130479,Note_off_c,0,58,0
1,130507,Note_on_c,0,79,99
1,130602,Note_off_c,0,79,0
1,130624,Note_on_c,0,82,40
1,130719,Note_off_c,0,82,0
1,130747,Note_on_c,0,86,83
1,130841,Note_off_c,0,86,0
1,130864,Note_on_c,0,89,40
1,130959,Note_off_c,0,89,0
1,130986,Note_on_c,0,93,100
1,131081,Note_off_c,0,93,0
1,131103,Note_on_c,0,96,40
1,131198,Note_off_c,0,96,0
1,131226,Note_on_c,0,100,83
1,131326,Note_off_c,0,100,0
1,131343,Note_on_c,0,79,40
1,131438,Note_off_c,0,79,0
1,131466,Note_on_c,0,83,83
1,131566,Note_off_c,0,83,0
1,131583,Note_on_c,0,48,40
1,131677,Note_off_c,0,48,0
1,131705,Note_on_c,0,58,114
1,131806,Note_off_c,0,58,0
1,131822,Note_on_c,0,62,40
1,131917,Note_off_c,0,62,0
1,131945,Note_on_c,0,55,100
1,132045,Note_off_c,0,55,0
1,132062,Note_on_c,0,58,40
1,132157,Note_off_c,0,58,0
1,132190,Note_on_c,0,62,105
1,132285,Note_off_c,0,62,0
1,132302,Note_on_c,0,82,40
1,132396,Note_off_c,0,82,0
1,132430,Note_on_c,0,86,104
1,132524,Note_off_c,0,86,0
1,132541,Note_on_c,0,72,40
1,132636,Note_off_c,0,72,0
1,132669,Note_on_c,0,75,114
1,132764,Note_off_c,0,75,0
1,132781,Note_on_c,0,79,40
1,132875,Note_off_c,0,79,0
1,132909,Note_on_c,0,82,91
1,133004,Note_off_c,0,82,0
1,133020,Note_on_c,0,86,40
1,133115,Note_off_c,0,86,0
1,133149,Note_on_c,0,65,112
1,133243,Note_off_c,0,65,0
1,133260,Note_on_c,0,69,40
1,133355,Note_off_c,0,69,0
1,133388,Note_on_c,0,48,87
1,133483,Note_off_c,0,48,0
1,133500,Note_on_c,0,51,40
1,133600,Note_off_c,0,51,0
1,133628,Note_on_c,0,55,116
1,133722,Note_off_c,0,55,0
1,133739,Note_on_c,0,65,40
1,133839,Note_off_c,0,65,0
1,133867,Note_on_c,0,69,86
1,133962,Note_off_c,0,69,0
1,133979,Note_on_c,0,55,40
1,134079,Note_off_c,0,55,0
1,134107,Note_on_c,0,58,110
1,134202,Note_off_c,0,58,0
1,134224,Note_on_c,0,62,40
1,134319,Note_off_c,0,62,0
1,134347,Note_on_c,0,55,90
1,134441,Note_off_c,0,55,0
1,134464,Note_on_c,0,58,40
1,134558,Note_off_c,0,58,0
1,134586,Note_on_c,0,79,86
1,134681,Note_off_c,0,79,0
1,134703,Note_on_c,0,82,40
1,134798,Note_off_c,0,82,0
1,134826,Note_on_c,0,86,115
1,134921,Note_off_c,0,86,0
1,134943,Note_on_c,0,72,40
1,135038,Note_off_c,0,72,0
1,135066,Note_on_c,0,75,93
1,135166,Note_off_c,0,75,0
1,135183,Note_on_c,0,55,40
1,135277,Note_off_c,0,55,0
1,135305,Note_on_c,0,58,107
1,135405,Note_off_c,0,58,0
1,135422,Note_on_c,0,62,40
1,135517,Note_off_c,0,62,0
1,135545,Note_on_c,0,65,100
1,135645,Note_off_c,0,65,0
1,135662,Note_on_c,0,69,40
1,135757,Note_off_c,0,69,0
1,135790,Note_on_c,0,48,80
1,135885,Note_off_c,0,48,0
1,135901,Note_on_c,0,51,40
1,135996,Note_off_c,0,51,0
1,136030,Note_on_c,0,62,100
1,136124,Note_off_c,0,62,0
1,136141,Note_on_c,0,65,40
1,136236,Note_off_c,0,65,0
1,136269,Note_on_c,0,69,117
1,136364,Note_off_c,0,69,0
1,136381,Note_on_c,0,89,40
1,136475,Note_off_c,0,89,0
1,136509,Note_on_c,0,93,84
1,136604,Note_off_c,0,93,0
1,136620,Note_on_c,0,96,40
1,136715,Note_off_c,0,96,0
1,136748,Note_on_c,0,100,100
1,136843,Note_off_c,0,100,0
1,136860,Note_on_c,0,103,40
1,136955,Note_off_c,0,103,0
1,136988,Note_on_c,0,83,104
1,137083,Note_off_c,0,83,0
1,137099,Note_on_c,0,48,40
1,137200,Note_off_c,0,48,0
1,137228,Note_on_c,0,51,104
1,137322,Note_off_c,0,51,0
1,137339,Note_on_c,0,55,40
1,137440,Note_off_c,0,55,0
1,137467,Note_on_c,0,48,81
1,137562,Note_off_c,0,48,0
1,137579,Note_on_c,0,51,40
1,137679,Note_off_c,0,51,0
1,137707,Note_on_c,0,55,117
1,137802,Note_off_c,0,55,0
1,137824,Note_on_c,0,65,40
1,137919,Note_off_c,0,65,0
1,137947,Note_on_c,0,69,84
1,138041,Note_off_c,0,69,0
1,138064,Note_on_c,0,55,40
1,138158,Note_off_c,0,55,0
1,138186,Note_on_c,0,58,85
1,138281,Note_off_c,0,58,0
1,138303,Note_on_c,0,62,40
1,138398,Note_off_c,0,62,0
1,138426,Note_on_c,0,82,98
1,138521,Note_off_c,0,82,0
1,138543,Note_on_c,0,86,40
1,138638,Note_off_c,0,86,0
1,138665,Note_on_c,0,89,87
1,138766,Note_off_c,0,89,0
1,138782,Note_on_c,0,93,40
1,138877,Note_off_c,0,93,0
1,138905,Note_on_c,0,72,88
1,139005,Note_off_c,0,72,0
1,139022,Note_on_c,0,75,40
1,139117,Note_off_c,0,75,0
1,139145,Note_on_c,0,79,92
1,139245,Note_off_c,0,79,0
1,139262,Note_on_c,0,58,40
1,139356,Note_off_c,0,58,0
1,139390,Note_on_c,0,62,107
1,139485,Note_off_c,0,62,0
1,139501,Note_on_c,0,48,40
1,139596,Note_off_c,0,48,0
1,139629,Note_on_c,0,51,114
1,139724,Note_off_c,0,51,0
1,139741,Note_on_c,0,55,40
1,139836,Note_off_c,0,55,0
1,139869,Note_on_c,0,55,117
1,139964,Note_off_c,0,55,0
1,139981,Note_on_c,0,58,40
1,140075,Note_off_c,0,58,0
1,140109,Note_on_c,0,62,101
1,140203,Note_off_c,0,62,0
1,140220,Note_on_c,0,65,40
1,140315,Note_off_c,0,65,0
1,140348,Note_on_c,0,69,86
1,140443,Note_off_c,0,69,0
1,140460,Note_on_c,0,55,40
1,140555,Note_off_c,0,55,0
1,140588,Note_on_c,0,58,110
1,140683,Note_off_c,0,58,0
1,140699,Note_on_c,0,79,40
1,140800,Note_off_c,0,79,0
1,140828,Note_on_c,0,82,109
1,140922,Note_off_c,0,82,0
1,140939,Note_on_c,0,86,40
1,141039,Note_off_c,0,86,0
1,141067,Note_on_c,0,65,82
1,141162,Note_off_c,0,65,0
1,141179,Note_on_c,0,69,40
1,141279,Note_off_c,0,69,0
1,141307,Note_on_c,0,48,116
1,141402,Note_off_c,0,48,0
1,141424,Note_on_c,0,51,40
1,141519,Note_off_c,0,51,0
1,141546,Note_on_c,0,55,99
1,141641,Note_off_c,0,55,0
1,141664,Note_on_c,0,65,40
1,141758,Note_off_c,0,65,0
1,141786,Note_on_c,0,69,93
1,141881,Note_off_c,0,69,0
1,141903,Note_on_c,0,72,40
1,141998,Note_off_c,0,72,0
1,142026,Note_on_c,0,76,83
1,142120,Note_off_c,0,76,0
1,142143,Note_on_c,0,79,40
1,142237,Note_off_c,0,79,0
1,142265,Note_on_c,0,83,94
1,142366,Note_off_c,0,83,0
1,142382,Note_on_c,0,86,40
1,142477,Note_off_c,0,86,0
1,142505,Note_on_c,0,107,107
1,142605,Note_off_c,0,107,0
1,142622,Note_on_c,0,72,40
1,142717,Note_off_c,0,72,0
1,142745,Note_on_c,0,75,110
1,142845,Note_off_c,0,75,0
1,142862,Note_on_c,0,79,40
1,142956,Note_off_c,0,79,0
1,142990,Note_on_c,0,72,115
1,143085,Note_off_c,0,72,0
1,143101,Note_on_c,0,51,40
1,143196,Note_off_c,0,51,0
1,143229,Note_on_c,0,55,107
1,143324,Note_off_c,0,55,0
1,143341,Note_on_c,0,58,40
1,143436,Note_off_c,0,58,0
1,143469,Note_on_c,0,62,91
1,143564,Note_off_c,0,62,0
1,143581,Note_on_c,0,48,40
1,143675,Note_off_c,0,48,0
1,143709,Note_on_c,0,51,113
1,143803,Note_off_c,0,51,0
1,143820,Note_on_c,0,55,40
1,143915,Note_off_c,0,55,0
1,143948,Note_on_c,0,65,112
1,144043,Note_off_c,0,65,0
1,144060,Note_on_c,0,69,40
1,144154,Note_off_c,0,69,0
1,144188,Note_on_c,0,72,112
1,144283,Note_off_c,0,72,0
1,144299,Note_on_c,0,76,40
1,144400,Note_off_c,0,76,0
1,144427,Note_on_c,0,55,98
1,144522,Note_off_c,0,55,0
1,144539,Note_on_c,0,75,40
1,144639,Note_off_c,0,75,0
1,144667,Note_on_c,0,79,97
1,144762,Note_off_c,0,79,0
1,144779,Note_on_c,0,82,40
1,144879,Note_off_c,0,82,0
1,144907,Note_on_c,0,86,113
1,145001,Note_off_c,0,86,0
1,145024,Note_on_c,0,72,40
1,145119,Note_off_c,0,72,0
1,145146,Note_on_c,0,75,95
1,145241,Note_off_c,0,75,0
1,145264,Note_on_c,0,79,40
1,145358,Note_off_c,0,79,0
1,145386,Note_on_c,0,48,101
1,145481,Note_off_c,0,48,0
1,145503,Note_on_c,0,51,40
1,145598,Note_off_c,0,51,0
1,145626,Note_on_c,0,55,118
1,145720,Note_off_c,0,55,0
1,145743,Note_on_c,0,65,40
1,145837,Note_off_c,0,65,0
1,145865,Note_on_c,0,69,113
1,145966,Note_off_c,0,69,0
1,145982,Note_on_c,0,55,40
1,146077,Note_off_c,0,55,0
1,146105,Note_on_c,0,58,109
1,146205,Note_off_c,0,58,0
1,146222,Note_on_c,0,62,40
1,146317,Note_off_c,0,62,0
1,146345,Note_on_c,0,82,87
1,146445,Note_off_c,0,82,0
1,146462,Note_on_c,0,86,40
1,146556,Note_off_c,0,86,0
1,146590,Note_on_c,0,89,86
1,146684,Note_off_c,0,89,0
1,146701,Note_on_c,0,93,40
1,146797,Note_off_c,0,93,0
1,146830,Note_on_c,0,72,97
1,146925,Note_off_c,0,72,0
1,146942,Note_on_c,0,75,40
1,147037,Note_off_c,0,75,0
1,147070,Note_on_c,0,79,82
1,147165,Note_off_c,0,79,0
1,147181,Note_on_c,0,58,40
1,147276,Note_off_c,0,58,0
1,147310,Note_on_c,0,62,83
1,147404,Note_off_c,0,62,0
1,147421,Note_on_c,0,65,40
1,147516,Note_off_c,0,65,0
1,147549,Note_on_c,0,69,119
1,147644,Note_off_c,0,69,0
1,147661,Note_on_c,0,72,40
1,147755,Note_off_c,0,72,0
1,147789,Note_on_c,0,83,88
1,147883,Note_off_c,0,83,0
1,147900,Note_on_c,0,86,40
1,148001,Note_off_c,0,86,0
1,148028,Note_on_c,0,90,113
1,148123,Note_off_c,0,90,0
1,148140,Note_on_c,0,55,40
1,148240,Note_off_c,0,55,0
1,148268,Note_on_c,0,58,108
1,148363,Note_off_c,0,58,0
1,148380,Note_on_c,0,62,40
1,148480,Note_off_c,0,62,0
1,148508,Note_on_c,0,55,91
1,148602,Note_off_c,0,55,0
1,148625,Note_on_c,0,75,40
1,148719,Note_off_c,0,75,0
1,148747,Note_on_c,0,79,110
1,148842,Note_off_c,0,79,0
1,148864,Note_on_c,0,82,40
1,148959,Note_off_c,0,82,0
1,148987,Note_on_c,0,86,88
1,149082,Note_off_c,0,86,0
1,149104,Note_on_c,0,72,40
1,149199,Note_off_c,0,72,0
1,149227,Note_on_c,0,51,104
1,149321,Note_off_c,0,51,0
1,149344,Note_on_c,0,55,40
1,149438,Note_off_c,0,55,0
1,149466,Note_on_c,0,58,113
1,149567,Note_off_c,0,58,0
1,149583,Note_on_c,0,62,40
1,149678,Note_off_c,0,62,0
1,149706,Note_on_c,0,65,102
1,149806,Note_off_c,0,65,0
1,149823,Note_on_c,0,69,40
1,149918,Note_off_c,0,69,0
1,149945,Note_on_c,0,48,91
1,150046,Note_off_c,0,48,0
1,150063,Note_on_c,0,58,40
1,150157,Note_off_c,0,58,0
1,150191,Note_on_c,0,62,104
1,150285,Note_off_c,0,62,0
1,150302,Note_on_c,0,65,40
1,150397,Note_off_c,0,65,0
1,150430,Note_on_c,0,86,98
1,150525,Note_off_c,0,86,0
1,150542,Note_on_c,0,72,40
1,150636,Note_off_c,0,72,0
1,150670,Note_on_c,0,75,119
1,150765,Note_off_c,0,75,0
1,150781,Note_on_c,0,79,40
1,150876,Note_off_c,0,79,0
1,150910,Note_on_c,0,72,116
1,151004,Note_off_c,0,72,0
1,151021,Note_on_c,0,51,40
1,151116,Note_off_c,0,51,0
1,151149,Note_on_c,0,55,91
1,151244,Note_off_c,0,55,0
1,151261,Note_on_c,0,58,40
1,151355,Note_off_c,0,58,0
1,151389,Note_on_c,0,62,112
1,151484,Note_off_c,0,62,0
1,151500,Note_on_c,0,48,40
1,151600,Note_off_c,0,48,0
1,151628,Note_on_c,0,51,108
1,151723,Note_off_c,0,51,0
1,151740,Note_on_c,0,55,40
1,151840,Note_off_c,0,55,0
1,151868,Note_on_c,0,65,109
1,151963,Note_off_c,0,65,0
1,151979,Note_on_c,0,69,40
1,152080,Note_off_c,0,69,0
1,152108,Note_on_c,0,72,90
1,152202,Note_off_c,0,72,0
1,152225,Note_on_c,0,76,40
1,152319,Note_off_c,0,76,0
1,152347,Note_on_c,0,55,102
1,152442,Note_off_c,0,55,0
1,152464,Note_on_c,0,75,40
1,152559,Note_off_c,0,75,0
1,152587,Note_on_c,0,79,84
1,152682,Note_off_c,0,79,0
1,152704,Note_on_c,0,82,40
1,152799,Note_off_c,0,82,0
1,152827,Note_on_c,0,86,112
1,152921,Note_off_c,0,86,0
1,152944,Note_on_c,0,89,40
1,153038,Note_off_c,0,89,0
1,153066,Note_on_c,0,93,100
1,153166,Note_off_c,0,93,0
1,153183,Note_on_c,0,96,40
1,153278,Note_off_c,0,96,0
1,153306,Note_on_c,0,76,118
1,153406,Note_off_c,0,76,0
1,153423,Note_on_c,0,79,40
1,153518,Note_off_c,0,79,0
1,153545,Note_on_c,0,83,101
1,153646,Note_off_c,0,83,0
1,153662,Note_on_c,0,48,40
1,153757,Note_off_c,0,48,0
1,153791,Note_on_c,0,51,108
1,153885,Note_off_c,0,51,0
1,153902,Note_on_c,0,62,40
1,153997,Note_off_c,0,62,0
1,154030,Note_on_c,0,55,84
1,154125,Note_off_c,0,55,0
1,154142,Note_on_c,0,58,40
1,154236,Note_off_c,0,58,0
1,154270,Note_on_c,0,62,119
1,154364,Note_off_c,0,62,0
1,154381,Note_on_c,0,65,40
1,154476,Note_off_c,0,65,0
1,154509,Note_on_c,0,69,110
1,154604,Note_off_c,0,69,0
1,154621,Note_on_c,0,55,40
1,154716,Note_off_c,0,55,0
1,154749,Note_on_c,0,75,88
1,154844,Note_off_c,0,75,0
1,154861,Note_on_c,0,79,40
1,154955,Note_off_c,0,79,0
1,154989,Note_on_c,0,82,118
1,155083,Note_off_c,0,82,0
1,155100,Note_on_c,0,62,40
1,155200,Note_off_c,0,62,0
1,155228,Note_on_c,0,65,119
1,155323,Note_off_c,0,65,0
1,155340,Note_on_c,0,69,40
1,155440,Note_off_c,0,69,0
1,155468,Note_on_c,0,48,81
1,155563,Note_off_c,0,48,0
1,155579,Note_on_c,0,51,40
1,155680,Note_off_c,0,51,0
1,155708,Note_on_c,0,62,107
1,155802,Note_off_c,0,62,0
1,155825,Note_on_c,0,65,40
1,155919,Note_off_c,0,65,0
1,155947,Note_on_c,0,69,90
1,156042,Note_off_c,0,69,0
1,156064,Note_on_c,0,55,40
1,156159,Note_off_c,0,55,0
1,156187,Note_on_c,0,58,112
1,156281,Note_off_c,0,58,0
1,156304,Note_on_c,0,62,40
1,156399,Note_off_c,0,62,0
1,156426,Note_on_c,0,55,115
1,156521,Note_off_c,0,55,0
1,156543,Note_on_c,0,75,40
1,156638,Note_off_c,0,75,0
1,156666,Note_on_c,0,79,114
1,156766,Note_off_c,0,79,0
1,156783,Note_on_c,0,82,40
1,156878,Note_off_c,0,82,0
1,156906,Note_on_c,0,86,106
1,157006,Note_off_c,0,86,0
1,157023,Note_on_c,0,72,40
1,157117,Note_off_c,0,72,0
1,157145,Note_on_c,0,51,98
1,157246,Note_off_c,0,51,0
1,157262,Note_on_c,0,55,40
1,157357,Note_off_c,0,55,0
1,157391,Note_on_c,0,58,86
1,157485,Note_off_c,0,58,0
1,157502,Note_on_c,0,62,40
1,157597,Note_off_c,0,62,0
1,157630,Note_on_c,0,65,90
1,157725,Note_off_c,0,65,0
1,157742,Note_on_c,0,69,40
1,157836,Note_off_c,0,69,0
1,157870,Note_on_c,0,48,116
1,157964,Note_off_c,0,48,0
1,157981,Note_on_c,0,58,40
1,158076,Note_off_c,0,58,0
1,158109,Note_on_c,0,62,86
1,158204,Note_off_c,0,62,0
1,158221,Note_on_c,0,65,40
1,158316,Note_off_c,0,65,0
1,158349,Note_on_c,0,69,87
1,158444,Note_off_c,0,69,0
1,158460,Note_on_c,0,72,40
1,158555,Note_off_c,0,72,0
1,158589,Note_on_c,0,93,88
1,158683,Note_off_c,0,93,0
1,158700,Note_on_c,0,96,40
1,158800,Note_off_c,0,96,0
1,158828,Note_on_c,0,100,118
1,158923,Note_off_c,0,100,0
1,158940,Note_on_c,0,103,40
1,159040,Note_off_c,0,103,0
1,159068,Note_on_c,0,107,115
1,159163,Note_off_c,0,107,0
1,159179,Note_on_c,0,72,40
1,159280,Note_off_c,0,72,0
1,159307,Note_on_c,0,75,117
1,159402,Note_off_c,0,75,0
1,159424,Note_on_c,0,55,40
1,159519,Note_off_c,0,55,0
1,159547,Note_on_c,0,48,89
1,159642,Note_off_c,0,48,0
1,159664,Note_on_c,0,51,40
1,159759,Note_off_c,0,51,0
1,159787,Note_on_c,0,62,97
1,159881,Note_off_c,0,62,0
1,159904,Note_on_c,0,65,40
1,159999,Note_off_c,0,65,0
1,160026,Note_on_c,0,69,82
1,160121,Note_off_c,0,69,0
1,160143,Note_on_c,0,55,40
1,160238,Note_off_c,0,55,0
1,160266,Note_on_c,0,58,81
1,160366,Note_off_c,0,58,0
1,160383,Note_on_c,0,79,40
1,160478,Note_off_c,0,79,0
1,160506,Note_on_c,0,82,118
1,160606,Note_off_c,0,82,0
1,160623,Note_on_c,0,86,40
1,160717,Note_off_c,0,86,0
1,160745,Note_on_c,0,89,81
1,160845,Note_off_c,0,89,0
1,160862,Note_on_c,0,93,40
1,160957,Note_off_c,0,93,0
1,160990,Note_on_c,0,72,102
1,161085,Note_off_c,0,72,0
1,161102,Note_on_c,0,75,40
1,161197,Note_off_c,0,75,0
1,161230,Note_on_c,0,55,106
1,161325,Note_off_c,0,55,0
1,161342,Note_on_c,0,58,40
1,161436,Note_off_c,0,58,0
1,161470,Note_on_c,0,62,85
1,161564,Note_off_c,0,62,0
1,161581,Note_on_c,0,48,40
1,161676,Note_off_c,0,48,0
1,161709,Note_on_c,0,51,102
1,161804,Note_off_c,0,51,0
1,161821,Note_on_c,0,62,40
1,161915,Note_off_c,0,62,0
1,161949,Note_on_c,0,55,97
1,162044,Note_off_c,0,55,0
1,162060,Note_on_c,0,58,40
1,162155,Note_off_c,0,58,0
1,162189,Note_on_c,0,62,94
1,162283,Note_off_c,0,62,0
1,162300,Note_on_c,0,65,40
1,162400,Note_off_c,0,65,0
1,162428,Note_on_c,0,69,101
1,162523,Note_off_c,0,69,0
1,162540,Note_on_c,0,55,40
1,162640,Note_off_c,0,55,0
1,162668,Note_on_c,0,75,96
1,162762,Note_off_c,0,75,0
1,162779,Note_on_c,0,79,40
1,162879,Note_off_c,0,79,0
1,162908,Note_on_c,0,82,96
1,163002,Note_off_c,0,82,0
1,163019,Note_on_c,0,86,40
1,163119,Note_off_c,0,86,0
1,163147,Note_on_c,0,89,88
1,163242,Note_off_c,0,89,0
1,163264,Note_on_c,0,69,40
1,163359,Note_off_c,0,69,0
1,163387,Note_on_c,0,48,106
1,163482,Note_off_c,0,48,0
1,163504,Note_on_c,0,51,40
1,163598,Note_off_c,0,51,0
1,163626,Note_on_c,0,55,88
1,163721,Note_off_c,0,55,0
1,163743,Note_on_c,0,58,40
1,163838,Note_off_c,0,58,0
1,163866,Note_on_c,0,62,84
1,163966,Note_off_c,0,62,0
1,163983,Note_on_c,0,65,40
1,164078,Note_off_c,0,65,0
1,164106,Note_on_c,0,76,101
1,164206,Note_off_c,0,76,0
1,164223,Note_on_c,0,79,40
1,164317,Note_off_c,0,79,0
1,164345,Note_on_c,0,83,114
1,164446,Note_off_c,0,83,0
1,164462,Note_on_c,0,103,40
1,164557,Note_off_c,0,103,0
1,164590,Note_on_c,0,107,102
1,164685,Note_off_c,0,107,0
1,164702,Note_on_c,0,72,40
1,164797,Note_off_c,0,72,0
1,164830,Note_on_c,0,75,108
1,164925,Note_off_c,0,75,0
1,164941,Note_on_c,0,79,40
1,165036,Note_off_c,0,79,0
1,165070,Note_on_c,0,48,85
1,165164,Note_off_c,0,48,0
1,165181,Note_on_c,0,51,40
1,165276,Note_off_c,0,51,0
1,165309,Note_on_c,0,55,99
1,165404,Note_off_c,0,55,0
1,165421,Note_on_c,0,58,40
1,165515,Note_off_c,0,58,0
1,165549,Note_on_c,0,62,114
1,165644,Note_off_c,0,62,0
1,165660,Note_on_c,0,48,40
1,165755,Note_off_c,0,48,0
1,165789,Note_on_c,0,51,92
1,165883,Note_off_c,0,51,0
1,165900,Note_on_c,0,62,40
1,166000,Note_off_c,0,62,0
1,166028,Note_on_c,0,65,107
1,166123,Note_off_c,0,65,0
1,166140,Note_on_c,0,69,40
1,166240,Note_off_c,0,69,0
1,166268,Note_on_c,0,72,113
1,166362,Note_off_c,0,72,0
1,166379,Note_on_c,0,76,40
1,166479,Note_off_c,0,76,0
1,166507,Note_on_c,0,72,88
1,166602,Note_off_c,0,72,0
1,166619,Note_on_c,0,75,40
1,166719,Note_off_c,0,75,0
1,166747,Note_on_c,0,79,104
1,166842,Note_off_c,0,79,0
1,166864,Note_on_c,0,82,40
1,166959,Note_off_c,0,82,0
1,166987,Note_on_c,0,86,82
1,167081,Note_off_c,0,86,0
1,167104,Note_on_c,0,72,40
1,167198,Note_off_c,0,72,0
1,167226,Note_on_c,0,75,106
1,167321,Note_off_c,0,75,0
1,167343,Note_on_c,0,55,40
1,167438,Note_off_c,0,55,0
1,167466,Note_on_c,0,48,107
1,167566,Note_off_c,0,48,0
1,167583,Note_on_c,0,51,40
1,167677,Note_off_c,0,51,0
1,167705,Note_on_c,0,55,83
1,167806,Note_off_c,0,55,0
1,167822,Note_on_c,0,58,40
1,167917,Note_off_c,0,58,0
1,167945,Note_on_c,0,69,105
1,168045,Note_off_c,0,69,0
1,168062,Note_on_c,0,55,40
1,168157,Note_off_c,0,55,0
1,168190,Note_on_c,0,58,108
1,168285,Note_off_c,0,58,0
1,168302,Note_on_c,0,62,40
1,168396,Note_off_c,0,62,0
1,168430,Note_on_c,0,65,106
1,168525,Note_off_c,0,65,0
1,168541,Note_on_c,0,69,40
1,168636,Note_off_c,0,69,0
1,168670,Note_on_c,0,72,92
1,168764,Note_off_c,0,72,0
1,168781,Note_on_c,0,93,40
1,168876,Note_off_c,0,93,0
1,168909,Note_on_c,0,72,114
1,169004,Note_off_c,0,72,0
1,169021,Note_on_c,0,75,40
1,169115,Note_off_c,0,75,0
1,169149,Note_on_c,0,55,88
1,169243,Note_off_c,0,55,0
1,169260,Note_on_c,0,58,40
1,169355,Note_off_c,0,58,0
1,169388,Note_on_c,0,62,109
1,169483,Note_off_c,0,62,0
1,169500,Note_on_c,0,65,40
1,169600,Note_off_c,0,65,0
1,169628,Note_on_c,0,69,88
1,169723,Note_off_c,0,69,0
1,169739,Note_on_c,0,79,40
1,169840,Note_off_c,0,79,0
1,169868,Note_on_c,0,83,109
1,169962,Note_off_c,0,83,0
1,169979,Note_on_c,0,86,40
1,170079,Note_off_c,0,86,0
1,170107,Note_on_c,0,90,85
1,170202,Note_off_c,0,90,0
1,170219,Note_on_c,0,55,40
1,170319,Note_off_c,0,55,0
1,170347,Note_on_c,0,58,104
1,170442,Note_off_c,0,58,0
1,170464,Note_on_c,0,62,40
1,170559,Note_off_c,0,62,0
1,170587,Note_on_c,0,72,118
1,170681,Note_off_c,0,72,0
1,170704,Note_on_c,0,75,40
1,170798,Note_off_c,0,75,0
1,170826,Note_on_c,0,79,112
1,170921,Note_off_c,0,79,0
1,170943,Note_on_c,0,82,40
1,171038,Note_off_c,0,82,0
1,171066,Note_on_c,0,86,113
1,171166,Note_off_c,0,86,0
1,171183,Note_on_c,0,48,40
1,171277,Note_off_c,0,48,0
1,171305,Note_on_c,0,51,82
1,171406,Note_off_c,0,51,0
1,171422,Note_on_c,0,55,40
1,171517,Note_off_c,0,55,0
1,171545,Note_on_c,0,58,93
1,171645,Note_off_c,0,58,0
1,171662,Note_on_c,0,62,40
1,171757,Note_off_c,0,62,0
1,171785,Note_on_c,0,65,107
1,171885,Note_off_c,0,65,0
1,171902,Note_on_c,0,69,40
1,171996,Note_off_c,0,69,0
1,172030,Note_on_c,0,55,105
1,172125,Note_off_c,0,55,0
1,172141,Note_on_c,0,58,40
1,172236,Note_off_c,0,58,0
1,172269,Note_on_c,0,62,81
1,172364,Note_off_c,0,62,0
1,172381,Note_on_c,0,65,40
1,172476,Note_off_c,0,65,0
1,172509,Note_on_c,0,69,113
1,172604,Note_off_c,0,69,0
1,172620,Note_on_c,0,72,40
1,172715,Note_off_c,0,72,0
1,172749,Note_on_c,0,75,84
1,172843,Note_off_c,0,75,0
1,172860,Note_on_c,0,79,40
1,172955,Note_off_c,0,79,0
1,172988,Note_on_c,0,72,116
1,173083,Note_off_c,0,72,0
1,173100,Note_on_c,0,75,40
1,173200,Note_off_c,0,75,0
1,173228,Note_on_c,0,79,86
1,173323,Note_off_c,0,79,0
1,173339,Note_on_c,0,82,40
1,173440,Note_off_c,0,82,0
1,173468,Note_on_c,0,62,111
1,173562,Note_off_c,0,62,0
1,173579,Note_on_c,0,48,40
1,173679,Note_off_c,0,48,0
1,173707,Note_on_c,0,51,109
1,173802,Note_off_c,0,51,0
1,173819,Note_on_c,0,62,40
1,173919,Note_off_c,0,62,0
1,173947,Note_on_c,0,65,94
1,174042,Note_off_c,0,65,0
1,174064,Note_on_c,0,69,40
1,174159,Note_off_c,0,69,0
1,174186,Note_on_c,0,72,96
1,174281,Note_off_c,0,72,0
1,174303,Note_on_c,0,76,40
1,174398,Note_off_c,0,76,0
1,174426,Note_on_c,0,72,111
1,174521,Note_off_c,0,72,0
1,174543,Note_on_c,0,75,40
1,174638,Note_off_c,0,75,0
1,174666,Note_on_c,0,79,81
1,174766,Note_off_c,0,79,0
1,174783,Note_on_c,0,82,40
1,174877,Note_off_c,0,82,0
1,174905,Note_on_c,0,86,84
1,175006,Note_off_c,0,86,0
1,175022,Note_on_c,0,89,40
1,175117,Note_off_c,0,89,0
1,175145,Note_on_c,0,93,115
1,175245,Note_off_c,0,93,0
1,175262,Note_on_c,0,72,40
1,175357,Note_off_c,0,72,0
1,175385,Note_on_c,0,76,107
1,175485,Note_off_c,0,76,0
1,175502,Note_on_c,0,79,40
1,175596,Note_off_c,0,79,0
1,175630,Note_on_c,0,83,113
1,175724,Note_off_c,0,83,0
1,175741,Note_on_c,0,48,40
1,175836,Note_off_c,0,48,0
1,175869,Note_on_c,0,58,101
1,175964,Note_off_c,0,58,0
1,175981,Note_on_c,0,62,40
1,176075,Note_off_c,0,62,0
1,176109,Note_on_c,0,55,119
1,176204,Note_off_c,0,55,0
1,176220,Note_on_c,0,58,40
1,176315,Note_off_c,0,58,0
1,176349,Note_on_c,0,62,107
1,176443,Note_off_c,0,62,0
1,176460,Note_on_c,0,65,40
1,176555,Note_off_c,0,65,0
1,176588,Note_on_c,0,69,110
1,176683,Note_off_c,0,69,0
1,176700,Note_on_c,0,72,40
1,176800,Note_off_c,0,72,0
1,176828,Note_on_c,0,75,108
1,176923,Note_off_c,0,75,0
1,176939,Note_on_c,0,79,40
1,177040,Note_off_c,0,79,0
1,177067,Note_on_c,0,82,116
1,177162,Note_off_c,0,82,0
1,177179,Note_on_c,0,86,40
1,177279,Note_off_c,0,86,0
1,177307,Note_on_c,0,65,100
1,177402,Note_off_c,0,65,0
1,177419,Note_on_c,0,69,40
1,177519,Note_off_c,0,69,0
1,177547,Note_on_c,0,48,114
1,177641,Note_off_c,0,48,0
1,177664,Note_on_c,0,51,40
1,177759,Note_off_c,0,51,0
1,177786,Note_on_c,0,55,100
1,177881,Note_off_c,0,55,0
1,177903,Note_on_c,0,58,40
1,177998,Note_off_c,0,58,0
1,178026,Note_on_c,0,62,98
1,178121,Note_off_c,0,62,0
1,178143,Note_on_c,0,55,40
1,178238,Note_off_c,0,55,0
1,178266,Note_on_c,0,58,106
1,178366,Note_off_c,0,58,0
1,178383,Note_on_c,0,62,40
1,178477,Note_off_c,0,62,0
1,178505,Note_on_c,0,72,94
1,178606,Note_off_c,0,72,0
1,178622,Note_on_c,0,75,40
1,178717,Note_off_c,0,75,0
1,178745,Note_on_c,0,79,101
1,178845,Note_off_c,0,79,0
1,178862,Note_on_c,0,82,40
1,178957,Note_off_c,0,82,0
1,178984,Note_on_c,0,86,80
1,179085,Note_off_c,0,86,0
1,179102,Note_on_c,0,48,40
1,179196,Note_off_c,0,48,0
1,179230,Note_on_c,0,51,81
1,179324,Note_off_c,0,51,0
1,179341,Note_on_c,0,55,40
1,179436,Note_off_c,0,55,0
1,179469,Note_on_c,0,58,87
1,179564,Note_off_c,0,58,0
1,179581,Note_on_c,0,62,40
1,179675,Note_off_c,0,62,0
1,179709,Note_on_c,0,65,82
1,179804,Note_off_c,0,65,0
1,179820,Note_on_c,0,69,40
1,179915,Note_off_c,0,69,0
1,179949,Note_on_c,0,55,114
1,180043,Note_off_c,0,55,0
1,180060,Note_on_c,0,58,40
1,180155,Note_off_c,0,58,0
1,180188,Note_on_c,0,62,91
1,180283,Note_off_c,0,62,0
1,180300,Note_on_c,0,65,40
1,180400,Note_off_c,0,65,0
1,180428,Note_on_c,0,69,118
1,180522,Note_off_c,0,69,0
1,180539,Note_on_c,0,89,40
1,180640,Note_off_c,0,89,0
1,180667,Note_on_c,0,93,80
1,180762,Note_off_c,0,93,0
1,180779,Note_on_c,0,96,40
1,180879,Note_off_c,0,96,0
1,180907,Note_on_c,0,100,83
1,181002,Note_off_c,0,100,0
1,181019,Note_on_c,0,103,40
1,181119,Note_off_c,0,103,0
1,181147,Note_on_c,0,107,108
1,181241,Note_off_c,0,107,0
1,181264,Note_on_c,0,72,40
1,181358,Note_off_c,0,72,0
1,181386,Note_on_c,0,51,95
1,181481,Note_off_c,0,51,0
1,181503,Note_on_c,0,55,40
1,181598,Note_off_c,0,55,0
1,181626,Note_on_c,0,48,100
1,181721,Note_off_c,0,48,0
1,181743,Note_on_c,0,51,40
1,181838,Note_off_c,0,51,0
1,181866,Note_on_c,0,55,99
1,181966,Note_off_c,0,55,0
1,181983,Note_on_c,0,65,40
1,182077,Note_off_c,0,65,0
1,182105,Note_on_c,0,69,97
1,182205,Note_off_c,0,69,0
1,182222,Note_on_c,0,55,40
1,182317,Note_off_c,0,55,0
1,182345,Note_on_c,0,58,104
1,182445,Note_off_c,0,58,0
1,182462,Note_on_c,0,62,40
1,182557,Note_off_c,0,62,0
1,182584,Note_on_c,0,65,95
1,182685,Note_off_c,0,65,0
1,182701,Note_on_c,0,69,40
1,182796,Note_off_c,0,69,0
1,182830,Note_on_c,0,89,84
1,182924,Note_off_c,0,89,0
1,182941,Note_on_c,0,93,40
1,183036,Note_off_c,0,93,0
1,183069,Note_on_c,0,72,97
1,183165,Note_off_c,0,72,0
1,183182,Note_on_c,0,51,40
1,183276,Note_off_c,0,51,0
1,183310,Note_on_c,0,55,116
1,183404,Note_off_c,0,55,0
1,183421,Note_on_c,0,58,40
1,183516,Note_off_c,0,58,0
1,183550,Note_on_c,0,62,83
1,183644,Note_off_c,0,62,0
1,183661,Note_on_c,0,48,40
1,183756,Note_off_c,0,48,0
1,183789,Note_on_c,0,58,85
1,183884,Note_off_c,0,58,0
1,183901,Note_on_c,0,62,40
1,184001,Note_off_c,0,62,0
1,184029,Note_on_c,0,55,107
1,184123,Note_off_c,0,55,0
1,184140,Note_on_c,0,58,40
1,184240,Note_off_c,0,58,0
1,184268,Note_on_c,0,62,112
1,184363,Note_off_c,0,62,0
1,184380,Note_on_c,0,65,40
1,184480,Note_off_c,0,65,0
1,184508,Note_on_c,0,69,81
1,184603,Note_off_c,0,69,0
1,184619,Note_on_c,0,72,40
1,184720,Note_off_c,0,72,0
1,184748,Note_on_c,0,75,87
1,184842,Note_off_c,0,75,0
1,184865,Note_on_c,0,79,40
1,184959,Note_off_c,0,79,0
1,184987,Note_on_c,0,82,107
1,185082,Note_off_c,0,82,0
1,185104,Note_on_c,0,86,40
1,185199,Note_off_c,0,86,0
1,185227,Note_on_c,0,65,102
1,185322,Note_off_c,0,65,0
1,185344,Note_on_c,0,69,40
1,185439,Note_off_c,0,69,0
1,185466,Note_on_c,0,48,106
1,185567,Note_off_c,0,48,0
1,185584,Note_on_c,0,51,40
1,185678,Note_off_c,0,51,0
1,185706,Note_on_c,0,55,94
1,185806,Note_off_c,0,55,0
1,185823,Note_on_c,0,58,40
1,185918,Note_off_c,0,58,0
1,185946,Note_on_c,0,62,116
1,186046,Note_off_c,0,62,0
1,186063,Note_on_c,0,72,40
1,186158,Note_off_c,0,72,0
1,186185,Note_on_c,0,76,88
1,186286,Note_off_c,0,76,0
1,186302,Note_on_c,0,79,40
1,186397,Note_off_c,0,79,0
1,186431,Note_on_c,0,83,94
1,186525,Note_off_c,0,83,0
1,186542,Note_on_c,0,86,40
1,186637,Note_off_c,0,86,0
1,186670,Note_on_c,0,107,117
1,186765,Note_off_c,0,107,0
1,186782,Note_on_c,0,72,40
1,186876,Note_off_c,0,72,0
1,186910,Note_on_c,0,75,95
1,187005,Note_off_c,0,75,0
1,187021,Note_on_c,0,79,40
1,187116,Note_off_c,0,79,0
1,187149,Note_on_c,0,72,97
1,187244,Note_off_c,0,72,0
1,187261,Note_on_c,0,75,40
1,187356,Note_off_c,0,75,0
1,187389,Note_on_c,0,79,112
1,187484,Note_off_c,0,79,0
1,187500,Note_on_c,0,58,40
1,187595,Note_off_c,0,58,0
1,187629,Note_on_c,0,62,107
1,187723,Note_off_c,0,62,0
1,187740,Note_on_c,0,48,40
1,187840,Note_off_c,0,48,0
1,187868,Note_on_c,0,58,96
1,187963,Note_off_c,0,58,0
1,187980,Note_on_c,0,62,40
1,188080,Note_off_c,0,62,0
1,188108,Note_on_c,0,65,113
1,188203,Note_off_c,0,65,0
1,188219,Note_on_c,0,69,40
1,188320,Note_off_c,0,69,0
1,188348,Note_on_c,0,72,110
1,188442,Note_off_c,0,72,0
1,188465,Note_on_c,0,93,40
1,188559,Note_off_c,0,93,0
1,188587,Note_on_c,0,72,84
1,188682,Note_off_c,0,72,0
1,188704,Note_on_c,0,75,40
1,188799,Note_off_c,0,75,0
1,188827,Note_on_c,0,79,89
1,188922,Note_off_c,0,79,0
1,188944,Note_on_c,0,82,40
1,189038,Note_off_c,0,82,0
1,189066,Note_on_c,0,86,90
1,189167,Note_off_c,0,86,0
1,189183,Note_on_c,0,72,40
1,189278,Note_off_c,0,72,0
1,189306,Note_on_c,0,51,104
1,189406,Note_off_c,0,51,0
1,189423,Note_on_c,0,55,40
1,189518,Note_off_c,0,55,0
1,189546,Note_on_c,0,48,106
1,189646,Note_off_c,0,48,0
1,189663,Note_on_c,0,51,40
1,189757,Note_off_c,0,51,0
1,189785,Note_on_c,0,55,115
1,189886,Note_off_c,0,55,0
1,189902,Note_on_c,0,65,40
1,189997,Note_off_c,0,65,0
1,190030,Note_on_c,0,69,119
1,190125,Note_off_c,0,69,0
1,190142,Note_on_c,0,55,40
1,190237,Note_off_c,0,55,0
1,190270,Note_on_c,0,58,111
1,190365,Note_off_c,0,58,0
1,190382,Note_on_c,0,62,40
1,190476,Note_off_c,0,62,0
1,190510,Note_on_c,0,65,92
1,190604,Note_off_c,0,65,0
1,190621,Note_on_c,0,69,40
1,190716,Note_off_c,0,69,0
1,190749,Note_on_c,0,89,116
1,190844,Note_off_c,0,89,0
1,190861,Note_on_c,0,93,40
1,190955,Note_off_c,0,93,0
1,190989,Note_on_c,0,72,115
1,191084,Note_off_c,0,72,0
1,191100,Note_on_c,0,75,40
1,191195,Note_off_c,0,75,0
1,191229,Note_on_c,0,79,97
1,191323,Note_off_c,0,79,0
1,191340,Note_on_c,0,58,40
1,191440,Note_off_c,0,58,0
1,191468,Note_on_c,0,62,103
1,191563,Note_off_c,0,62,0
1,191580,Note_on_c,0,65,40
1,191680,Note_off_c,0,65,0
1,191708,Note_on_c,0,69,107
1,191803,Note_off_c,0,69,0
1,191819,Note_on_c,0,72,40
1,191920,Note_off_c,0,72,0
1,191947,Note_on_c,0,76,98
1,192042,Note_off_c,0,76,0
1,192065,Note_on_c,0,79,40
1,192159,Note_off_c,0,79,0
1,192187,Note_on_c,0,90,110
1,192282,Note_off_c,0,90,0
1,192304,Note_on_c,0,55,40
1,192399,Note_off_c,0,55,0
1,192427,Note_on_c,0,58,95
1,192521,Note_off_c,0,58,0
1,192544,Note_on_c,0,79,40
1,192638,Note_off_c,0,79,0
1,192666,Note_on_c,0,72,81
1,192767,Note_off_c,0,72,0
1,192783,Note_on_c,0,75,40
1,192878,Note_off_c,0,75,0
1,192906,Note_on_c,0,79,97
1,193006,Note_off_c,0,79,0
1,193023,Note_on_c,0,82,40
1,193118,Note_off_c,0,82,0
1,193146,Note_on_c,0,62,109
1,193246,Note_off_c,0,62,0
1,193263,Note_on_c,0,48,40
1,193357,Note_off_c,0,48,0
1,193385,Note_on_c,0,51,117
1,193485,Note_off_c,0,51,0
1,193502,Note_on_c,0,55,40
1,193597,Note_off_c,0,55,0
1,193630,Note_on_c,0,58,105
1,193725,Note_off_c,0,58,0
1,193742,Note_on_c,0,62,40
1,193837,Note_off_c,0,62,0
1,193870,Note_on_c,0,65,84
1,193965,Note_off_c,0,65,0
1,193981,Note_on_c,0,76,40
1,194076,Note_off_c,0,76,0
1,194110,Note_on_c,0,55,115
1,194204,Note_off_c,0,55,0
1,194221,Note_on_c,0,58,40
1,194316,Note_off_c,0,58,0
1,194349,Note_on_c,0,62,81
1,194444,Note_off_c,0,62,0
1,194461,Note_on_c,0,65,40
1,194555,Note_off_c,0,65,0
1,194589,Note_on_c,0,86,101
1,194684,Note_off_c,0,86,0
1,194700,Note_on_c,0,72,40
1,194795,Note_off_c,0,72,0
1,194828,Note_on_c,0,75,107
1,194923,Note_off_c,0,75,0
1,194940,Note_on_c,0,79,40
1,195040,Note_off_c,0,79,0
1,195068,Note_on_c,0,72,108
1,195163,Note_off_c,0,72,0
1,195180,Note_on_c,0,75,40
1,195280,Note_off_c,0,75,0
1,195308,Note_on_c,0,79,118
1,195402,Note_off_c,0,79,0
1,195419,Note_on_c,0,58,40
1,195520,Note_off_c,0,58,0
1,195547,Note_on_c,0,62,101
1,195642,Note_off_c,0,62,0
1,195664,Note_on_c,0,48,40
1,195759,Note_off_c,0,48,0
1,195787,Note_on_c,0,51,98
1,195882,Note_off_c,0,51,0
1,195904,Note_on_c,0,55,40
1,195999,Note_off_c,0,55,0
1,196027,Note_on_c,0,65,82
1,196121,Note_off_c,0,65,0
1,196144,Note_on_c,0,69,40
1,196238,Note_off_c,0,69,0
1,196266,Note_on_c,0,72,110
1,196361,Note_off_c,0,72,0
1,196383,Note_on_c,0,76,40
1,196478,Note_off_c,0,76,0
1,196506,Note_on_c,0,55,109
1,196606,Note_off_c,0,55,0
1,196623,Note_on_c,0,58,40
1,196718,Note_off_c,0,58,0
1,196746,Note_on_c,0,62,106
1,196846,Note_off_c,0,62,0
1,196862,Note_on_c,0,82,40
1,196957,Note_off_c,0,82,0
1,196985,Note_on_c,0,86,96
1,197085,Note_off_c,0,86,0
1,197102,Note_on_c,0,89,40
1,197197,Note_off_c,0,89,0
1,197230,Note_on_c,0,69,104
1,197325,Note_off_c,0,69,0
1,197342,Note_on_c,0,72,40
1,197437,Note_off_c,0,72,0
1,197470,Note_on_c,0,76,105
1,197565,Note_off_c,0,76,0
1,197581,Note_on_c,0,79,40
1,197676,Note_off_c,0,79,0
1,197710,Note_on_c,0,83,88
1,197804,Note_off_c,0,83,0
1,197821,Note_on_c,0,55,40
1,197916,Note_off_c,0,55,0
1,197949,Note_on_c,0,58,117
1,198044,Note_off_c,0,58,0
1,198061,Note_on_c,0,62,40
1,198155,Note_off_c,0,62,0
1,198189,Note_on_c,0,55,102
1,198284,Note_off_c,0,55,0
1,198300,Note_on_c,0,58,40
1,198395,Note_off_c,0,58,0
1,198428,Note_on_c,0,62,83
1,198523,Note_off_c,0,62,0
1,198540,Note_on_c,0,65,40
1,198640,Note_off_c,0,65,0
1,198668,Note_on_c,0,86,94
1,198763,Note_off_c,0,86,0
1,198780,Note_on_c,0,72,40
1,198880,Note_off_c,0,72,0
1,198908,Note_on_c,0,75,85
1,199002,Note_off_c,0,75,0
1,199019,Note_on_c,0,79,40
1,199119,Note_off_c,0,79,0
1,199147,Note_on_c,0,82,110
1,199242,Note_off_c,0,82,0
1,199264,Note_on_c,0,62,40
1,199359,Note_off_c,0,62,0
1,199387,Note_on_c,0,65,113
1,199482,Note_off_c,0,65,0
1,199504,Note_on_c,0,69,40
1,199599,Note_off_c,0,69,0
1,199627,Note_on_c,0,48,116
1,199721,Note_off_c,0,48,0
1,199744,Note_on_c,0,51,40
1,199838,Note_off_c,0,51,0
1,199866,Note_on_c,0,55,85
1,199961,Note_off_c,0,55,0
1,199983,Note_on_c,0,58,40
1,200078,Note_off_c,0,58,0
1,200106,Note_on_c,0,69,114
1,200206,Note_off_c,0,69,0
1,200223,Note_on_c,0,55,40
1,200318,Note_off_c,0,55,0
1,200345,Note_on_c,0,58,93
1,200446,Note_off_c,0,58,0
1,200462,Note_on_c,0,62,40
1,200557,Note_off_c,0,62,0
1,200585,Note_on_c,0,55,115
1,200685,Note_off_c,0,55,0
1,200702,Note_on_c,0,75,40
1,200797,Note_off_c,0,75,0
1,200830,Note_on_c,0,79,112
1,200925,Note_off_c,0,79,0
1,200942,Note_on_c,0,82,40
1,201036,Note_off_c,0,82,0
1,201070,Note_on_c,0,86,119
1,201165,Note_off_c,0,86,0
1,201181,Note_on_c,0,72,40
1,201276,Note_off_c,0,72,0
1,201309,Note_on_c,0,75,119
1,201404,Note_off_c,0,75,0
1,201421,Note_on_c,0,79,40
1,201516,Note_off_c,0,79,0
1,201549,Note_on_c,0,58,107
1,201644,Note_off_c,0,58,0
1,201661,Note_on_c,0,62,40
1,201755,Note_off_c,0,62,0
1,201789,Note_on_c,0,65,80
1,201883,Note_off_c,0,65,0
1,201900,Note_on_c,0,76,40
1,201995,Note_off_c,0,76,0
1,202028,Note_on_c,0,55,101
1,202123,Note_off_c,0,55,0
1,202140,Note_on_c,0,58,40
1,202240,Note_off_c,0,58,0
1,202268,Note_on_c,0,62,95
1,202363,Note_off_c,0,62,0
1,202380,Note_on_c,0,65,40
1,202480,Note_off_c,0,65,0
1,202508,Note_on_c,0,86,108
1,202602,Note_off_c,0,86,0
1,202619,Note_on_c,0,89,40
1,202719,Note_off_c,0,89,0
1,202747,Note_on_c,0,93,99
1,202842,Note_off_c,0,93,0
1,202864,Note_on_c,0,96,40
1,202959,Note_off_c,0,96,0
1,202987,Note_on_c,0,100,116
1,203082,Note_off_c,0,100,0
1,203104,Note_on_c,0,103,40
1,203199,Note_off_c,0,103,0
1,203227,Note_on_c,0,107,86
1,203321,Note_off_c,0,107,0
1,203344,Note_on_c,0,48,40
1,203438,Note_off_c,0,48,0
1,203466,Note_on_c,0,51,101
1,203561,Note_off_c,0,51,0
1,203583,Note_on_c,0,55,40
1,203678,Note_off_c,0,55,0
1,203706,Note_on_c,0,48,106
1,203806,Note_off_c,0,48,0
1,203823,Note_on_c,0,51,40
1,203918,Note_off_c,0,51,0
1,203945,Note_on_c,0,62,116
1,204046,Note_off_c,0,62,0
1,204062,Note_on_c,0,65,40
1,204157,Note_off_c,0,65,0
1,204185,Note_on_c,0,69,88
1,204285,Note_off_c,0,69,0
1,204302,Note_on_c,0,55,40
1,204397,Note_off_c,0,55,0
1,204430,Note_on_c,0,58,83
1,204525,Note_off_c,0,58,0
1,204542,Note_on_c,0,62,40
1,204636,Note_off_c,0,62,0
1,204670,Note_on_c,0,65,100
1,204764,Note_off_c,0,65,0
1,204781,Note_on_c,0,86,40
1,204876,Note_off_c,0,86,0
1,204909,Note_on_c,0,89,114
1,205004,Note_off_c,0,89,0
1,205021,Note_on_c,0,93,40
1,205116,Note_off_c,0,93,0
1,205149,Note_on_c,0,72,91
1,205244,Note_off_c,0,72,0
1,205260,Note_on_c,0,75,40
1,205355,Note_off_c,0,75,0
1,205389,Note_on_c,0,55,97
1,205483,Note_off_c,0,55,0
1,205500,Note_on_c,0,58,40
1,205595,Note_off_c,0,58,0
1,205628,Note_on_c,0,62,96
1,205723,Note_off_c,0,62,0
1,205740,Note_on_c,0,48,40
1,205840,Note_off_c,0,48,0
1,205868,Note_on_c,0,51,94
1,205963,Note_off_c,0,51,0
1,205979,Note_on_c,0,55,40
1,206080,Note_off_c,0,55,0
1,206108,Note_on_c,0,48,112
1,206202,Note_off_c,0,48,0
1,206219,Note_on_c,0,58,40
1,206319,Note_off_c,0,58,0
1,206347,Note_on_c,0,62,101
1,206442,Note_off_c,0,62,0
1,206464,Note_on_c,0,65,40
1,206559,Note_off_c,0,65,0
1,206587,Note_on_c,0,86,85
1,206681,Note_off_c,0,86,0
1,206704,Note_on_c,0,72,40
1,206798,Note_off_c,0,72,0
1,206826,Note_on_c,0,75,106
1,206921,Note_off_c,0,75,0
1,206943,Note_on_c,0,79,40
1,207038,Note_off_c,0,79,0
1,207066,Note_on_c,0,82,97
1,207161,Note_off_c,0,82,0
1,207183,Note_on_c,0,62,40
1,207278,Note_off_c,0,62,0
1,207306,Note_on_c,0,65,91
1,207406,Note_off_c,0,65,0
1,207423,Note_on_c,0,69,40
1,207517,Note_off_c,0,69,0
1,207545,Note_on_c,0,48,101
1,207646,Note_off_c,0,48,0
1,207662,Note_on_c,0,51,40
1,207757,Note_off_c,0,51,0
1,207785,Note_on_c,0,55,111
1,207885,Note_off_c,0,55,0
1,207902,Note_on_c,0,58,40
1,207997,Note_off_c,0,58,0
1,208030,Note_on_c,0,69,86
1,208125,Note_off_c,0,69,0
1,208142,Note_on_c,0,72,40
1,208236,Note_off_c,0,72,0
1,208270,Note_on_c,0,76,93
1,208364,Note_off_c,0,76,0
1,208381,Note_on_c,0,79,40
1,208476,Note_off_c,0,79,0
1,208509,Note_on_c,0,83,110
1,208604,Note_off_c,0,83,0
1,208621,Note_on_c,0,103,40
1,208715,Note_off_c,0,103,0
1,208749,Note_on_c,0,107,86
1,208844,Note_off_c,0,107,0
1,208860,Note_on_c,0,72,40
1,208955,Note_off_c,0,72,0
1,208989,Note_on_c,0,75,81
1,209083,Note_off_c,0,75,0
1,209100,Note_on_c,0,79,40
1,209195,Note_off_c,0,79,0
1,209228,Note_on_c,0,72,110
1,209323,Note_off_c,0,72,0
1,209340,Note_on_c,0,75,40
1,209440,Note_off_c,0,75,0
1,209468,Note_on_c,0,55,107
1,209563,Note_off_c,0,55,0
1,209579,Note_on_c,0,58,40
1,209679,Note_off_c,0,58,0
1,209707,Note_on_c,0,62,96
1,209802,Note_off_c,0,62,0
1,209819,Note_on_c,0,48,40
1,209919,Note_off_c,0,48,0
1,209947,Note_on_c,0,51,98
1,210042,Note_off_c,0,51,0
1,210064,Note_on_c,0,62,40
1,210159,Note_off_c,0,62,0
1,210187,Note_on_c,0,65,86
1,210281,Note_off_c,0,65,0
1,210304,Note_on_c,0,69,40
1,210399,Note_off_c,0,69,0
1,210426,Note_on_c,0,72,93
1,210521,Note_off_c,0,72,0
1,210543,Note_on_c,0,76,40
1,210638,Note_off_c,0,76,0
1,210666,Note_on_c,0,55,105
1,210761,Note_off_c,0,55,0
1,210783,Note_on_c,0,58,40
1,210878,Note_off_c,0,58,0
1,210906,Note_on_c,0,79,108
1,211006,Note_off_c,0,79,0
1,211023,Note_on_c,0,82,40
1,211117,Note_off_c,0,82,0
1,211145,Note_on_c,0,86,119
1,211245,Note_off_c,0,86,0
1,211262,Note_on_c,0,48,40
1,211357,Note_off_c,0,48,0
1,211385,Note_on_c,0,51,101
1,211485,Note_off_c,0,51,0
1,211502,Note_on_c,0,55,40
1,211596,Note_off_c,0,55,0
1,211630,Note_on_c,0,48,116
1,211725,Note_off_c,0,48,0
1,211742,Note_on_c,0,51,40
1,211836,Note_off_c,0,51,0
1,211870,Note_on_c,0,62,83
1,211964,Note_off_c,0,62,0
1,211981,Note_on_c,0,65,40
1,212076,Note_off_c,0,65,0
1,212109,Note_on_c,0,69,81
1,212204,Note_off_c,0,69,0
1,212221,Note_on_c,0,55,40
1,212315,Note_off_c,0,55,0
1,212349,Note_on_c,0,58,110
1,212444,Note_off_c,0,58,0
1,212460,Note_on_c,0,62,40
1,212555,Note_off_c,0,62,0
1,212588,Note_on_c,0,65,95
1,212683,Note_off_c,0,65,0
1,212700,Note_on_c,0,86,40
1,212795,Note_off_c,0,86,0
1,212828,Note_on_c,0,89,99
1,212923,Note_off_c,0,89,0
1,212940,Note_on_c,0,93,40
1,213040,Note_off_c,0,93,0
1,213068,Note_on_c,0,72,86
1,213162,Note_off_c,0,72,0
1,213179,Note_on_c,0,75,40
1,213279,Note_off_c,0,75,0
1,213307,Note_on_c,0,55,110
1,213402,Note_off_c,0,55,0
1,213419,Note_on_c,0,58,40
1,213519,Note_off_c,0,58,0
1,213547,Note_on_c,0,62,92
1,213642,Note_off_c,0,62,0
1,213664,Note_on_c,0,65,40
1,213759,Note_off_c,0,65,0
1,213787,Note_on_c,0,69,107
1,213881,Note_off_c,0,69,0
1,213904,Note_on_c,0,72,40
1,213998,Note_off_c,0,72,0
1,214026,Note_on_c,0,76,116
1,214121,Note_off_c,0,76,0
1,214143,Note_on_c,0,86,40
1,214238,Note_off_c,0,86,0
1,214266,Note_on_c,0,90,118
1,214361,Note_off_c,0,90,0
1,214383,Note_on_c,0,55,40
1,214478,Note_off_c,0,55,0
1,214506,Note_on_c,0,58,85
1,214606,Note_off_c,0,58,0
1,214623,Note_on_c,0,62,40
1,214717,Note_off_c,0,62,0
1,214745,Note_on_c,0,72,87
1,214845,Note_off_c,0,72,0
1,214862,Note_on_c,0,75,40
1,214957,Note_off_c,0,75,0
1,214985,Note_on_c,0,79,99
1,215085,Note_off_c,0,79,0
1,215102,Note_on_c,0,82,40
1,215196,Note_off_c,0,82,0
1,215230,Note_on_c,0,86,116
1,215325,Note_off_c,0,86,0
1,215341,Note_on_c,0,72,40
1,215436,Note_off_c,0,72,0
1,215470,Note_on_c,0,75,94
1,215564,Note_off_c,0,75,0
1,215581,Note_on_c,0,55,40
1,215676,Note_off_c,0,55,0
1,215709,Note_on_c,0,58,113
1,215804,Note_off_c,0,58,0
1,215821,Note_on_c,0,62,40
1,215915,Note_off_c,0,62,0
1,215949,Note_on_c,0,72,106
1,216043,Note_off_c,0,72,0
1,216060,Note_on_c,0,76,40
1,216155,Note_off_c,0,76,0
1,216188,Note_on_c,0,55,100
1,216283,Note_off_c,0,55,0
1,216300,Note_on_c,0,58,40
1,216395,Note_off_c,0,58,0
1,216428,Note_on_c,0,62,114
1,216523,Note_off_c,0,62,0
1,216539,Note_on_c,0,82,40
1,216640,Note_off_c,0,82,0
1,216668,Note_on_c,0,86,97
1,216762,Note_off_c,0,86,0
1,216779,Note_on_c,0,72,40
1,216879,Note_off_c,0,72,0
1,216907,Note_on_c,0,75,88
1,217002,Note_off_c,0,75,0
1,217019,Note_on_c,0,79,40
1,217119,Note_off_c,0,79,0
1,217147,Note_on_c,0,72,90
1,217242,Note_off_c,0,72,0
1,217264,Note_on_c,0,75,40
1,217359,Note_off_c,0,75,0
1,217387,Note_on_c,0,55,115
1,217481,Note_off_c,0,55,0
1,217503,Note_on_c,0,58,40
1,217598,Note_off_c,0,58,0
1,217626,Note_on_c,0,62,94
1,217721,Note_off_c,0,62,0
1,217743,Note_on_c,0,48,40
1,217838,Note_off_c,0,48,0
1,217866,Note_on_c,0,51,103
1,217961,Note_off_c,0,51,0
1,217983,Note_on_c,0,62,40
1,218078,Note_off_c,0,62,0
1,218105,Note_on_c,0,65,101
1,218206,Note_off_c,0,65,0
1,218222,Note_on_c,0,69,40
1,218317,Note_off_c,0,69,0
1,218345,Note_on_c,0,72,82
1,218445,Note_off_c,0,72,0
1,218462,Note_on_c,0,76,40
1,218557,Note_off_c,0,76,0
1,218585,Note_on_c,0,55,103
1,218685,Note_off_c,0,55,0
1,218702,Note_on_c,0,58,40
1,218796,Note_off_c,0,58,0
1,218830,Note_on_c,0,79,82
1,218925,Note_off_c,0,79,0
1,218941,Note_on_c,0,82,40
1,219036,Note_off_c,0,82,0
1,219070,Note_on_c,0,86,118
1,219164,Note_off_c,0,86,0
1,219181,Note_on_c,0,89,40
1,219276,Note_off_c,0,89,0
1,219309,Note_on_c,0,93,107
1,219404,Note_off_c,0,93,0
1,219420,Note_on_c,0,72,40
1,219515,Note_off_c,0,72,0
1,219549,Note_on_c,0,76,84
1,219643,Note_off_c,0,76,0
1,219660,Note_on_c,0,79,40
1,219755,Note_off_c,0,79,0
1,219788,Note_on_c,0,83,108
1,219883,Note_off_c,0,83,0
1,219900,Note_on_c,0,48,40
1,219995,Note_off_c,0,48,0
1,220028,Note_on_c,0,51,83
1,220123,Note_off_c,0,51,0
1,220139,Note_on_c,0,55,40
1,220240,Note_off_c,0,55,0
1,220268,Note_on_c,0,55,104
1,220362,Note_off_c,0,55,0
1,220379,Note_on_c,0,58,40
1,220479,Note_off_c,0,58,0
1,220507,Note_on_c,0,62,115
1,220602,Note_off_c,0,62,0
1,220619,Note_on_c,0,82,40
1,220719,Note_off_c,0,82,0
1,220747,Note_on_c,0,86,113
1,220842,Note_off_c,0,86,0
1,220864,Note_on_c,0,72,40
1,220959,Note_off_c,0,72,0
1,220986,Note_on_c,0,75,116
1,221081,Note_off_c,0,75,0
1,221103,Note_on_c,0,79,40
1,221198,Note_off_c,0,79,0
1,221226,Note_on_c,0,58,102
1,221321,Note_off_c,0,58,0
1,221343,Note_on_c,0,62,40
1,221438,Note_off_c,0,62,0
1,221466,Note_on_c,0,65,109
1,221560,Note_off_c,0,65,0
1,221583,Note_on_c,0,69,40
1,221677,Note_off_c,0,69,0
1,221705,Note_on_c,0,48,114
1,221806,Note_off_c,0,48,0
1,221822,Note_on_c,0,51,40
1,221918,Note_off_c,0,51,0
1,221946,Note_on_c,0,55,108
1,222046,Note_off_c,0,55,0
1,222063,Note_on_c,0,65,40
1,222158,Note_off_c,0,65,0
1,222186,Note_on_c,0,69,117
1,222286,Note_off_c,0,69,0
1,222303,Note_on_c,0,55,40
1,222397,Note_off_c,0,55,0
1,222431,Note_on_c,0,58,94
1,222525,Note_off_c,0,58,0
1,222542,Note_on_c,0,62,40
1,222637,Note_off_c,0,62,0
1,222670,Note_on_c,0,72,104
1,222765,Note_off_c,0,72,0
1,222782,Note_on_c,0,75,40
1,222877,Note_off_c,0,75,0
1,222910,Note_on_c,0,79,92
1,223005,Note_off_c,0,79,0
1,223021,Note_on_c,0,82,40
1,223116,Note_off_c,0,82,0
1,223150,Note_on_c,0,86,87
1,223244,Note_off_c,0,86,0
1,223261,Note_on_c,0,72,40
1,223356,Note_off_c,0,72,0
1,223389,Note_on_c,0,75,91
1,223484,Note_off_c,0,75,0
1,223501,Note_on_c,0,55,40
1,223595,Note_off_c,0,55,0
1,223629,Note_on_c,0,58,113
1,223724,Note_off_c,0,58,0
1,223740,Note_on_c,0,62,40
1,223841,Note_off_c,0,62,0
1,223869,Note_on_c,0,65,81
1,223963,Note_off_c,0,65,0
1,223980,Note_on_c,0,69,40
1,224080,Note_off_c,0,69,0
1,224108,Note_on_c,0,55,108
1,224203,Note_off_c,0,55,0
1,224220,Note_on_c,0,58,40
1,224320,Note_off_c,0,58,0
1,224348,Note_on_c,0,62,81
1,224443,Note_off_c,0,62,0
1,224459,Note_on_c,0,65,40
1,224560,Note_off_c,0,65,0
1,224587,Note_on_c,0,69,92
1,224682,Note_off_c,0,69,0
1,224704,Note_on_c,0,72,40
1,224799,Note_off_c,0,72,0
1,224827,Note_on_c,0,76,104
1,224922,Note_off_c,0,76,0
1,224944,Note_on_c,0,96,40
1,225039,Note_off_c,0,96,0
1,225067,Note_on_c,0,100,95
1,225161,Note_off_c,0,100,0
1,225184,Note_on_c,0,103,40
1,225278,Note_off_c,0,103,0
1,225306,Note_on_c,0,83,116
1,225407,Note_off_c,0,83,0
1,225423,Note_on_c,0,48,40
1,225518,Note_off_c,0,48,0
1,225546,Note_on_c,0,51,85
1,225646,Note_off_c,0,51,0
1,225663,Note_on_c,0,55,40
1,225758,Note_off_c,0,55,0
1,225786,Note_on_c,0,48,98
1,225886,Note_off_c,0,48,0
1,225903,Note_on_c,0,58,40
1,225997,Note_off_c,0,58,0
1,226031,Note_on_c,0,62,99
1,226125,Note_off_c,0,62,0
1,226142,Note_on_c,0,65,40
1,226237,Note_off_c,0,65,0
1,226270,Note_on_c,0,69,87
1,226365,Note_off_c,0,69,0
1,226382,Note_on_c,0,55,40
1,226477,Note_off_c,0,55,0
1,226510,Note_on_c,0,58,97
1,226605,Note_off_c,0,58,0
1,226621,Note_on_c,0,62,40
1,226716,Note_off_c,0,62,0
1,226750,Note_on_c,0,82,87
1,226844,Note_off_c,0,82,0
1,226861,Note_on_c,0,86,40
1,226956,Note_off_c,0,86,0
1,226989,Note_on_c,0,89,92
1,227084,Note_off_c,0,89,0
1,227101,Note_on_c,0,93,40
1,227195,Note_off_c,0,93,0
1,227229,Note_on_c,0,72,86
1,227324,Note_off_c,0,72,0
1,227340,Note_on_c,0,51,40
1,227441,Note_off_c,0,51,0
1,227468,Note_on_c,0,55,90
1,227563,Note_off_c,0,55,0
1,227580,Note_on_c,0,58,40
1,227680,Note_off_c,0,58,0
1,227708,Note_on_c,0,62,116
1,227803,Note_off_c,0,62,0
1,227820,Note_on_c,0,48,40
1,227920,Note_off_c,0,48,0
1,227948,Note_on_c,0,51,81
1,228042,Note_off_c,0,51,0
1,228059,Note_on_c,0,55,40
1,228159,Note_off_c,0,55,0
1,228187,Note_on_c,0,55,84
1,228282,Note_off_c,0,55,0
1,228304,Note_on_c,0,58,40
1,228399,Note_off_c,0,58,0
1,228427,Note_on_c,0,62,113
1,228522,Note_off_c,0,62,0
1,228544,Note_on_c,0,65,40
1,228639,Note_off_c,0,65,0
1,228667,Note_on_c,0,69,104
1,228761,Note_off_c,0,69,0
1,228784,Note_on_c,0,72,40
1,228878,Note_off_c,0,72,0
1,228906,Note_on_c,0,75,114
1,229006,Note_off_c,0,75,0
1,229023,Note_on_c,0,79,40
1,229118,Note_off_c,0,79,0
1,229146,Note_on_c,0,82,107
1,229246,Note_off_c,0,82,0
1,229263,Note_on_c,0,86,40
1,229358,Note_off_c,0,86,0
1,229385,Note_on_c,0,89,92
1,229486,Note_off_c,0,89,0
1,229503,Note_on_c,0,93,40
1,229597,Note_off_c,0,93,0
1,229631,Note_on_c,0,48,111
1,229725,Note_off_c,0,48,0
1,229742,Note_on_c,0,51,40
1,229837,Note_off_c,0,51,0
1,229870,Note_on_c,0,55,81
1,229965,Note_off_c,0,55,0
1,229982,Note_on_c,0,65,40
1,230076,Note_off_c,0,65,0
1,230110,Note_on_c,0,69,117
1,230205,Note_off_c,0,69,0
1,230221,Note_on_c,0,72,40
1,230316,Note_off_c,0,72,0
1,230349,Note_on_c,0,76,84
1,230444,Note_off_c,0,76,0
1,230461,Note_on_c,0,79,40
1,230556,Note_off_c,0,79,0
1,230589,Note_on_c,0,100,89
1,230684,Note_off_c,0,100,0
1,230701,Note_on_c,0,103,40
1,230795,Note_off_c,0,103,0
1,230829,Note_on_c,0,107,88
1,230923,Note_off_c,0,107,0
1,230940,Note_on_c,0,72,40
1,231040,Note_off_c,0,72,0
1,231068,Note_on_c,0,75,117
1,231163,Note_off_c,0,75,0
1,231180,Note_on_c,0,79,40
1,231280,Note_off_c,0,79,0
1,231308,Note_on_c,0,72,90
1,231403,Note_off_c,0,72,0
1,231419,Note_on_c,0,51,40
1,231520,Note_off_c,0,51,0
1,231548,Note_on_c,0,55,116
1,231642,Note_off_c,0,55,0
1,231659,Note_on_c,0,58,40
1,231759,Note_off_c,0,58,0
1,231787,Note_on_c,0,62,118
1,231882,Note_off_c,0,62,0
1,231904,Note_on_c,0,48,40
1,231999,Note_off_c,0,48,0
1,232027,Note_on_c,0,58,102
1,232122,Note_off_c,0,58,0
1,232144,Note_on_c,0,62,40
1,232239,Note_off_c,0,62,0
1,232266,Note_on_c,0,65,100
1,232361,Note_off_c,0,65,0
1,232384,Note_on_c,0,69,40
1,232478,Note_off_c,0,69,0
1,232506,Note_on_c,0,72,94
1,232606,Note_off_c,0,72,0
1,232623,Note_on_c,0,76,40
1,232718,Note_off_c,0,76,0
1,232746,Note_on_c,0,55,99
1,232846,Note_off_c,0,55,0
1,232863,Note_on_c,0,75,40
1,232958,Note_off_c,0,75,0
1,232985,Note_on_c,0,79,106
1,233086,Note_off_c,0,79,0
1,233102,Note_on_c,0,82,40
1,233197,Note_off_c,0,82,0
1,233225,Note_on_c,0,86,112
1,233325,Note_off_c,0,86,0
1,233342,Note_on_c,0,72,40
1,233437,Note_off_c,0,72,0
1,233470,Note_on_c,0,51,118
1,233565,Note_off_c,0,51,0
1,233582,Note_on_c,0,55,40
1,233676,Note_off_c,0,55,0
1,233710,Note_on_c,0,48,114
1,233804,Note_off_c,0,48,0
1,233821,Note_on_c,0,51,40
1,233916,Note_off_c,0,51,0
1,233949,Note_on_c,0,55,89
1,234044,Note_off_c,0,55,0
1,234061,Note_on_c,0,58,40
1,234156,Note_off_c,0,58,0
1,234189,Note_on_c,0,62,85
1,234284,Note_off_c,0,62,0
1,234300,Note_on_c,0,55,40
1,234395,Note_off_c,0,55,0
1,234429,Note_on_c,0,58,86
1,234523,Note_off_c,0,58,0
1,234540,Note_on_c,0,62,40
1,234640,Note_off_c,0,62,0
1,234668,Note_on_c,0,82,96
1,234763,Note_off_c,0,82,0
1,234780,Note_on_c,0,86,40
1,234880,Note_off_c,0,86,0
1,234908,Note_on_c,0,89,96
1,235003,Note_off_c,0,89,0
1,235019,Note_on_c,0,93,40
1,235120,Note_off_c,0,93,0
1,235148,Note_on_c,0,72,83
1,235242,Note_off_c,0,72,0
1,235259,Note_on_c,0,51,40
1,235359,Note_off_c,0,51,0
1,235387,Note_on_c,0,55,97
1,235482,Note_off_c,0,55,0
1,235504,Note_on_c,0,58,40
1,235599,Note_off_c,0,58,0
1,235627,Note_on_c,0,62,100
1,235722,Note_off_c,0,62,0
1,235744,Note_on_c,0,65,40
1,235838,Note_off_c,0,65,0
1,235866,Note_on_c,0,69,116
1,235961,Note_off_c,0,69,0
1,235983,Note_on_c,0,72,40
1,236078,Note_off_c,0,72,0
1,236106,Note_on_c,0,83,81
1,236206,Note_off_c,0,83,0
1,236223,Note_on_c,0,86,40
1,236318,Note_off_c,0,86,0
1,236346,Note_on_c,0,90,94
1,236446,Note_off_c,0,90,0
1,236463,Note_on_c,0,55,40
1,236557,Note_off_c,0,55,0
1,236585,Note_on_c,0,58,104
1,236686,Note_off_c,0,58,0
1,236702,Note_on_c,0,79,40
1,236797,Note_off_c,0,79,0
1,236825,Note_on_c,0,72,94
1,236925,Note_off_c,0,72,0
1,236942,Note_on_c,0,75,40
1,237037,Note_off_c,0,75,0
1,237070,Note_on_c,0,79,86
1,237165,Note_off_c,0,79,0
1,237182,Note_on_c,0,82,40
1,237276,Note_off_c,0,82,0
1,237310,Note_on_c,0,86,106
1,237404,Note_off_c,0,86,0
1,237421,Note_on_c,0,72,40
1,237516,Note_off_c,0,72,0
1,237549,Note_on_c,0,51,91
1,237644,Note_off_c,0,51,0
1,237661,Note_on_c,0,55,40
1,237756,Note_off_c,0,55,0
1,237789,Note_on_c,0,58,90
1,237884,Note_off_c,0,58,0
1,237900,Note_on_c,0,62,40
1,237995,Note_off_c,0,62,0
1,238029,Note_on_c,0,65,115
1,238123,Note_off_c,0,65,0
1,238140,Note_on_c,0,76,40
1,238240,Note_off_c,0,76,0
1,238268,Note_on_c,0,55,99
1,238363,Note_off_c,0,55,0
1,238380,Note_on_c,0,58,40
1,238480,Note_off_c,0,58,0
1,238508,Note_on_c,0,62,88
1,238603,Note_off_c,0,62,0
1,238619,Note_on_c,0,65,40
1,238720,Note_off_c,0,65,0
1,238747,Note_on_c,0,69,85
1,238842,Note_off_c,0,69,0
1,238859,Note_on_c,0,55,40
1,238959,Note_off_c,0,55,0
1,238987,Note_on_c,0,75,96
1,239082,Note_off_c,0,75,0
1,239104,Note_on_c,0,79,40
1,239199,Note_off_c,0,79,0
1,239227,Note_on_c,0,72,87
1,239321,Note_off_c,0,72,0
1,239344,Note_on_c,0,51,40
1,239438,Note_off_c,0,51,0
1,239466,Note_on_c,0,55,108
1,239561,Note_off_c,0,55,0
1,239583,Note_on_c,0,58,40
1,239678,Note_off_c,0,58,0
1,239706,Note_on_c,0,62,117
1,239806,Note_off_c,0,62,0
1,239823,Note_on_c,0,48,40
1,239918,Note_off_c,0,48,0
1,239946,Note_on_c,0,58,101
1,240046,Note_off_c,0,58,0
1,240063,Note_on_c,0,62,40
1,240157,Note_off_c,0,62,0
1,240185,Note_on_c,0,65,87
1,240285,Note_off_c,0,65,0
1,240302,Note_on_c,0,69,40
1,240397,Note_off_c,0,69,0
1,240425,Note_on_c,0,72,103
1,240525,Note_off_c,0,72,0
1,240542,Note_on_c,0,76,40
1,240637,Note_off_c,0,76,0
1,240670,Note_on_c,0,55,94
1,240765,Note_off_c,0,55,0
1,240781,Note_on_c,0,75,40
1,240876,Note_off_c,0,75,0
1,240910,Note_on_c,0,79,86
1,241004,Note_off_c,0,79,0
1,241021,Note_on_c,0,82,40
1,241116,Note_off_c,0,82,0
1,241149,Note_on_c,0,86,97
1,241244,Note_off_c,0,86,0
1,241261,Note_on_c,0,89,40
1,241355,Note_off_c,0,89,0
1,241389,Note_on_c,0,69,104
1,241484,Note_off_c,0,69,0
1,241500,Note_on_c,0,72,40
1,241595,Note_off_c,0,72,0
1,241629,Note_on_c,0,76,92
1,241723,Note_off_c,0,76,0
1,241740,Note_on_c,0,79,40
1,241840,Note_off_c,0,79,0
1,241868,Note_on_c,0,83,104
1,241963,Note_off_c,0,83,0
1,241980,Note_on_c,0,48,40
1,242080,Note_off_c,0,48,0
1,242108,Note_on_c,0,51,80
1,242203,Note_off_c,0,51,0
1,242219,Note_on_c,0,62,40
1,242320,Note_off_c,0,62,0
1,242347,Note_on_c,0,55,109
1,242442,Note_off_c,0,55,0
1,242459,Note_on_c,0,58,40
1,242559,Note_off_c,0,58,0
1,242587,Note_on_c,0,62,108
1,242682,Note_off_c,0,62,0
1,242704,Note_on_c,0,65,40
1,242799,Note_off_c,0,65,0
1,242827,Note_on_c,0,86,97
1,242921,Note_off_c,0,86,0
1,242944,Note_on_c,0,72,40
1,243038,Note_off_c,0,72,0
1,243066,Note_on_c,0,75,89
1,243161,Note_off_c,0,75,0
1,243183,Note_on_c,0,79,40
1,243278,Note_off_c,0,79,0
1,243306,Note_on_c,0,82,104
1,243406,Note_off_c,0,82,0
1,243423,Note_on_c,0,86,40
1,243518,Note_off_c,0,86,0
1,243546,Note_on_c,0,89,99
1,243646,Note_off_c,0,89,0
1,243662,Note_on_c,0,69,40
1,243757,Note_off_c,0,69,0
1,243785,Note_on_c,0,48,103
1,243885,Note_off_c,0,48,0
1,243902,Note_on_c,0,51,40
1,243997,Note_off_c,0,51,0
1,244025,Note_on_c,0,62,89
1,244125,Note_off_c,0,62,0
1,244142,Note_on_c,0,65,40
1,244236,Note_off_c,0,65,0
1,244270,Note_on_c,0,69,113
1,244365,Note_off_c,0,69,0
1,244381,Note_on_c,0,55,40
1,244476,Note_off_c,0,55,0
1,244510,Note_on_c,0,58,110
1,244604,Note_off_c,0,58,0
1,244621,Note_on_c,0,79,40
1,244716,Note_off_c,0,79,0
1,244749,Note_on_c,0,72,115
1,244844,Note_off_c,0,72,0
1,244861,Note_on_c,0,75,40
1,244955,Note_off_c,0,75,0
1,244989,Note_on_c,0,79,85
1,245083,Note_off_c,0,79,0
1,245100,Note_on_c,0,82,40
1,245195,Note_off_c,0,82,0
1,245228,Note_on_c,0,86,81
1,245323,Note_off_c,0,86,0
1,245340,Note_on_c,0,72,40
1,245440,Note_off_c,0,72,0
1,245468,Note_on_c,0,51,110
1,245563,Note_off_c,0,51,0
1,245580,Note_on_c,0,55,40
1,245680,Note_off_c,0,55,0
1,245708,Note_on_c,0,58,105
1,245802,Note_off_c,0,58,0
1,245819,Note_on_c,0,62,40
1,245919,Note_off_c,0,62,0
1,245947,Note_on_c,0,65,89
1,246042,Note_off_c,0,65,0
1,246059,Note_on_c,0,76,40
1,246159,Note_off_c,0,76,0
1,246187,Note_on_c,0,55,116
1,246282,Note_off_c,0,55,0
1,246304,Note_on_c,0,58,40
1,246399,Note_off_c,0,58,0
1,246427,Note_on_c,0,62,82
1,246521,Note_off_c,0,62,0
1,246544,Note_on_c,0,65,40
1,246638,Note_off_c,0,65,0
1,246666,Note_on_c,0,69,96
1,246761,Note_off_c,0,69,0
1,246783,Note_on_c,0,72,40
1,246878,Note_off_c,0,72,0
1,246906,Note_on_c,0,93,105
1,247006,Note_off_c,0,93,0
1,247023,Note_on_c,0,96,40
1,247118,Note_off_c,0,96,0
1,247145,Note_on_c,0,100,119
1,247246,Note_off_c,0,100,0
1,247262,Note_on_c,0,103,40
1,247357,Note_off_c,0,103,0
1,247385,Note_on_c,0,107,118
1,247485,Note_off_c,0,107,0
1,247502,Note_on_c,0,48,40
1,247597,Note_off_c,0,48,0
1,247625,Note_on_c,0,51,113
1,247725,Note_off_c,0,51,0
1,247742,Note_on_c,0,55,40
1,247836,Note_off_c,0,55,0
1,247870,Note_on_c,0,48,103
1,247965,Note_off_c,0,48,0
1,247981,Note_on_c,0,51,40
1,248076,Note_off_c,0,51,0
1,248109,Note_on_c,0,55,92
1,248204,Note_off_c,0,55,0
1,248221,Note_on_c,0,58,40
1,248316,Note_off_c,0,58,0
1,248349,Note_on_c,0,69,80
1,248444,Note_off_c,0,69,0
1,248461,Note_on_c,0,55,40
1,248555,Note_off_c,0,55,0
1,248589,Note_on_c,0,58,81
1,248684,Note_off_c,0,58,0
1,248700,Note_on_c,0,79,40
1,248795,Note_off_c,0,79,0
1,248828,Note_on_c,0,82,117
1,248923,Note_off_c,0,82,0
1,248940,Note_on_c,0,86,40
1,249035,Note_off_c,0,86,0
1,249068,Note_on_c,0,89,92
1,249163,Note_off_c,0,89,0
1,249179,Note_on_c,0,93,40
1,249280,Note_off_c,0,93,0
1,249308,Note_on_c,0,48,106
1,249402,Note_off_c,0,48,0
1,249419,Note_on_c,0,51,40
1,249519,Note_off_c,0,51,0
1,249547,Note_on_c,0,55,117
1,249642,Note_off_c,0,55,0
1,249659,Note_on_c,0,58,40
1,249759,Note_off_c,0,58,0
1,249787,Note_on_c,0,62,81
1,249882,Note_off_c,0,62,0
1,249904,Note_on_c,0,48,40
1,249999,Note_off_c,0,48,0
1,250026,Note_on_c,0,51,94
1,250121,Note_off_c,0,51,0
1,250144,Note_on_c,0,62,40
1,250238,Note_off_c,0,62,0
1,250266,Note_on_c,0,55,95
1,250361,Note_off_c,0,55,0
1,250383,Note_on_c,0,58,40
1,250478,Note_off_c,0,58,0
1,250506,Note_on_c,0,62,91
1,250606,Note_off_c,0,62,0
1,250623,Note_on_c,0,65,40
1,250717,Note_off_c,0,65,0
1,250745,Note_on_c,0,86,119
1,250846,Note_off_c,0,86,0
1,250862,Note_on_c,0,72,40
1,250957,Note_off_c,0,72,0
1,250985,Note_on_c,0,75,115
1,251085,Note_off_c,0,75,0
1,251102,Note_on_c,0,79,40
1,251197,Note_off_c,0,79,0
1,251225,Note_on_c,0,82,115
1,251325,Note_off_c,0,82,0
1,251342,Note_on_c,0,86,40
1,251436,Note_off_c,0,86,0
1,251470,Note_on_c,0,89,88
1,251564,Note_off_c,0,89,0
1,251581,Note_on_c,0,69,40
1,251676,Note_off_c,0,69,0
1,251709,Note_on_c,0,48,108
1,251804,Note_off_c,0,48,0
1,251821,Note_on_c,0,51,40
1,251916,Note_off_c,0,51,0
1,251949,Note_on_c,0,55,105
1,252044,Note_off_c,0,55,0
1,252061,Note_on_c,0,58,40
1,252155,Note_off_c,0,58,0
1,252189,Note_on_c,0,69,83
1,252283,Note_off_c,0,69,0
1,252300,Note_on_c,0,72,40
1,252395,Note_off_c,0,72,0
1,252428,Note_on_c,0,76,114
1,252523,Note_off_c,0,76,0
1,252540,Note_on_c,0,79,40
1,252634,Note_off_c,0,79,0
1,252668,Note_on_c,0,83,106
1,252763,Note_off_c,0,83,0
1,252779,Note_on_c,0,86,40
1,252880,Note_off_c,0,86,0
1,252908,Note_on_c,0,90,114
1,253002,Note_off_c,0,90,0
1,253019,Note_on_c,0,72,40
1,253119,Note_off_c,0,72,0
1,253147,Note_on_c,0,75,99
1,253242,Note_off_c,0,75,0
1,253259,Note_on_c,0,79,40
1,253359,Note_off_c,0,79,0
1,253387,Note_on_c,0,48,116
1,253482,Note_off_c,0,48,0
1,253504,Note_on_c,0,51,40
1,253599,Note_off_c,0,51,0
1,253626,Note_on_c,0,55,111
1,253721,Note_off_c,0,55,0
1,253743,Note_on_c,0,58,40
1,253838,Note_off_c,0,58,0
1,253866,Note_on_c,0,62,101
1,253961,Note_off_c,0,62,0
1,253983,Note_on_c,0,55,40
1,254078,Note_off_c,0,55,0
1,254106,Note_on_c,0,58,93
1,254206,Note_off_c,0,58,0
1,254223,Note_on_c,0,62,40
1,254317,Note_off_c,0,62,0
1,254345,Note_on_c,0,65,96
1,254446,Note_off_c,0,65,0
1,254462,Note_on_c,0,69,40
1,254557,Note_off_c,0,69,0
1,254585,Note_on_c,0,72,101
1,254685,Note_off_c,0,72,0
1,254702,Note_on_c,0,76,40
1,254797,Note_off_c,0,76,0
1,254825,Note_on_c,0,72,91
1,254925,Note_off_c,0,72,0
1,254942,Note_on_c,0,75,40
1,255036,Note_off_c,0,75,0
1,255070,Note_on_c,0,79,90
1,255164,Note_off_c,0,79,0
1,255181,Note_on_c,0,82,40
1,255276,Note_off_c,0,82,0
1,255309,Note_on_c,0,86,85
1,255404,Note_off_c,0,86,0
1,255421,Note_on_c,0,48,40
1,255515,Note_off_c,0,48,0
1,255549,Note_on_c,0,51,104
1,255644,Note_off_c,0,51,0
1,255660,Note_on_c,0,55,40
1,255755,Note_off_c,0,55,0
1,255789,Note_on_c,0,48,90
1,255884,Note_off_c,0,48,0
1,255901,Note_on_c,0,51,40
1,255996,Note_off_c,0,51,0
1,256029,Note_on_c,0,55,86
1,256124,Note_off_c,0,55,0
1,256141,Note_on_c,0,58,40
1,256235,Note_off_c,0,58,0
1,256269,Note_on_c,0,69,101
1,256364,Note_off_c,0,69,0
1,256380,Note_on_c,0,55,40
1,256481,Note_off_c,0,55,0
1,256508,Note_on_c,0,58,103
1,256603,Note_off_c,0,58,0
1,256620,Note_on_c,0,62,40
1,256720,Note_off_c,0,62,0
1,256748,Note_on_c,0,65,112
1,256843,Note_off_c,0,65,0
1,256860,Note_on_c,0,86,40
1,256960,Note_off_c,0,86,0
1,256988,Note_on_c,0,89,99
1,257082,Note_off_c,0,89,0
1,257105,Note_on_c,0,93,40
1,257199,Note_off_c,0,93,0
1,257227,Note_on_c,0,72,104
1,257322,Note_off_c,0,72,0
1,257344,Note_on_c,0,75,40
1,257439,Note_off_c,0,75,0
1,257467,Note_on_c,0,79,86
1,257562,Note_off_c,0,79,0
1,257584,Note_on_c,0,82,40
1,257679,Note_off_c,0,82,0
1,257707,Note_on_c,0,62,114
1,257801,Note_off_c,0,62,0
1,257824,Note_on_c,0,65,40
1,257918,Note_off_c,0,65,0
1,257946,Note_on_c,0,69,116
1,258047,Note_off_c,0,69,0
1,258063,Note_on_c,0,79,40
1,258158,Note_off_c,0,79,0
1,258186,Note_on_c,0,83,85
1,258286,Note_off_c,0,83,0
1,258303,Note_on_c,0,86,40
1,258398,Note_off_c,0,86,0
1,258425,Note_on_c,0,90,109
1,258526,Note_off_c,0,90,0
1,258542,Note_on_c,0,55,40
1,258637,Note_off_c,0,55,0
1,258671,Note_on_c,0,75,111
1,258765,Note_off_c,0,75,0
1,258782,Note_on_c,0,79,40
1,258877,Note_off_c,0,79,0
1,258910,Note_on_c,0,72,94
1,259005,Note_off_c,0,72,0
1,259022,Note_on_c,0,75,40
1,259116,Note_off_c,0,75,0
1,259150,Note_on_c,0,79,98
1,259245,Note_off_c,0,79,0
1,259261,Note_on_c,0,82,40
1,259356,Note_off_c,0,82,0
1,259390,Note_on_c,0,86,97
1,259484,Note_off_c,0,86,0
1,259501,Note_on_c,0,48,40
1,259596,Note_off_c,0,48,0
1,259629,Note_on_c,0,51,98
1,259724,Note_off_c,0,51,0
1,259741,Note_on_c,0,55,40
1,259835,Note_off_c,0,55,0
1,259869,Note_on_c,0,58,92
1,259964,Note_off_c,0,58,0
1,259980,Note_on_c,0,62,40
1,260081,Note_off_c,0,62,0
1,260108,Note_on_c,0,72,83
1,260203,Note_off_c,0,72,0
1,260220,Note_on_c,0,76,40
1,260320,Note_off_c,0,76,0
1,260348,Note_on_c,0,55,92
1,260443,Note_off_c,0,55,0
1,260459,Note_on_c,0,58,40
1,260560,Note_off_c,0,58,0
1,260588,Note_on_c,0,62,112
1,260682,Note_off_c,0,62,0
1,260705,Note_on_c,0,65,40
1,260799,Note_off_c,0,65,0
1,260827,Note_on_c,0,69,80
1,260922,Note_off_c,0,69,0
1,260944,Note_on_c,0,72,40
1,261039,Note_off_c,0,72,0
1,261067,Note_on_c,0,75,83
1,261162,Note_off_c,0,75,0
1,261184,Note_on_c,0,79,40
1,261279,Note_off_c,0,79,0
1,261307,Note_on_c,0,72,94
1,261401,Note_off_c,0,72,0
1,261424,Note_on_c,0,75,40
1,261518,Note_off_c,0,75,0
1,261546,Note_on_c,0,55,93
1,261646,Note_off_c,0,55,0
1,261663,Note_on_c,0,58,40
1,261758,Note_off_c,0,58,0
1,261786,Note_on_c,0,62,100
1,261886,Note_off_c,0,62,0
1,261903,Note_on_c,0,48,40
1,261997,Note_off_c,0,48,0
1,262025,Note_on_c,0,51,115
1,262126,Note_off_c,0,51,0
1,262142,Note_on_c,0,55,40
1,262237,Note_off_c,0,55,0
1,262271,Note_on_c,0,58,105
1,262365,Note_off_c,0,58,0
1,262382,Note_on_c,0,69,40
1,262477,Note_off_c,0,69,0
1,262510,Note_on_c,0,72,110
1,262605,Note_off_c,0,72,0
1,262622,Note_on_c,0,76,40
1,262716,Note_off_c,0,76,0
1,262750,Note_on_c,0,72,80
1,262845,Note_off_c,0,72,0
1,262861,Note_on_c,0,75,40
1,262956,Note_off_c,0,75,0
1,262989,Note_on_c,0,79,89
1,263084,Note_off_c,0,79,0
1,263101,Note_on_c,0,82,40
1,263196,Note_off_c,0,82,0
1,263229,Note_on_c,0,86,80
1,263324,Note_off_c,0,86,0
1,263341,Note_on_c,0,65,40
1,263435,Note_off_c,0,65,0
1,263469,Note_on_c,0,69,87
1,263563,Note_off_c,0,69,0
1,263580,Note_on_c,0,72,40
1,263680,Note_off_c,0,72,0
1,263708,Note_on_c,0,76,111
1,263803,Note_off_c,0,76,0
1,263820,Note_on_c,0,79,40
1,263920,Note_off_c,0,79,0
1,263948,Note_on_c,0,83,103
1,264043,Note_off_c,0,83,0
1,264059,Note_on_c,0,48,40
1,264160,Note_off_c,0,48,0
1,264188,Note_on_c,0,58,119
1,264282,Note_off_c,0,58,0
1,264305,Note_on_c,0,62,40
1,264399,Note_off_c,0,62,0
1,264427,Note_on_c,0,55,90
1,264522,Note_off_c,0,55,0
1,264544,Note_on_c,0,58,40
1,264639,Note_off_c,0,58,0
1,264667,Note_on_c,0,62,88
1,264761,Note_off_c,0,62,0
1,264784,Note_on_c,0,82,40
1,264878,Note_off_c,0,82,0
1,264906,Note_on_c,0,86,86
1,265001,Note_off_c,0,86,0
1,265023,Note_on_c,0,72,40
1,265118,Note_off_c,0,72,0
1,265146,Note_on_c,0,75,85
1,265246,Note_off_c,0,75,0
1,265263,Note_on_c,0,79,40
1,265358,Note_off_c,0,79,0
1,265386,Note_on_c,0,82,85
1,265486,Note_off_c,0,82,0
1,265503,Note_on_c,0,86,40
1,265597,Note_off_c,0,86,0
1,265625,Note_on_c,0,65,92
1,265726,Note_off_c,0,65,0
1,265742,Note_on_c,0,69,40
1,265837,Note_off_c,0,69,0
1,265870,Note_on_c,0,48,114
1,265965,Note_off_c,0,48,0
1,265982,Note_on_c,0,51,40
1,266077,Note_off_c,0,51,0
1,266110,Note_on_c,0,55,116
1,266205,Note_off_c,0,55,0
1,266222,Note_on_c,0,65,40
1,266316,Note_off_c,0,65,0
1,266350,Note_on_c,0,69,107
1,266444,Note_off_c,0,69,0
1,266461,Note_on_c,0,55,40
1,266556,Note_off_c,0,55,0
1,266589,Note_on_c,0,58,93
1,266684,Note_off_c,0,58,0
1,266701,Note_on_c,0,62,40
1,266796,Note_off_c,0,62,0
1,266829,Note_on_c,0,55,93
1,266924,Note_off_c,0,55,0
1,266941,Note_on_c,0,58,40
1,267035,Note_off_c,0,58,0
1,267069,Note_on_c,0,79,85
1,267163,Note_off_c,0,79,0
1,267180,Note_on_c,0,82,40
1,267280,Note_off_c,0,82,0
1,267308,Note_on_c,0,86,106
1,267403,Note_off_c,0,86,0
1,267420,Note_on_c,0,48,40
1,267520,Note_off_c,0,48,0
1,267548,Note_on_c,0,51,97
1,267643,Note_off_c,0,51,0
1,267659,Note_on_c,0,55,40
1,267760,Note_off_c,0,55,0
1,267787,Note_on_c,0,58,97
1,267882,Note_off_c,0,58,0
1,267904,Note_on_c,0,62,40
1,267999,Note_off_c,0,62,0
1,268027,Note_on_c,0,72,98
1,268122,Note_off_c,0,72,0
1,268144,Note_on_c,0,76,40
1,268239,Note_off_c,0,76,0
1,268267,Note_on_c,0,55,97
1,268362,Note_off_c,0,55,0
1,268384,Note_on_c,0,58,40
1,268479,Note_off_c,0,58,0
1,268506,Note_on_c,0,62,101
1,268601,Note_off_c,0,62,0
1,268623,Note_on_c,0,65,40
1,268718,Note_off_c,0,65,0
1,268746,Note_on_c,0,69,112
1,268846,Note_off_c,0,69,0
1,268863,Note_on_c,0,89,40
1,268958,Note_off_c,0,89,0
1,268986,Note_on_c,0,93,111
1,269086,Note_off_c,0,93,0
1,269103,Note_on_c,0,96,40
1,269197,Note_off_c,0,96,0
1,269225,Note_on_c,0,100,81
1,269325,Note_off_c,0,100,0
1,269342,Note_on_c,0,103,40
1,269437,Note_off_c,0,103,0
1,269470,Note_on_c,0,83,108
1,269565,Note_off_c,0,83,0
1,269582,Note_on_c,0,48,40
1,269677,Note_off_c,0,48,0
1,269710,Note_on_c,0,51,97
1,269805,Note_off_c,0,51,0
1,269822,Note_on_c,0,55,40
1,269916,Note_off_c,0,55,0
1,269950,Note_on_c,0,48,112
1,270044,Note_off_c,0,48,0
1,270061,Note_on_c,0,51,40
1,270156,Note_off_c,0,51,0
1,270189,Note_on_c,0,55,109
1,270284,Note_off_c,0,55,0
1,270301,Note_on_c,0,65,40
1,270395,Note_off_c,0,65,0
1,270429,Note_on_c,0,69,106
1,270524,Note_off_c,0,69,0
1,270540,Note_on_c,0,55,40
1,270635,Note_off_c,0,55,0
1,270669,Note_on_c,0,58,113
1,270763,Note_off_c,0,58,0
1,270780,Note_on_c,0,62,40
1,270880,Note_off_c,0,62,0
1,270908,Note_on_c,0,82,116
1,271003,Note_off_c,0,82,0
1,271020,Note_on_c,0,86,40
1,271120,Note_off_c,0,86,0
1,271148,Note_on_c,0,89,98
1,271242,Note_off_c,0,89,0
1,271259,Note_on_c,0,93,40
1,271360,Note_off_c,0,93,0
1,271387,Note_on_c,0,72,97
1,271482,Note_off_c,0,72,0
1,271504,Note_on_c,0,75,40
1,271599,Note_off_c,0,75,0
1,271627,Note_on_c,0,79,116
1,271722,Note_off_c,0,79,0
1,271744,Note_on_c,0,58,40
1,271839,Note_off_c,0,58,0
1,271867,Note_on_c,0,62,108
1,271961,Note_off_c,0,62,0
1,271984,Note_on_c,0,48,40
1,272078,Note_off_c,0,48,0
1,272106,Note_on_c,0,58,106
1,272201,Note_off_c,0,58,0
1,272223,Note_on_c,0,62,40
1,272318,Note_off_c,0,62,0
1,272346,Note_on_c,0,55,83
1,272446,Note_off_c,0,55,0
1,272463,Note_on_c,0,58,40
1,272558,Note_off_c,0,58,0
1,272586,Note_on_c,0,62,113
1,272686,Note_off_c,0,62,0
1,272703,Note_on_c,0,82,40
1,272797,Note_off_c,0,82,0
1,272825,Note_on_c,0,86,111
1,272926,Note_off_c,0,86,0
1,272942,Note_on_c,0,72,40
1,273037,Note_off_c,0,72,0
1,273070,Note_on_c,0,75,95
1,273165,Note_off_c,0,75,0
1,273182,Note_on_c,0,79,40
1,273277,Note_off_c,0,79,0
1,273310,Note_on_c,0,82,108
1,273405,Note_off_c,0,82,0
1,273421,Note_on_c,0,86,40
1,273516,Note_off_c,0,86,0
1,273550,Note_on_c,0,65,107
1,273644,Note_off_c,0,65,0
1,273661,Note_on_c,0,69,40
1,273756,Note_off_c,0,69,0
1,273789,Note_on_c,0,48,83
1,273884,Note_off_c,0,48,0
1,273901,Note_on_c,0,51,40
1,273995,Note_off_c,0,51,0
1,274029,Note_on_c,0,55,82
1,274124,Note_off_c,0,55,0
1,274140,Note_on_c,0,65,40
1,274235,Note_off_c,0,65,0
1,274268,Note_on_c,0,69,81
1,274363,Note_off_c,0,69,0
1,274380,Note_on_c,0,72,40
1,274480,Note_off_c,0,72,0
1,274508,Note_on_c,0,76,88
1,274603,Note_off_c,0,76,0
1,274620,Note_on_c,0,79,40
1,274720,Note_off_c,0,79,0
1,274748,Note_on_c,0,83,108
1,274842,Note_off_c,0,83,0
1,274859,Note_on_c,0,86,40
1,274959,Note_off_c,0,86,0
1,274987,Note_on_c,0,107,98
1,275082,Note_off_c,0,107,0
1,275104,Note_on_c,0,72,40
1,275199,Note_off_c,0,72,0
1,275227,Note_on_c,0,75,106
1,275322,Note_off_c,0,75,0
1,275344,Note_on_c,0,79,40
1,275439,Note_off_c,0,79,0
1,275467,Note_on_c,0,72,87
1,275561,Note_off_c,0,72,0
1,275584,Note_on_c,0,51,40
1,275678,Note_off_c,0,51,0
1,275706,Note_on_c,0,55,116
1,275801,Note_off_c,0,55,0
1,275823,Note_on_c,0,58,40
1,275918,Note_off_c,0,58,0
1,275946,Note_on_c,0,62,87
1,276046,Note_off_c,0,62,0
1,276063,Note_on_c,0,48,40
1,276158,Note_off_c,0,48,0
1,276185,Note_on_c,0,51,80
1,276286,Note_off_c,0,51,0
1,276302,Note_on_c,0,55,40
1,276397,Note_off_c,0,55,0
1,276425,Note_on_c,0,65,108
1,276525,Note_off_c,0,65,0
1,276542,Note_on_c,0,69,40
1,276637,Note_off_c,0,69,0
1,276670,Note_on_c,0,72,89
1,276765,Note_off_c,0,72,0
1,276782,Note_on_c,0,93,40
1,276876,Note_off_c,0,93,0
1,276910,Note_on_c,0,72,108
1,277005,Note_off_c,0,72,0
1,277021,Note_on_c,0,75,40
1,277116,Note_off_c,0,75,0
1,277150,Note_on_c,0,79,85
1,277244,Note_off_c,0,79,0
1,277261,Note_on_c,0,82,40
1,277356,Note_off_c,0,82,0
1,277389,Note_on_c,0,62,82
1,277484,Note_off_c,0,62,0
1,277501,Note_on_c,0,48,40
1,277595,Note_off_c,0,48,0
1,277629,Note_on_c,0,51,98
1,277723,Note_off_c,0,51,0
1,277740,Note_on_c,0,55,40
1,277835,Note_off_c,0,55,0
1,277868,Note_on_c,0,48,112
1,277963,Note_off_c,0,48,0
1,277980,Note_on_c,0,51,40
1,278080,Note_off_c,0,51,0
1,278108,Note_on_c,0,55,115
1,278203,Note_off_c,0,55,0
1,278219,Note_on_c,0,65,40
1,278320,Note_off_c,0,65,0
1,278348,Note_on_c,0,69,94
1,278442,Note_off_c,0,69,0
1,278459,Note_on_c,0,55,40
1,278559,Note_off_c,0,55,0
1,278587,Note_on_c,0,58,90
1,278682,Note_off_c,0,58,0
1,278704,Note_on_c,0,62,40
1,278799,Note_off_c,0,62,0
1,278827,Note_on_c,0,82,92
1,278922,Note_off_c,0,82,0
1,278944,Note_on_c,0,86,40
1,279039,Note_off_c,0,86,0
1,279066,Note_on_c,0,89,91
1,279161,Note_off_c,0,89,0
1,279184,Note_on_c,0,93,40
1,279278,Note_off_c,0,93,0
1,279306,Note_on_c,0,72,119
1,279401,Note_off_c,0,72,0
1,279423,Note_on_c,0,75,40
1,279518,Note_off_c,0,75,0
1,279546,Note_on_c,0,79,119
1,279646,Note_off_c,0,79,0
1,279663,Note_on_c,0,58,40
1,279758,Note_off_c,0,58,0
1,279785,Note_on_c,0,62,94
1,279886,Note_off_c,0,62,0
1,279902,Note_on_c,0,65,40
1,279997,Note_off_c,0,65,0
1,280025,Note_on_c,0,69,113
1,280125,Note_off_c,0,69,0
1,280142,Note_on_c,0,72,40
1,280237,Note_off_c,0,72,0
1,280270,Note_on_c,0,83,110
1,280365,Note_off_c,0,83,0
1,280382,Note_on_c,0,86,40
1,280476,Note_off_c,0,86,0
1,280510,Note_on_c,0,90,110
1,280605,Note_off_c,0,90,0
1,280621,Note_on_c,0,55,40
1,280716,Note_off_c,0,55,0
1,280749,Note_on_c,0,58,102
1,280844,Note_off_c,0,58,0
1,280861,Note_on_c,0,62,40
1,280956,Note_off_c,0,62,0
1,280989,Note_on_c,0,55,98
1,281084,Note_off_c,0,55,0
1,281101,Note_on_c,0,75,40
1,281195,Note_off_c,0,75,0
1,281229,Note_on_c,0,79,113
1,281323,Note_off_c,0,79,0
1,281340,Note_on_c,0,82,40
1,281435,Note_off_c,0,82,0
1,281468,Note_on_c,0,62,104
1,281563,Note_off_c,0,62,0
1,281580,Note_on_c,0,48,40
1,281680,Note_off_c,0,48,0
1,281708,Note_on_c,0,51,99
1,281803,Note_off_c,0,51,0
1,281819,Note_on_c,0,55,40
1,281920,Note_off_c,0,55,0
1,281948,Note_on_c,0,58,81
1,282042,Note_off_c,0,58,0
1,282059,Note_on_c,0,69,40
1,282159,Note_off_c,0,69,0
1,282187,Note_on_c,0,72,92
1,282282,Note_off_c,0,72,0
1,282304,Note_on_c,0,76,40
1,282399,Note_off_c,0,76,0
1,282427,Note_on_c,0,55,118
1,282522,Note_off_c,0,55,0
1,282544,Note_on_c,0,58,40
1,282639,Note_off_c,0,58,0
1,282666,Note_on_c,0,62,107
1,282761,Note_off_c,0,62,0
1,282783,Note_on_c,0,65,40
1,282878,Note_off_c,0,65,0
1,282906,Note_on_c,0,86,99
1,283001,Note_off_c,0,86,0
1,283023,Note_on_c,0,72,40
1,283118,Note_off_c,0,72,0
1,283146,Note_on_c,0,75,114
1,283246,Note_off_c,0,75,0
1,283263,Note_on_c,0,79,40
1,283357,Note_off_c,0,79,0
1,283385,Note_on_c,0,72,115
1,283486,Note_off_c,0,72,0
1,283502,Note_on_c,0,51,40
1,283597,Note_off_c,0,51,0
1,283625,Note_on_c,0,55,99
1,283725,Note_off_c,0,55,0
1,283742,Note_on_c,0,58,40
1,283837,Note_off_c,0,58,0
1,283870,Note_on_c,0,62,103
1,283965,Note_off_c,0,62,0
1,283982,Note_on_c,0,48,40
1,284076,Note_off_c,0,48,0
1,284110,Note_on_c,0,51,85
1,284204,Note_off_c,0,51,0
1,284221,Note_on_c,0,55,40
1,284316,Note_off_c,0,55,0
1,284349,Note_on_c,0,65,88
1,284444,Note_off_c,0,65,0
1,284461,Note_on_c,0,69,40
1,284556,Note_off_c,0,69,0
1,284589,Note_on_c,0,72,108
1,284684,Note_off_c,0,72,0
1,284700,Note_on_c,0,76,40
1,284795,Note_off_c,0,76,0
1,284829,Note_on_c,0,55,87
1,284923,Note_off_c,0,55,0
1,284940,Note_on_c,0,75,40
1,285035,Note_off_c,0,75,0
1,285068,Note_on_c,0,79,106
1,285163,Note_off_c,0,79,0
1,285180,Note_on_c,0,82,40
1,285280,Note_off_c,0,82,0
1,285308,Note_on_c,0,86,101
1,285403,Note_off_c,0,86,0
1,285419,Note_on_c,0,89,40
1,285520,Note_off_c,0,89,0
1,285548,Note_on_c,0,93,82
1,285642,Note_off_c,0,93,0
1,285659,Note_on_c,0,96,40
1,285759,Note_off_c,0,96,0
1,285787,Note_on_c,0,76,81
1,285882,Note_off_c,0,76,0
1,285899,Note_on_c,0,79,40
1,285999,Note_off_c,0,79,0
1,286027,Note_on_c,0,83,112
1,286122,Note_off_c,0,83,0
1,286144,Note_on_c,0,55,40
1,286238,Note_off_c,0,55,0
1,286266,Note_on_c,0,58,95
1,286361,Note_off_c,0,58,0
1,286383,Note_on_c,0,62,40
1,286478,Note_off_c,0,62,0
1,286506,Note_on_c,0,55,92
1,286601,Note_off_c,0,55,0
1,286623,Note_on_c,0,58,40
1,286718,Note_off_c,0,58,0
1,286746,Note_on_c,0,79,111
1,286846,Note_off_c,0,79,0
1,286863,Note_on_c,0,82,40
1,286957,Note_off_c,0,82,0
1,286985,Note_on_c,0,86,94
1,287085,Note_off_c,0,86,0
1,287102,Note_on_c,0,72,40
1,287197,Note_off_c,0,72,0
1,287225,Note_on_c,0,75,106
1,287325,Note_off_c,0,75,0
1,287342,Note_on_c,0,79,40
1,287437,Note_off_c,0,79,0
1,287470,Note_on_c,0,82,104
1,287565,Note_off_c,0,82,0
1,287582,Note_on_c,0,62,40
1,287676,Note_off_c,0,62,0
1,287710,Note_on_c,0,65,85
1,287804,Note_off_c,0,65,0
1,287821,Note_on_c,0,69,40
1,287916,Note_off_c,0,69,0
1,287949,Note_on_c,0,48,97
1,288044,Note_off_c,0,48,0
1,288061,Note_on_c,0,51,40
1,288155,Note_off_c,0,51,0
1,288189,Note_on_c,0,62,86
1,288284,Note_off_c,0,62,0
1,288300,Note_on_c,0,65,40
1,288395,Note_off_c,0,65,0
1,288429,Note_on_c,0,69,103
1,288523,Note_off_c,0,69,0
1,288540,Note_on_c,0,55,40
1,288635,Note_off_c,0,55,0
1,288668,Note_on_c,0,58,90
1,288763,Note_off_c,0,58,0
1,288780,Note_on_c,0,62,40
1,288880,Note_off_c,0,62,0
1,288908,Note_on_c,0,55,111
1,289003,Note_off_c,0,55,0
1,289019,Note_on_c,0,75,40
1,289119,Note_off_c,0,75,0
1,289147,Note_on_c,0,79,83
1,289242,Note_off_c,0,79,0
1,289259,Note_on_c,0,82,40
1,289359,Note_off_c,0,82,0
1,289387,Note_on_c,0,86,92
1,289482,Note_off_c,0,86,0
1,289499,Note_on_c,0,72,40
1,289599,Note_off_c,0,72,0
1,289627,Note_on_c,0,51,83
1,289721,Note_off_c,0,51,0
1,289744,Note_on_c,0,55,40
1,289838,Note_off_c,0,55,0
1,289866,Note_on_c,0,58,81
1,289961,Note_off_c,0,58,0
1,289983,Note_on_c,0,62,40
1,290078,Note_off_c,0,62,0
1,290106,Note_on_c,0,65,80
1,290201,Note_off_c,0,65,0
1,290223,Note_on_c,0,69,40
1,290318,Note_off_c,0,69,0
1,290346,Note_on_c,0,48,103
1,290446,Note_off_c,0,48,0
1,290463,Note_on_c,0,58,40
1,290557,Note_off_c,0,58,0
1,290585,Note_on_c,0,62,116
1,290685,Note_off_c,0,62,0
1,290702,Note_on_c,0,65,40
1,290797,Note_off_c,0,65,0
1,290825,Note_on_c,0,86,116
1,290925,Note_off_c,0,86,0
1,290942,Note_on_c,0,89,40
1,291036,Note_off_c,0,89,0
1,291070,Note_on_c,0,93,83
1,291165,Note_off_c,0,93,0
1,291181,Note_on_c,0,96,40
1,291276,Note_off_c,0,96,0
1,291310,Note_on_c,0,100,99
1,291404,Note_off_c,0,100,0
1,291421,Note_on_c,0,79,40
1,291516,Note_off_c,0,79,0
1,291549,Note_on_c,0,83,81
1,291644,Note_off_c,0,83,0
1,291661,Note_on_c,0,48,40
1,291755,Note_off_c,0,48,0
1,291789,Note_on_c,0,51,92
1,291884,Note_off_c,0,51,0
1,291900,Note_on_c,0,55,40
1,291995,Note_off_c,0,55,0
1,292029,Note_on_c,0,48,88
1,292123,Note_off_c,0,48,0
1,292140,Note_on_c,0,51,40
1,292235,Note_off_c,0,51,0
1,292268,Note_on_c,0,62,88
1,292363,Note_off_c,0,62,0
1,292380,Note_on_c,0,65,40
1,292480,Note_off_c,0,65,0
1,292508,Note_on_c,0,69,118
1,292602,Note_off_c,0,69,0
1,292619,Note_on_c,0,55,40
1,292719,Note_off_c,0,55,0
1,292747,Note_on_c,0,58,110
1,292842,Note_off_c,0,58,0
1,292859,Note_on_c,0,79,40
1,292959,Note_off_c,0,79,0
1,292987,Note_on_c,0,82,91
1,293082,Note_off_c,0,82,0
1,293098,Note_on_c,0,86,40
1,293199,Note_off_c,0,86,0
1,293227,Note_on_c,0,89,80
1,293321,Note_off_c,0,89,0
1,293344,Note_on_c,0,93,40
1,293438,Note_off_c,0,93,0
1,293466,Note_on_c,0,72,102
1,293561,Note_off_c,0,72,0
1,293583,Note_on_c,0,75,40
1,293678,Note_off_c,0,75,0
1,293706,Note_on_c,0,55,107
1,293801,Note_off_c,0,55,0
1,293823,Note_on_c,0,58,40
1,293917,Note_off_c,0,58,0
1,293945,Note_on_c,0,62,92
1,294046,Note_off_c,0,62,0
1,294062,Note_on_c,0,48,40
1,294157,Note_off_c,0,48,0
1,294185,Note_on_c,0,51,93
1,294285,Note_off_c,0,51,0
1,294302,Note_on_c,0,62,40
1,294398,Note_off_c,0,62,0
1,294426,Note_on_c,0,55,81
1,294526,Note_off_c,0,55,0
1,294543,Note_on_c,0,58,40
1,294638,Note_off_c,0,58,0
1,294665,Note_on_c,0,62,119
1,294766,Note_off_c,0,62,0
1,294782,Note_on_c,0,65,40
1,294877,Note_off_c,0,65,0
1,294910,Note_on_c,0,69,118
1,295005,Note_off_c,0,69,0
1,295022,Note_on_c,0,55,40
1,295117,Note_off_c,0,55,0
1,295150,Note_on_c,0,75,87
1,295245,Note_off_c,0,75,0
1,295262,Note_on_c,0,79,40
1,295356,Note_off_c,0,79,0
1,295390,Note_on_c,0,82,96
1,295485,Note_off_c,0,82,0
1,295501,Note_on_c,0,62,40
1,295596,Note_off_c,0,62,0
1,295629,Note_on_c,0,65,85
1,295724,Note_off_c,0,65,0
1,295741,Note_on_c,0,69,40
1,295836,Note_off_c,0,69,0
1,295869,Note_on_c,0,48,110
1,295964,Note_off_c,0,48,0
1,295980,Note_on_c,0,51,40
1,296081,Note_off_c,0,51,0
1,296109,Note_on_c,0,62,107
1,296203,Note_off_c,0,62,0
1,296220,Note_on_c,0,65,40
1,296320,Note_off_c,0,65,0
1,296348,Note_on_c,0,69,116
1,296443,Note_off_c,0,69,0
1,296460,Note_on_c,0,72,40
1,296560,Note_off_c,0,72,0
1,296588,Note_on_c,0,76,113
1,296683,Note_off_c,0,76,0
1,296699,Note_on_c,0,79,40
1,296800,Note_off_c,0,79,0
1,296828,Note_on_c,0,83,80
1,296922,Note_off_c,0,83,0
1,296945,Note_on_c,0,103,40
1,297039,Note_off_c,0,103,0
1,297067,Note_on_c,0,107,80
1,297162,Note_off_c,0,107,0
1,297184,Note_on_c,0,72,40
1,297279,Note_off_c,0,72,0
1,297307,Note_on_c,0,75,115
1,297401,Note_off_c,0,75,0
1,297424,Note_on_c,0,79,40
1,297518,Note_off_c,0,79,0
1,297546,Note_on_c,0,48,81
1,297647,Note_off_c,0,48,0
1,297663,Note_on_c,0,51,40
1,297758,Note_off_c,0,51,0
1,297786,Note_on_c,0,55,104
1,297886,Note_off_c,0,55,0
1,297903,Note_on_c,0,58,40
1,297998,Note_off_c,0,58,0
1,298026,Note_on_c,0,62,111
1,298126,Note_off_c,0,62,0
1,298143,Note_on_c,0,48,40
1,298237,Note_off_c,0,48,0
1,298265,Note_on_c,0,51,117
1,298366,Note_off_c,0,51,0
1,298382,Note_on_c,0,62,40
1,298477,Note_off_c,0,62,0
1,298510,Note_on_c,0,65,107
1,298605,Note_off_c,0,65,0
1,298622,Note_on_c,0,69,40
1,298717,Note_off_c,0,69,0
1,298750,Note_on_c,0,72,91
1,298845,Note_off_c,0,72,0
1,298862,Note_on_c,0,76,40
1,298956,Note_off_c,0,76,0
1,298990,Note_on_c,0,72,118
1,299084,Note_off_c,0,72,0
1,299101,Note_on_c,0,75,40
1,299196,Note_off_c,0,75,0
1,299229,Note_on_c,0,79,80
1,299324,Note_off_c,0,79,0
1,299341,Note_on_c,0,82,40
1,299435,Note_off_c,0,82,0
1,299469,Note_on_c,0,86,100
1,299564,Note_off_c,0,86,0
1,299580,Note_on_c,0,72,40
1,299681,Note_off_c,0,72,0
1,299709,Note_on_c,0,75,87
1,299803,Note_off_c,0,75,0
1,299820,Note_on_c,0,55,40
1,299920,Note_off_c,0,55,0
1,299948,Note_on_c,0,48,118
1,300043,Note_off_c,0,48,0
1,300060,Note_on_c,0,51,40
1,300160,Note_off_c,0,51,0
1,300188,Note_on_c,0,62,90
1,300283,Note_off_c,0,62,0
1,300299,Note_on_c,0,65,40
1,300400,Note_off_c,0,65,0
1,300427,Note_on_c,0,69,98
1,300522,Note_off_c,0,69,0
1,300545,Note_on_c,0,55,40
1,300639,Note_off_c,0,55,0
1,300667,Note_on_c,0,58,119
1,300762,Note_off_c,0,58,0
1,300784,Note_on_c,0,79,40
1,300879,Note_off_c,0,79,0
1,300907,Note_on_c,0,82,112
1,301001,Note_off_c,0,82,0
1,301024,Note_on_c,0,86,40
1,301118,Note_off_c,0,86,0
1,301146,Note_on_c,0,89,85
1,301247,Note_off_c,0,89,0
1,301263,Note_on_c,0,93,40
1,301358,Note_off_c,0,93,0
1,301386,Note_on_c,0,72,91
1,301486,Note_off_c,0,72,0
1,301503,Note_on_c,0,75,40
1,301598,Note_off_c,0,75,0
1,301626,Note_on_c,0,55,85
1,301726,Note_off_c,0,55,0
1,301743,Note_on_c,0,58,40
1,301837,Note_off_c,0,58,0
1,301865,Note_on_c,0,62,87
1,301965,Note_off_c,0,62,0
1,301982,Note_on_c,0,65,40
1,302077,Note_off_c,0,65,0
1,302110,Note_on_c,0,69,91
1,302205,Note_off_c,0,69,0
1,302222,Note_on_c,0,79,40
1,302317,Note_off_c,0,79,0
1,302350,Note_on_c,0,83,84
1,302445,Note_off_c,0,83,0
1,302462,Note_on_c,0,86,40
1,302556,Note_off_c,0,86,0
1,302590,Note_on_c,0,90,95
1,302684,Note_off_c,0,90,0
1,302701,Note_on_c,0,55,40
1,302796,Note_off_c,0,55,0
1,302829,Note_on_c,0,58,108
1,302924,Note_off_c,0,58,0
1,302941,Note_on_c,0,62,40
1,303035,Note_off_c,0,62,0
1,303069,Note_on_c,0,72,89
1,303164,Note_off_c,0,72,0
1,303180,Note_on_c,0,75,40
1,303281,Note_off_c,0,75,0
1,303309,Note_on_c,0,79,85
1,303403,Note_off_c,0,79,0
1,303420,Note_on_c,0,82,40
1,303520,Note_off_c,0,82,0
1,303548,Note_on_c,0,86,96
1,303643,Note_off_c,0,86,0
1,303660,Note_on_c,0,48,40
1,303760,Note_off_c,0,48,0
1,303788,Note_on_c,0,51,85
1,303882,Note_off_c,0,51,0
1,303899,Note_on_c,0,55,40
1,303999,Note_off_c,0,55,0
1,304027,Note_on_c,0,58,119
1,304122,Note_off_c,0,58,0
1,304144,Note_on_c,0,62,40
1,304239,Note_off_c,0,62,0
1,304267,Note_on_c,0,65,96
1,304362,Note_off_c,0,65,0
1,304384,Note_on_c,0,69,40
1,304479,Note_off_c,0,69,0
1,304507,Note_on_c,0,55,86
1,304601,Note_off_c,0,55,0
1,304624,Note_on_c,0,58,40
1,304718,Note_off_c,0,58,0
1,304746,Note_on_c,0,62,115
1,304846,Note_off_c,0,62,0
1,304863,Note_on_c,0,82,40
1,304958,Note_off_c,0,82,0
1,304986,Note_on_c,0,86,97
1,305086,Note_off_c,0,86,0
1,305103,Note_on_c,0,72,40
1,305197,Note_off_c,0,72,0
1,305225,Note_on_c,0,75,110
1,305326,Note_off_c,0,75,0
1,305342,Note_on_c,0,79,40
1,305437,Note_off_c,0,79,0
1,305465,Note_on_c,0,48,107
1,305565,Note_off_c,0,48,0
1,305582,Note_on_c,0,51,40
1,305677,Note_off_c,0,51,0
1,305710,Note_on_c,0,55,95
1,305805,Note_off_c,0,55,0
1,305822,Note_on_c,0,58,40
1,305917,Note_off_c,0,58,0
1,305950,Note_on_c,0,62,98
1,306045,Note_off_c,0,62,0
1,306061,Note_on_c,0,48,40
1,306156,Note_off_c,0,48,0
1,306190,Note_on_c,0,51,118
1,306284,Note_off_c,0,51,0
1,306301,Note_on_c,0,62,40
1,306396,Note_off_c,0,62,0
1,306429,Note_on_c,0,65,94
1,306524,Note_off_c,0,65,0
1,306541,Note_on_c,0,69,40
1,306635,Note_off_c,0,69,0
1,306669,Note_on_c,0,72,98
1,306764,Note_off_c,0,72,0
1,306780,Note_on_c,0,76,40
1,306881,Note_off_c,0,76,0
1,306908,Note_on_c,0,72,99
1,307003,Note_off_c,0,72,0
1,307020,Note_on_c,0,75,40
1,307120,Note_off_c,0,75,0
1,307148,Note_on_c,0,79,101
1,307243,Note_off_c,0,79,0
1,307260,Note_on_c,0,82,40
1,307360,Note_off_c,0,82,0
1,307388,Note_on_c,0,86,97
1,307482,Note_off_c,0,86,0
1,307499,Note_on_c,0,89,40
1,307599,Note_off_c,0,89,0
1,307627,Note_on_c,0,93,109
1,307722,Note_off_c,0,93,0
1,307744,Note_on_c,0,72,40
1,307839,Note_off_c,0,72,0
1,307867,Note_on_c,0,76,80
1,307962,Note_off_c,0,76,0
1,307984,Note_on_c,0,79,40
1,308079,Note_off_c,0,79,0
1,308107,Note_on_c,0,83,96
1,308201,Note_off_c,0,83,0
1,308224,Note_on_c,0,48,40
1,308318,Note_off_c,0,48,0
1,308346,Note_on_c,0,58,101
1,308446,Note_off_c,0,58,0
1,308463,Note_on_c,0,62,40
1,308558,Note_off_c,0,62,0
1,308586,Note_on_c,0,55,85
1,308686,Note_off_c,0,55,0
1,308703,Note_on_c,0,58,40
1,308797,Note_off_c,0,58,0
1,308825,Note_on_c,0,62,107
1,308926,Note_off_c,0,62,0
1,308942,Note_on_c,0,65,40
1,309037,Note_off_c,0,65,0
1,309065,Note_on_c,0,69,107
1,309165,Note_off_c,0,69,0
1,309182,Note_on_c,0,72,40
1,309277,Note_off_c,0,72,0
1,309310,Note_on_c,0,75,93
1,309405,Note_off_c,0,75,0
1,309422,Note_on_c,0,79,40
1,309516,Note_off_c,0,79,0
1,309550,Note_on_c,0,58,119
1,309645,Note_off_c,0,58,0
1,309661,Note_on_c,0,62,40
1,309756,Note_off_c,0,62,0
1,309789,Note_on_c,0,65,112
1,309884,Note_off_c,0,65,0
1,309901,Note_on_c,0,69,40
1,309996,Note_off_c,0,69,0
1,310029,Note_on_c,0,48,108
1,310124,Note_off_c,0,48,0
1,310141,Note_on_c,0,58,40
1,310235,Note_off_c,0,58,0
1,310269,Note_on_c,0,62,107
1,310363,Note_off_c,0,62,0
1,310380,Note_on_c,0,65,40
1,310475,Note_off_c,0,65,0
1,310508,Note_on_c,0,69,81
1,310603,Note_off_c,0,69,0
1,310620,Note_on_c,0,55,40
1,310720,Note_off_c,0,55,0
1,310748,Note_on_c,0,58,114
1,310843,Note_off_c,0,58,0
1,310860,Note_on_c,0,62,40
1,310960,Note_off_c,0,62,0
1,310988,Note_on_c,0,72,83
1,311082,Note_off_c,0,72,0
1,311099,Note_on_c,0,75,40
1,311199,Note_off_c,0,75,0
1,311227,Note_on_c,0,79,87
1,311322,Note_off_c,0,79,0
1,311344,Note_on_c,0,82,40
1,311439,Note_off_c,0,82,0
1,311467,Note_on_c,0,86,114
1,311562,Note_off_c,0,86,0
1,311584,Note_on_c,0,48,40
1,311679,Note_off_c,0,48,0
1,311706,Note_on_c,0,51,100
1,311801,Note_off_c,0,51,0
1,311823,Note_on_c,0,55,40
1,311918,Note_off_c,0,55,0
1,311946,Note_on_c,0,58,93
1,312046,Note_off_c,0,58,0
1,312063,Note_on_c,0,62,40
1,312158,Note_off_c,0,62,0
1,312186,Note_on_c,0,65,109
1,312286,Note_off_c,0,65,0
1,312303,Note_on_c,0,69,40
1,312397,Note_off_c,0,69,0
1,312425,Note_on_c,0,55,118
1,312526,Note_off_c,0,55,0
1,312542,Note_on_c,0,58,40
1,312637,Note_off_c,0,58,0
1,312665,Note_on_c,0,62,84
1,312765,Note_off_c,0,62,0
1,312782,Note_on_c,0,65,40
1,312877,Note_off_c,0,65,0
1,312910,Note_on_c,0,69,96
1,313005,Note_off_c,0,69,0
1,313022,Note_on_c,0,89,40
1,313116,Note_off_c,0,89,0
1,313150,Note_on_c,0,93,93
1,313244,Note_off_c,0,93,0
1,313261,Note_on_c,0,96,40
1,313356,Note_off_c,0,96,0
1,313389,Note_on_c,0,100,102
1,313484,Note_off_c,0,100,0
1,313501,Note_on_c,0,103,40
1,313596,Note_off_c,0,103,0
1,313629,Note_on_c,0,107,95
1,313724,Note_off_c,0,107,0
1,313740,Note_on_c,0,72,40
1,313835,Note_off_c,0,72,0
1,313869,Note_on_c,0,51,107
1,313963,Note_off_c,0,51,0
1,313980,Note_on_c,0,55,40
1,314075,Note_off_c,0,55,0
1,314108,Note_on_c,0,48,80
1,314203,Note_off_c,0,48,0
1,314220,Note_on_c,0,58,40
1,314320,Note_off_c,0,58,0
1,314348,Note_on_c,0,62,114
1,314443,Note_off_c,0,62,0
1,314459,Note_on_c,0,65,40
1,314560,Note_off_c,0,65,0
1,314587,Note_on_c,0,69,88
1,314682,Note_off_c,0,69,0
1,314699,Note_on_c,0,55,40
1,314799,Note_off_c,0,55,0
1,314827,Note_on_c,0,75,98
1,314922,Note_off_c,0,75,0
1,314944,Note_on_c,0,79,40
1,315039,Note_off_c,0,79,0
1,315067,Note_on_c,0,82,103
1,315161,Note_off_c,0,82,0
1,315184,Note_on_c,0,86,40
1,315279,Note_off_c,0,86,0
1,315306,Note_on_c,0,89,89
1,315401,Note_off_c,0,89,0
1,315423,Note_on_c,0,93,40
1,315518,Note_off_c,0,93,0
1,315546,Note_on_c,0,72,114
1,315646,Note_off_c,0,72,0
1,315663,Note_on_c,0,51,40
1,315758,Note_off_c,0,51,0
1,315786,Note_on_c,0,55,85
1,315886,Note_off_c,0,55,0
1,315903,Note_on_c,0,58,40
1,315997,Note_off_c,0,58,0
1,316025,Note_on_c,0,62,95
1,316126,Note_off_c,0,62,0
1,316142,Note_on_c,0,48,40
1,316237,Note_off_c,0,48,0
1,316265,Note_on_c,0,58,102
1,316365,Note_off_c,0,58,0
1,316382,Note_on_c,0,62,40
1,316477,Note_off_c,0,62,0
1,316510,Note_on_c,0,55,113
1,316605,Note_off_c,0,55,0
1,316622,Note_on_c,0,58,40
1,316716,Note_off_c,0,58,0
1,316750,Note_on_c,0,62,108
1,316844,Note_off_c,0,62,0
1,316861,Note_on_c,0,65,40
1,316956,Note_off_c,0,65,0
1,316989,Note_on_c,0,69,101
1,317084,Note_off_c,0,69,0
1,317101,Note_on_c,0,72,40
1,317195,Note_off_c,0,72,0
1,317229,Note_on_c,0,75,105
1,317324,Note_off_c,0,75,0
1,317340,Note_on_c,0,79,40
1,317435,Note_off_c,0,79,0
1,317469,Note_on_c,0,82,97
1,317563,Note_off_c,0,82,0
1,317580,Note_on_c,0,86,40
1,317675,Note_off_c,0,86,0
1,317708,Note_on_c,0,65,89
1,317803,Note_off_c,0,65,0
1,317820,Note_on_c,0,69,40
1,317920,Note_off_c,0,69,0
1,317948,Note_on_c,0,48,107
1,318043,Note_off_c,0,48,0
1,318059,Note_on_c,0,51,40
1,318160,Note_off_c,0,51,0
1,318187,Note_on_c,0,55,92
1,318282,Note_off_c,0,55,0
1,318299,Note_on_c,0,58,40
1,318399,Note_off_c,0,58,0
1,318427,Note_on_c,0,62,92
1,318522,Note_off_c,0,62,0
1,318544,Note_on_c,0,72,40
1,318639,Note_off_c,0,72,0
1,318667,Note_on_c,0,76,114
1,318761,Note_off_c,0,76,0
1,318784,Note_on_c,0,79,40
1,318878,Note_off_c,0,79,0
1,318906,Note_on_c,0,100,86
1,319001,Note_off_c,0,100,0
1,319023,Note_on_c,0,103,40
1,319118,Note_off_c,0,103,0
1,319146,Note_on_c,0,107,112
1,319241,Note_off_c,0,107,0
1,319263,Note_on_c,0,72,40
1,319358,Note_off_c,0,72,0
1,319386,Note_on_c,0,75,88
1,319486,Note_off_c,0,75,0
1,319503,Note_on_c,0,55,40
1,319597,Note_off_c,0,55,0
1,319625,Note_on_c,0,48,116
1,319725,Note_off_c,0,48,0
1,319742,Note_on_c,0,51,40
1,319837,Note_off_c,0,51,0
1,319865,Note_on_c,0,55,111
1,319965,Note_off_c,0,55,0
1,319982,Note_on_c,0,58,40
1,320077,Note_off_c,0,58,0
1,320110,Note_on_c,0,62,92
1,320205,Note_off_c,0,62,0
1,320221,Note_on_c,0,48,40
1,320316,Note_off_c,0,48,0
1,320350,Note_on_c,0,58,93
1,320444,Note_off_c,0,58,0
1,320461,Note_on_c,0,62,40
1,320556,Note_off_c,0,62,0
1,320589,Note_on_c,0,65,84
1,320684,Note_off_c,0,65,0
1,320701,Note_on_c,0,69,40
1,320795,Note_off_c,0,69,0
1,320829,Note_on_c,0,72,114
1,320924,Note_off_c,0,72,0
1,320940,Note_on_c,0,93,40
1,321035,Note_off_c,0,93,0
1,321069,Note_on_c,0,72,108
1,321163,Note_off_c,0,72,0
1,321180,Note_on_c,0,75,40
1,321275,Note_off_c,0,75,0
1,321308,Note_on_c,0,79,112
1,321403,Note_off_c,0,79,0
1,321419,Note_on_c,0,82,40
1,321520,Note_off_c,0,82,0
1,321548,Note_on_c,0,86,115
1,321642,Note_off_c,0,86,0
1,321659,Note_on_c,0,72,40
1,321759,Note_off_c,0,72,0
1,321788,Note_on_c,0,51,103
1,321882,Note_off_c,0,51,0
1,321899,Note_on_c,0,55,40
1,321999,Note_off_c,0,55,0
1,322027,Note_on_c,0,48,81
1,322122,Note_off_c,0,48,0
1,322144,Note_on_c,0,51,40
1,322239,Note_off_c,0,51,0
1,322267,Note_on_c,0,55,94
1,322361,Note_off_c,0,55,0
1,322384,Note_on_c,0,65,40
1,322478,Note_off_c,0,65,0
1,322506,Note_on_c,0,69,87
1,322601,Note_off_c,0,69,0
1,322623,Note_on_c,0,55,40
1,322718,Note_off_c,0,55,0
1,322746,Note_on_c,0,58,90
1,322841,Note_off_c,0,58,0
1,322863,Note_on_c,0,62,40
1,322957,Note_off_c,0,62,0
1,322986,Note_on_c,0,65,88
1,323086,Note_off_c,0,65,0
1,323103,Note_on_c,0,69,40
1,323197,Note_off_c,0,69,0
1,323225,Note_on_c,0,89,93
1,323325,Note_off_c,0,89,0
1,323342,Note_on_c,0,93,40
1,323437,Note_off_c,0,93,0
1,323465,Note_on_c,0,72,105
1,323565,Note_off_c,0,72,0
1,323582,Note_on_c,0,51,40
1,323676,Note_off_c,0,51,0
1,323710,Note_on_c,0,55,111
1,323805,Note_off_c,0,55,0
1,323821,Note_on_c,0,58,40
1,323916,Note_off_c,0,58,0
1,323949,Note_on_c,0,62,86
1,324044,Note_off_c,0,62,0
1,324061,Note_on_c,0,65,40
1,324156,Note_off_c,0,65,0
1,324189,Note_on_c,0,76,94
1,324284,Note_off_c,0,76,0
1,324301,Note_on_c,0,79,40
1,324395,Note_off_c,0,79,0
1,324429,Note_on_c,0,83,93
1,324524,Note_off_c,0,83,0
1,324540,Note_on_c,0,86,40
1,324635,Note_off_c,0,86,0
1,324668,Note_on_c,0,90,112
1,324763,Note_off_c,0,90,0
1,324780,Note_on_c,0,55,40
1,324875,Note_off_c,0,55,0
1,324908,Note_on_c,0,58,111
1,325003,Note_off_c,0,58,0
1,325020,Note_on_c,0,79,40
1,325120,Note_off_c,0,79,0
1,325148,Note_on_c,0,72,102
1,325242,Note_off_c,0,72,0
1,325259,Note_on_c,0,75,40
1,325359,Note_off_c,0,75,0
1,325387,Note_on_c,0,79,99
1,325482,Note_off_c,0,79,0
1,325499,Note_on_c,0,82,40
1,325599,Note_off_c,0,82,0
1,325627,Note_on_c,0,62,83
1,325722,Note_off_c,0,62,0
1,325744,Note_on_c,0,48,40
1,325839,Note_off_c,0,48,0
1,325867,Note_on_c,0,51,114
1,325961,Note_off_c,0,51,0
1,325984,Note_on_c,0,55,40
1,326078,Note_off_c,0,55,0
1,326106,Note_on_c,0,58,93
1,326201,Note_off_c,0,58,0
1,326223,Note_on_c,0,62,40
1,326318,Note_off_c,0,62,0
1,326346,Note_on_c,0,65,89
1,326441,Note_off_c,0,65,0
1,326463,Note_on_c,0,76,40
1,326558,Note_off_c,0,76,0
1,326585,Note_on_c,0,55,107
1,326686,Note_off_c,0,55,0
1,326702,Note_on_c,0,58,40
1,326797,Note_off_c,0,58,0
1,326825,Note_on_c,0,62,102
1,326925,Note_off_c,0,62,0
1,326942,Note_on_c,0,65,40
1,327037,Note_off_c,0,65,0
1,327065,Note_on_c,0,86,86
1,327165,Note_off_c,0,86,0
1,327182,Note_on_c,0,72,40
1,327276,Note_off_c,0,72,0
1,327310,Note_on_c,0,75,98
1,327405,Note_off_c,0,75,0
1,327421,Note_on_c,0,79,40
1,327516,Note_off_c,0,79,0
1,327549,Note_on_c,0,72,114
1,327644,Note_off_c,0,72,0
1,327661,Note_on_c,0,75,40
1,327756,Note_off_c,0,75,0
1,327789,Note_on_c,0,79,99
1,327884,Note_off_c,0,79,0
1,327901,Note_on_c,0,58,40
1,327995,Note_off_c,0,58,0
1,328029,Note_on_c,0,62,103
1,328123,Note_off_c,0,62,0
1,328140,Note_on_c,0,48,40
1,328235,Note_off_c,0,48,0
1,328268,Note_on_c,0,58,109
1,328363,Note_off_c,0,58,0
1,328380,Note_on_c,0,62,40
1,328475,Note_off_c,0,62,0
1,328508,Note_on_c,0,65,88
1,328603,Note_off_c,0,65,0
1,328619,Note_on_c,0,69,40
1,328720,Note_off_c,0,69,0
1,328748,Note_on_c,0,72,95
1,328842,Note_off_c,0,72,0
1,328859,Note_on_c,0,93,40
1,328960,Note_off_c,0,93,0
1,328988,Note_on_c,0,72,105
1,329083,Note_off_c,0,72,0
1,329100,Note_on_c,0,75,40
1,329200,Note_off_c,0,75,0
1,329228,Note_on_c,0,79,111
1,329323,Note_off_c,0,79,0
1,329345,Note_on_c,0,82,40
1,329440,Note_off_c,0,82,0
1,329468,Note_on_c,0,86,97
1,329562,Note_off_c,0,86,0
1,329584,Note_on_c,0,89,40
1,329679,Note_off_c,0,89,0
1,329707,Note_on_c,0,69,119
1,329802,Note_off_c,0,69,0
1,329824,Note_on_c,0,72,40
1,329919,Note_off_c,0,72,0
1,329947,Note_on_c,0,76,118
1,330041,Note_off_c,0,76,0
1,330064,Note_on_c,0,79,40
1,330158,Note_off_c,0,79,0
1,330186,Note_on_c,0,83,107
1,330287,Note_off_c,0,83,0
1,330303,Note_on_c,0,55,40
1,330398,Note_off_c,0,55,0
1,330426,Note_on_c,0,58,88
1,330526,Note_off_c,0,58,0
1,330543,Note_on_c,0,62,40
1,330638,Note_off_c,0,62,0
1,330666,Note_on_c,0,55,92
1,330766,Note_off_c,0,55,0
1,330783,Note_on_c,0,58,40
1,330877,Note_off_c,0,58,0
1,330911,Note_on_c,0,62,92
1,331006,Note_off_c,0,62,0
1,331022,Note_on_c,0,65,40
1,331117,Note_off_c,0,65,0
1,331150,Note_on_c,0,86,119
1,331245,Note_off_c,0,86,0
1,331262,Note_on_c,0,72,40
1,331357,Note_off_c,0,72,0
1,331390,Note_on_c,0,75,98
1,331485,Note_off_c,0,75,0
1,331501,Note_on_c,0,79,40
1,331596,Note_off_c,0,79,0
1,331630,Note_on_c,0,82,106
1,331724,Note_off_c,0,82,0
1,331741,Note_on_c,0,62,40
1,331836,Note_off_c,0,62,0
1,331869,Note_on_c,0,65,92
1,331964,Note_off_c,0,65,0
1,331981,Note_on_c,0,69,40
1,332075,Note_off_c,0,69,0
1,332109,Note_on_c,0,48,91
1,332204,Note_off_c,0,48,0
1,332220,Note_on_c,0,51,40
1,332321,Note_off_c,0,51,0
1,332348,Note_on_c,0,55,98
1,332443,Note_off_c,0,55,0
1,332460,Note_on_c,0,58,40
1,332560,Note_off_c,0,58,0
1,332588,Note_on_c,0,69,114
1,332683,Note_off_c,0,69,0
1,332700,Note_on_c,0,55,40
1,332800,Note_off_c,0,55,0
1,332828,Note_on_c,0,58,110
1,332923,Note_off_c,0,58,0
1,332945,Note_on_c,0,79,40
1,333039,Note_off_c,0,79,0
1,333067,Note_on_c,0,72,101
1,333162,Note_off_c,0,72,0
1,333185,Note_on_c,0,75,40
1,333279,Note_off_c,0,75,0
1,333307,Note_on_c,0,79,109
1,333402,Note_off_c,0,79,0
1,333424,Note_on_c,0,82,40
1,333519,Note_off_c,0,82,0
1,333547,Note_on_c,0,62,84
1,333641,Note_off_c,0,62,0
1,333664,Note_on_c,0,48,40
1,333758,Note_off_c,0,48,0
1,333786,Note_on_c,0,51,111
1,333886,Note_off_c,0,51,0
1,333903,Note_on_c,0,55,40
1,333998,Note_off_c,0,55,0
1,334026,Note_on_c,0,58,97
1,334126,Note_off_c,0,58,0
1,334143,Note_on_c,0,62,40
1,334238,Note_off_c,0,62,0
1,334265,Note_on_c,0,65,106
1,334366,Note_off_c,0,65,0
1,334383,Note_on_c,0,76,40
1,334477,Note_off_c,0,76,0
1,334511,Note_on_c,0,55,117
1,334605,Note_off_c,0,55,0
1,334622,Note_on_c,0,58,40
1,334717,Note_off_c,0,58,0
1,334750,Note_on_c,0,62,116
1,334845,Note_off_c,0,62,0
1,334862,Note_on_c,0,65,40
1,334957,Note_off_c,0,65,0
1,334990,Note_on_c,0,86,100
1,335085,Note_off_c,0,86,0
1,335101,Note_on_c,0,89,40
1,335196,Note_off_c,0,89,0
1,335230,Note_on_c,0,93,97
1,335324,Note_off_c,0,93,0
1,335341,Note_on_c,0,96,40
1,335436,Note_off_c,0,96,0
1,335469,Note_on_c,0,100,99
1,335564,Note_off_c,0,100,0
1,335581,Note_on_c,0,103,40
1,335675,Note_off_c,0,103,0
1,335709,Note_on_c,0,107,90
1,335804,Note_off_c,0,107,0
1,335820,Note_on_c,0,48,40
1,335921,Note_off_c,0,48,0
1,335948,Note_on_c,0,51,105
1,336043,Note_off_c,0,51,0
1,336060,Note_on_c,0,55,40
1,336160,Note_off_c,0,55,0
1,336188,Note_on_c,0,48,115
1,336283,Note_off_c,0,48,0
1,336299,Note_on_c,0,51,40
1,336400,Note_off_c,0,51,0
1,336428,Note_on_c,0,62,115
1,336522,Note_off_c,0,62,0
1,336545,Note_on_c,0,65,40
1,336639,Note_off_c,0,65,0
1,336667,Note_on_c,0,69,96
1,336762,Note_off_c,0,69,0
1,336784,Note_on_c,0,55,40
1,336879,Note_off_c,0,55,0
1,336907,Note_on_c,0,58,92
1,337002,Note_off_c,0,58,0
1,337024,Note_on_c,0,62,40
1,337119,Note_off_c,0,62,0
1,337147,Note_on_c,0,65,115
1,337241,Note_off_c,0,65,0
1,337264,Note_on_c,0,86,40
1,337358,Note_off_c,0,86,0
1,337386,Note_on_c,0,89,95
1,337486,Note_off_c,0,89,0
1,337503,Note_on_c,0,93,40
1,337598,Note_off_c,0,93,0
1,337626,Note_on_c,0,48,80
1,337726,Note_off_c,0,48,0
1,337743,Note_on_c,0,51,40
1,337838,Note_off_c,0,51,0
1,337865,Note_on_c,0,55,83
1,337966,Note_off_c,0,55,0
1,337982,Note_on_c,0,58,40
1,338077,Note_off_c,0,58,0
1,338111,Note_on_c,0,62,107
1,338205,Note_off_c,0,62,0
1,338222,Note_on_c,0,55,40
1,338317,Note_off_c,0,55,0
1,338350,Note_on_c,0,58,92
1,338445,Note_off_c,0,58,0
1,338462,Note_on_c,0,62,40
1,338556,Note_off_c,0,62,0
1,338590,Note_on_c,0,55,83
1,338685,Note_off_c,0,55,0
1,338701,Note_on_c,0,58,40
1,338796,Note_off_c,0,58,0
1,338829,Note_on_c,0,62,86
1,338924,Note_off_c,0,62,0
1,338941,Note_on_c,0,65,40
1,339036,Note_off_c,0,65,0
1,339069,Note_on_c,0,86,119
1,339164,Note_off_c,0,86,0
1,339181,Note_on_c,0,72,40
1,339275,Note_off_c,0,72,0
1,339309,Note_on_c,0,75,96
1,339403,Note_off_c,0,75,0
1,339420,Note_on_c,0,79,40
1,339520,Note_off_c,0,79,0
1,339548,Note_on_c,0,82,97
1,339643,Note_off_c,0,82,0
1,339660,Note_on_c,0,62,40
1,339760,Note_off_c,0,62,0
1,339788,Note_on_c,0,65,98
1,339883,Note_off_c,0,65,0
1,339899,Note_on_c,0,69,40
1,340000,Note_off_c,0,69,0
1,340028,Note_on_c,0,48,91
1,340122,Note_off_c,0,48,0
1,340145,Note_on_c,0,51,40
1,340239,Note_off_c,0,51,0
1,340267,Note_on_c,0,55,88
1,340362,Note_off_c,0,55,0
1,340384,Note_on_c,0,58,40
1,340479,Note_off_c,0,58,0
1,340507,Note_on_c,0,69,119
1,340602,Note_off_c,0,69,0
1,340624,Note_on_c,0,72,40
1,340719,Note_off_c,0,72,0
1,340747,Note_on_c,0,76,80
1,340841,Note_off_c,0,76,0
1,340864,Note_on_c,0,79,40
1,340958,Note_off_c,0,79,0
1,340986,Note_on_c,0,83,92
1,341086,Note_off_c,0,83,0
1,341103,Note_on_c,0,103,40
1,341198,Note_off_c,0,103,0
1,341226,Note_on_c,0,107,111
1,341326,Note_off_c,0,107,0
1,341343,Note_on_c,0,72,40
1,341437,Note_off_c,0,72,0
1,341465,Note_on_c,0,75,98
1,341566,Note_off_c,0,75,0
1,341582,Note_on_c,0,79,40
1,341677,Note_off_c,0,79,0
1,341711,Note_on_c,0,72,119
1,341805,Note_off_c,0,72,0
1,341822,Note_on_c,0,75,40
1,341917,Note_off_c,0,75,0
1,341950,Note_on_c,0,55,109
1,342045,Note_off_c,0,55,0
1,342062,Note_on_c,0,58,40
1,342156,Note_off_c,0,58,0
1,342190,Note_on_c,0,62,95
1,342285,Note_off_c,0,62,0
1,342301,Note_on_c,0,55,40
1,342396,Note_off_c,0,55,0
1,342429,Note_on_c,0,58,100
1,342524,Note_off_c,0,58,0
1,342541,Note_on_c,0,62,40
1,342636,Note_off_c,0,62,0
1,342669,Note_on_c,0,65,86
1,342764,Note_off_c,0,65,0
1,342781,Note_on_c,0,69,40
1,342875,Note_off_c,0,69,0
1,342909,Note_on_c,0,89,114
1,343003,Note_off_c,0,89,0
1,343020,Note_on_c,0,93,40
1,343120,Note_off_c,0,93,0
1,343148,Note_on_c,0,72,110
1,343243,Note_off_c,0,72,0
1,343260,Note_on_c,0,75,40
1,343360,Note_off_c,0,75,0
1,343388,Note_on_c,0,79,111
1,343483,Note_off_c,0,79,0
1,343499,Note_on_c,0,82,40
1,343600,Note_off_c,0,82,0
1,343628,Note_on_c,0,86,110
1,343722,Note_off_c,0,86,0
1,343745,Note_on_c,0,48,40
1,343839,Note_off_c,0,48,0
1,343867,Note_on_c,0,51,106
1,343962,Note_off_c,0,51,0
1,343984,Note_on_c,0,55,40
1,344079,Note_off_c,0,55,0
1,344107,Note_on_c,0,48,88
1,344202,Note_off_c,0,48,0
1,344224,Note_on_c,0,51,40
1,344319,Note_off_c,0,51,0
1,344346,Note_on_c,0,62,83
1,344441,Note_off_c,0,62,0
1,344463,Note_on_c,0,65,40
1,344558,Note_off_c,0,65,0
1,344586,Note_on_c,0,69,101
1,344686,Note_off_c,0,69,0
1,344703,Note_on_c,0,55,40
1,344798,Note_off_c,0,55,0
1,344826,Note_on_c,0,58,104
1,344926,Note_off_c,0,58,0
1,344943,Note_on_c,0,62,40
1,345037,Note_off_c,0,62,0
1,345065,Note_on_c,0,65,83
1,345165,Note_off_c,0,65,0
1,345182,Note_on_c,0,86,40
1,345277,Note_off_c,0,86,0
1,345310,Note_on_c,0,89,105
1,345405,Note_off_c,0,89,0
1,345422,Note_on_c,0,93,40
1,345517,Note_off_c,0,93,0
1,345550,Note_on_c,0,72,92
1,345645,Note_off_c,0,72,0
1,345662,Note_on_c,0,75,40
1,345756,Note_off_c,0,75,0
1,345790,Note_on_c,0,55,96
1,345885,Note_off_c,0,55,0
1,345901,Note_on_c,0,58,40
1,345996,Note_off_c,0,58,0
1,346029,Note_on_c,0,62,109
1,346124,Note_off_c,0,62,0
1,346141,Note_on_c,0,65,40
1,346235,Note_off_c,0,65,0
1,346269,Note_on_c,0,69,99
1,346364,Note_off_c,0,69,0
1,346380,Note_on_c,0,72,40
1,346475,Note_off_c,0,72,0
1,346509,Note_on_c,0,76,96
1,346603,Note_off_c,0,76,0
1,346620,Note_on_c,0,86,40
1,346720,Note_off_c,0,86,0
1,346748,Note_on_c,0,90,85
1,346843,Note_off_c,0,90,0
1,346860,Note_on_c,0,55,40
1,346960,Note_off_c,0,55,0
1,346988,Note_on_c,0,75,117
1,347083,Note_off_c,0,75,0
1,347099,Note_on_c,0,79,40
1,347200,Note_off_c,0,79,0
1,347227,Note_on_c,0,72,114
1,347322,Note_off_c,0,72,0
1,347339,Note_on_c,0,75,40
1,347439,Note_off_c,0,75,0
1,347467,Note_on_c,0,79,96
1,347562,Note_off_c,0,79,0
1,347584,Note_on_c,0,58,40
1,347679,Note_off_c,0,58,0
1,347707,Note_on_c,0,62,85
1,347801,Note_off_c,0,62,0
1,347824,Note_on_c,0,48,40
1,347918,Note_off_c,0,48,0
1,347946,Note_on_c,0,51,114
1,348041,Note_off_c,0,51,0
1,348063,Note_on_c,0,55,40
1,348158,Note_off_c,0,55,0
1,348186,Note_on_c,0,58,97
1,348286,Note_off_c,0,58,0
1,348303,Note_on_c,0,62,40
1,348398,Note_off_c,0,62,0
1,348426,Note_on_c,0,72,98
1,348526,Note_off_c,0,72,0
1,348543,Note_on_c,0,76,40
1,348637,Note_off_c,0,76,0
1,348665,Note_on_c,0,55,105
1,348765,Note_off_c,0,55,0
1,348782,Note_on_c,0,58,40
1,348877,Note_off_c,0,58,0
1,348910,Note_on_c,0,62,116
1,349005,Note_off_c,0,62,0
1,349022,Note_on_c,0,82,40
1,349117,Note_off_c,0,82,0
1,349150,Note_on_c,0,86,97
1,349245,Note_off_c,0,86,0
1,349261,Note_on_c,0,72,40
1,349356,Note_off_c,0,72,0
1,349390,Note_on_c,0,75,94
1,349484,Note_off_c,0,75,0
1,349501,Note_on_c,0,79,40
1,349596,Note_off_c,0,79,0
1,349629,Note_on_c,0,72,91
1,349724,Note_off_c,0,72,0
1,349741,Note_on_c,0,75,40
1,349835,Note_off_c,0,75,0
1,349869,Note_on_c,0,55,117
1,349964,Note_off_c,0,55,0
1,349980,Note_on_c,0,58,40
1,350075,Note_off_c,0,58,0
1,350109,Note_on_c,0,62,101
1,350203,Note_off_c,0,62,0
1,350220,Note_on_c,0,48,40
1,350320,Note_off_c,0,48,0
1,350348,Note_on_c,0,51,86
1,350443,Note_off_c,0,51,0
1,350460,Note_on_c,0,62,40
1,350560,Note_off_c,0,62,0
1,350588,Note_on_c,0,65,108
1,350682,Note_off_c,0,65,0
1,350699,Note_on_c,0,69,40
1,350799,Note_off_c,0,69,0
1,350827,Note_on_c,0,72,93
1,350922,Note_off_c,0,72,0
1,350939,Note_on_c,0,76,40
1,351039,Note_off_c,0,76,0
1,351067,Note_on_c,0,55,116
1,351162,Note_off_c,0,55,0
1,351184,Note_on_c,0,58,40
1,351279,Note_off_c,0,58,0
1,351307,Note_on_c,0,79,94
1,351401,Note_off_c,0,79,0
1,351424,Note_on_c,0,82,40
1,351518,Note_off_c,0,82,0
1,351546,Note_on_c,0,86,102
1,351641,Note_off_c,0,86,0
1,351663,Note_on_c,0,65,40
1,351758,Note_off_c,0,65,0
1,351786,Note_on_c,0,69,80
1,351886,Note_off_c,0,69,0
1,351903,Note_on_c,0,72,40
1,351998,Note_off_c,0,72,0
1,352026,Note_on_c,0,76,116
1,352126,Note_off_c,0,76,0
1,352143,Note_on_c,0,79,40
1,352237,Note_off_c,0,79,0
1,352265,Note_on_c,0,90,87
1,352365,Note_off_c,0,90,0
1,352382,Note_on_c,0,55,40
1,352477,Note_off_c,0,55,0
1,352510,Note_on_c,0,58,84
1,352605,Note_off_c,0,58,0
1,352622,Note_on_c,0,62,40
1,352717,Note_off_c,0,62,0
1,352750,Note_on_c,0,55,102
1,352845,Note_off_c,0,55,0
1,352861,Note_on_c,0,58,40
1,352956,Note_off_c,0,58,0
1,352990,Note_on_c,0,62,99
1,353084,Note_off_c,0,62,0
1,353101,Note_on_c,0,82,40
1,353196,Note_off_c,0,82,0
1,353229,Note_on_c,0,86,100
1,353324,Note_off_c,0,86,0
1,353341,Note_on_c,0,72,40
1,353435,Note_off_c,0,72,0
1,353469,Note_on_c,0,75,91
1,353563,Note_off_c,0,75,0
1,353580,Note_on_c,0,79,40
1,353675,Note_off_c,0,79,0
1,353708,Note_on_c,0,58,119
1,353803,Note_off_c,0,58,0
1,353820,Note_on_c,0,62,40
1,353920,Note_off_c,0,62,0
1,353948,Note_on_c,0,65,117
1,354043,Note_off_c,0,65,0
1,354059,Note_on_c,0,69,40
1,354160,Note_off_c,0,69,0
1,354188,Note_on_c,0,48,96
1,354282,Note_off_c,0,48,0
1,354299,Note_on_c,0,51,40
1,354399,Note_off_c,0,51,0
1,354427,Note_on_c,0,55,116
1,354522,Note_off_c,0,55,0
1,354539,Note_on_c,0,65,40
1,354639,Note_off_c,0,65,0
1,354667,Note_on_c,0,69,111
1,354762,Note_off_c,0,69,0
1,354784,Note_on_c,0,55,40
1,354879,Note_off_c,0,55,0
1,354907,Note_on_c,0,58,113
1,355001,Note_off_c,0,58,0
1,355024,Note_on_c,0,62,40
1,355118,Note_off_c,0,62,0
1,355146,Note_on_c,0,72,81
1,355241,Note_off_c,0,72,0
1,355263,Note_on_c,0,75,40
1,355358,Note_off_c,0,75,0
1,355386,Note_on_c,0,79,105
1,355486,Note_off_c,0,79,0
1,355503,Note_on_c,0,82,40
1,355597,Note_off_c,0,82,0
1,355625,Note_on_c,0,86,91
1,355726,Note_off_c,0,86,0
1,355742,Note_on_c,0,72,40
1,355837,Note_off_c,0,72,0
1,355865,Note_on_c,0,75,100
1,355965,Note_off_c,0,75,0
1,355982,Note_on_c,0,55,40
1,356077,Note_off_c,0,55,0
1,356105,Note_on_c,0,58,91
1,356205,Note_off_c,0,58,0
1,356222,Note_on_c,0,62,40
1,356316,Note_off_c,0,62,0
1,356350,Note_on_c,0,72,87
1,356445,Note_off_c,0,72,0
1,356461,Note_on_c,0,76,40
1,356556,Note_off_c,0,76,0
1,356590,Note_on_c,0,55,117
1,356684,Note_off_c,0,55,0
1,356701,Note_on_c,0,58,40
1,356796,Note_off_c,0,58,0
1,356829,Note_on_c,0,62,106
1,356924,Note_off_c,0,62,0
1,356941,Note_on_c,0,82,40
1,357035,Note_off_c,0,82,0
1,357069,Note_on_c,0,86,98
1,357163,Note_off_c,0,86,0
1,357180,Note_on_c,0,89,40
1,357275,Note_off_c,0,89,0
1,357308,Note_on_c,0,93,115
1,357403,Note_off_c,0,93,0
1,357420,Note_on_c,0,96,40
1,357520,Note_off_c,0,96,0
1,357548,Note_on_c,0,100,87
1,357643,Note_off_c,0,100,0
1,357660,Note_on_c,0,103,40
1,357760,Note_off_c,0,103,0
1,357788,Note_on_c,0,83,104
1,357882,Note_off_c,0,83,0
1,357899,Note_on_c,0,48,40
1,357999,Note_off_c,0,48,0
1,358027,Note_on_c,0,51,103
1,358122,Note_off_c,0,51,0
1,358139,Note_on_c,0,55,40
1,358239,Note_off_c,0,55,0
1,358267,Note_on_c,0,48,101
1,358362,Note_off_c,0,48,0
1,358384,Note_on_c,0,58,40
1,358479,Note_off_c,0,58,0
1,358506,Note_on_c,0,62,101
1,358601,Note_off_c,0,62,0
1,358624,Note_on_c,0,65,40
1,358718,Note_off_c,0,65,0
1,358746,Note_on_c,0,69,118
1,358841,Note_off_c,0,69,0
1,358863,Note_on_c,0,55,40
1,358958,Note_off_c,0,55,0
1,358986,Note_on_c,0,58,83
1,359086,Note_off_c,0,58,0
1,359103,Note_on_c,0,62,40
1,359197,Note_off_c,0,62,0
1,359225,Note_on_c,0,82,101
1,359326,Note_off_c,0,82,0
1,359342,Note_on_c,0,86,40
1,359437,Note_off_c,0,86,0
1,359465,Note_on_c,0,89,115
1,359565,Note_off_c,0,89,0
1,359582,Note_on_c,0,93,40
1,359677,Note_off_c,0,93,0
1,359705,Note_on_c,0,72,90
1,359805,Note_off_c,0,72,0
1,359822,Note_on_c,0,51,40
1,359916,Note_off_c,0,51,0
1,359950,Note_on_c,0,55,105
1,360044,Note_off_c,0,55,0
1,360061,Note_on_c,0,58,40
1,360156,Note_off_c,0,58,0
1,360189,Note_on_c,0,62,97
1,360284,Note_off_c,0,62,0
1,360301,Note_on_c,0,48,40
1,360396,Note_off_c,0,48,0
1,360429,Note_on_c,0,51,110
1,360524,Note_off_c,0,51,0
1,360541,Note_on_c,0,55,40
1,360635,Note_off_c,0,55,0
1,360669,Note_on_c,0,55,86
1,360763,Note_off_c,0,55,0
1,360780,Note_on_c,0,58,40
1,360875,Note_off_c,0,58,0
1,360908,Note_on_c,0,62,108
1,361003,Note_off_c,0,62,0
1,361020,Note_on_c,0,82,40
1,361120,Note_off_c,0,82,0
1,361148,Note_on_c,0,86,109
1,361243,Note_off_c,0,86,0
1,361259,Note_on_c,0,72,40
1,361360,Note_off_c,0,72,0
1,361388,Note_on_c,0,75,83
1,361482,Note_off_c,0,75,0
1,361499,Note_on_c,0,79,40
1,361599,Note_off_c,0,79,0
1,361627,Note_on_c,0,58,85
1,361722,Note_off_c,0,58,0
1,361739,Note_on_c,0,62,40
1,361839,Note_off_c,0,62,0
1,361867,Note_on_c,0,65,105
1,361961,Note_off_c,0,65,0
1,361984,Note_on_c,0,69,40
1,362079,Note_off_c,0,69,0
1,362106,Note_on_c,0,48,115
1,362201,Note_off_c,0,48,0
1,362223,Note_on_c,0,51,40
1,362318,Note_off_c,0,51,0
1,362346,Note_on_c,0,55,118
1,362441,Note_off_c,0,55,0
1,362463,Note_on_c,0,65,40
1,362558,Note_off_c,0,65,0
1,362586,Note_on_c,0,69,107
1,362686,Note_off_c,0,69,0
1,362703,Note_on_c,0,72,40
1,362797,Note_off_c,0,72,0
1,362825,Note_on_c,0,76,101
1,362926,Note_off_c,0,76,0
1,362942,Note_on_c,0,79,40
1,363037,Note_off_c,0,79,0
1,363065,Note_on_c,0,100,89
1,363165,Note_off_c,0,100,0
1,363182,Note_on_c,0,103,40
1,363277,Note_off_c,0,103,0
1,363304,Note_on_c,0,107,88
1,363405,Note_off_c,0,107,0
1,363422,Note_on_c,0,72,40
1,363516,Note_off_c,0,72,0
1,363550,Note_on_c,0,75,113
1,363644,Note_off_c,0,75,0
1,363661,Note_on_c,0,79,40
1,363756,Note_off_c,0,79,0
1,363789,Note_on_c,0,72,97
1,363884,Note_off_c,0,72,0
1,363901,Note_on_c,0,51,40
1,363995,Note_off_c,0,51,0
1,364029,Note_on_c,0,55,86
1,364124,Note_off_c,0,55,0
1,364141,Note_on_c,0,58,40
1,364235,Note_off_c,0,58,0
1,364269,Note_on_c,0,62,99
1,364363,Note_off_c,0,62,0
1,364380,Note_on_c,0,48,40
1,364475,Note_off_c,0,48,0
1,364508,Note_on_c,0,58,115
1,364603,Note_off_c,0,58,0
1,364620,Note_on_c,0,62,40
1,364720,Note_off_c,0,62,0
1,364748,Note_on_c,0,65,81
1,364843,Note_off_c,0,65,0
1,364859,Note_on_c,0,69,40
1,364960,Note_off_c,0,69,0
1,364987,Note_on_c,0,72,107
1,365082,Note_off_c,0,72,0
1,365099,Note_on_c,0,76,40
1,365200,Note_off_c,0,76,0
1,365228,Note_on_c,0,55,99
1,365323,Note_off_c,0,55,0
1,365340,Note_on_c,0,75,40
1,365440,Note_off_c,0,75,0
1,365468,Note_on_c,0,79,105
1,365562,Note_off_c,0,79,0
1,365585,Note_on_c,0,82,40
1,365679,Note_off_c,0,82,0
1,365707,Note_on_c,0,62,89
1,365802,Note_off_c,0,62,0
1,365824,Note_on_c,0,48,40
1,365919,Note_off_c,0,48,0
1,365947,Note_on_c,0,51,81
1,366042,Note_off_c,0,51,0
1,366064,Note_on_c,0,55,40
1,366159,Note_off_c,0,55,0
1,366187,Note_on_c,0,48,104
1,366287,Note_off_c,0,48,0
1,366304,Note_on_c,0,58,40
1,366398,Note_off_c,0,58,0
1,366426,Note_on_c,0,62,92
1,366526,Note_off_c,0,62,0
1,366543,Note_on_c,0,65,40
1,366638,Note_off_c,0,65,0
1,366666,Note_on_c,0,69,103
1,366766,Note_off_c,0,69,0
1,366783,Note_on_c,0,55,40
1,366878,Note_off_c,0,55,0
1,366905,Note_on_c,0,58,99
1,367006,Note_off_c,0,58,0
1,367022,Note_on_c,0,62,40
1,367117,Note_off_c,0,62,0
1,367151,Note_on_c,0,82,103
1,367245,Note_off_c,0,82,0
1,367262,Note_on_c,0,86,40
1,367357,Note_off_c,0,86,0
1,367390,Note_on_c,0,89,89
1,367485,Note_off_c,0,89,0
1,367502,Note_on_c,0,93,40
1,367597,Note_off_c,0,93,0
1,367630,Note_on_c,0,72,116
1,367725,Note_off_c,0,72,0
1,367741,Note_on_c,0,51,40
1,367836,Note_off_c,0,51,0
1,367869,Note_on_c,0,55,94
1,367964,Note_off_c,0,55,0
1,367981,Note_on_c,0,58,40
1,368076,Note_off_c,0,58,0
1,368109,Note_on_c,0,62,95
1,368204,Note_off_c,0,62,0
1,368221,Note_on_c,0,65,40
1,368321,Note_off_c,0,65,0
1,368349,Note_on_c,0,69,105
1,368443,Note_off_c,0,69,0
1,368460,Note_on_c,0,72,40
1,368560,Note_off_c,0,72,0
1,368588,Note_on_c,0,83,83
1,368683,Note_off_c,0,83,0
1,368700,Note_on_c,0,86,40
1,368800,Note_off_c,0,86,0
1,368828,Note_on_c,0,90,99
1,368923,Note_off_c,0,90,0
1,368939,Note_on_c,0,55,40
1,369040,Note_off_c,0,55,0
1,369068,Note_on_c,0,58,110
1,369162,Note_off_c,0,58,0
1,369185,Note_on_c,0,79,40
1,369279,Note_off_c,0,79,0
1,369307,Note_on_c,0,72,109
1,369402,Note_off_c,0,72,0
1,369424,Note_on_c,0,75,40
1,369519,Note_off_c,0,75,0
1,369547,Note_on_c,0,79,95
1,369642,Note_off_c,0,79,0
1,369664,Note_on_c,0,82,40
1,369759,Note_off_c,0,82,0
1,369787,Note_on_c,0,86,109
1,369887,Note_off_c,0,86,0
1,369903,Note_on_c,0,72,40
1,369998,Note_off_c,0,72,0
1,370026,Note_on_c,0,51,97
1,370126,Note_off_c,0,51,0
1,370143,Note_on_c,0,55,40
1,370238,Note_off_c,0,55,0
1,370266,Note_on_c,0,58,117
1,370366,Note_off_c,0,58,0
1,370383,Note_on_c,0,69,40
1,370477,Note_off_c,0,69,0
1,370505,Note_on_c,0,72,119
1,370606,Note_off_c,0,72,0
1,370622,Note_on_c,0,76,40
1,370717,Note_off_c,0,76,0
1,370751,Note_on_c,0,55,105
1,370845,Note_off_c,0,55,0
1,370862,Note_on_c,0,58,40
1,370957,Note_off_c,0,58,0
1,370990,Note_on_c,0,79,110
1,371085,Note_off_c,0,79,0
1,371102,Note_on_c,0,82,40
1,371196,Note_off_c,0,82,0
1,371230,Note_on_c,0,86,96
1,371324,Note_off_c,0,86,0
1,371341,Note_on_c,0,72,40
1,371436,Note_off_c,0,72,0
1,371469,Note_on_c,0,75,111
1,371564,Note_off_c,0,75,0
1,371581,Note_on_c,0,79,40
1,371676,Note_off_c,0,79,0
1,371709,Note_on_c,0,72,89
1,371804,Note_off_c,0,72,0
1,371820,Note_on_c,0,51,40
1,371915,Note_off_c,0,51,0
1,371949,Note_on_c,0,55,91
1,372043,Note_off_c,0,55,0
1,372060,Note_on_c,0,58,40
1,372160,Note_off_c,0,58,0
1,372188,Note_on_c,0,62,113
1,372283,Note_off_c,0,62,0
1,372300,Note_on_c,0,48,40
1,372400,Note_off_c,0,48,0
1,372428,Note_on_c,0,58,117
1,372523,Note_off_c,0,58,0
1,372539,Note_on_c,0,62,40
1,372640,Note_off_c,0,62,0
1,372668,Note_on_c,0,65,111
1,372762,Note_off_c,0,65,0
1,372785,Note_on_c,0,69,40
1,372879,Note_off_c,0,69,0
1,372907,Note_on_c,0,72,99
1,373002,Note_off_c,0,72,0
1,373024,Note_on_c,0,76,40
1,373119,Note_off_c,0,76,0
1,373147,Note_on_c,0,55,86
1,373241,Note_off_c,0,55,0
1,373264,Note_on_c,0,75,40
1,373359,Note_off_c,0,75,0
1,373386,Note_on_c,0,79,113
1,373487,Note_off_c,0,79,0
1,373503,Note_on_c,0,82,40
1,373598,Note_off_c,0,82,0
1,373626,Note_on_c,0,86,83
1,373726,Note_off_c,0,86,0
1,373743,Note_on_c,0,89,40
1,373838,Note_off_c,0,89,0
1,373866,Note_on_c,0,69,99
1,373966,Note_off_c,0,69,0
1,373983,Note_on_c,0,72,40
1,374077,Note_off_c,0,72,0
1,374105,Note_on_c,0,76,96
1,374205,Note_off_c,0,76,0
1,374222,Note_on_c,0,79,40
1,374317,Note_off_c,0,79,0
1,374350,Note_on_c,0,83,102
1,374445,Note_off_c,0,83,0
1,374462,Note_on_c,0,48,40
1,374557,Note_off_c,0,48,0
1,374590,Note_on_c,0,51,82
1,374685,Note_off_c,0,51,0
1,374702,Note_on_c,0,62,40
1,374796,Note_off_c,0,62,0
1,374830,Note_on_c,0,55,105
1,374924,Note_off_c,0,55,0
1,374941,Note_on_c,0,58,40
1,375036,Note_off_c,0,58,0
1,375069,Note_on_c,0,79,99
1,375164,Note_off_c,0,79,0
1,375181,Note_on_c,0,82,40
1,375276,Note_off_c,0,82,0
1,375309,Note_on_c,0,86,96
1,375404,Note_off_c,0,86,0
1,375420,Note_on_c,0,72,40
1,375515,Note_off_c,0,72,0
1,375549,Note_on_c,0,75,80
1,375643,Note_off_c,0,75,0
1,375660,Note_on_c,0,55,40
1,375760,Note_off_c,0,55,0
1,375788,Note_on_c,0,58,84
1,375883,Note_off_c,0,58,0
1,375900,Note_on_c,0,62,40
1,376000,Note_off_c,0,62,0
1,376028,Note_on_c,0,65,100
1,376122,Note_off_c,0,65,0
1,376139,Note_on_c,0,69,40
1,376240,Note_off_c,0,69,0
1,376267,Note_on_c,0,48,100
1,376362,Note_off_c,0,48,0
1,376385,Note_on_c,0,51,40
1,376479,Note_off_c,0,51,0
1,376507,Note_on_c,0,62,115
1,376602,Note_off_c,0,62,0
1,376624,Note_on_c,0,65,40
1,376719,Note_off_c,0,65,0
1,376747,Note_on_c,0,69,90
1,376841,Note_off_c,0,69,0
1,376864,Note_on_c,0,55,40
1,376958,Note_off_c,0,55,0
1,376986,Note_on_c,0,58,116
1,377087,Note_off_c,0,58,0
1,377103,Note_on_c,0,79,40
1,377198,Note_off_c,0,79,0
1,377226,Note_on_c,0,72,105
1,377326,Note_off_c,0,72,0
1,377343,Note_on_c,0,75,40
1,377438,Note_off_c,0,75,0
1,377466,Note_on_c,0,79,107
1,377566,Note_off_c,0,79,0
1,377583,Note_on_c,0,82,40
1,377677,Note_off_c,0,82,0
1,377705,Note_on_c,0,86,113
1,377806,Note_off_c,0,86,0
1,377822,Note_on_c,0,72,40
1,377917,Note_off_c,0,72,0
1,377950,Note_on_c,0,51,104
1,378045,Note_off_c,0,51,0
1,378062,Note_on_c,0,55,40
1,378157,Note_off_c,0,55,0
1,378190,Note_on_c,0,58,92
1,378285,Note_off_c,0,58,0
1,378302,Note_on_c,0,62,40
1,378396,Note_off_c,0,62,0
1,378430,Note_on_c,0,65,103
1,378524,Note_off_c,0,65,0
1,378541,Note_on_c,0,76,40
1,378636,Note_off_c,0,76,0
1,378669,Note_on_c,0,55,81
1,378764,Note_off_c,0,55,0
1,378781,Note_on_c,0,58,40
1,378875,Note_off_c,0,58,0
1,378909,Note_on_c,0,62,84
1,379004,Note_off_c,0,62,0
1,379020,Note_on_c,0,65,40
1,379115,Note_off_c,0,65,0
1,379149,Note_on_c,0,69,113
1,379243,Note_off_c,0,69,0
1,379260,Note_on_c,0,72,40
1,379360,Note_off_c,0,72,0
1,379388,Note_on_c,0,93,93
1,379483,Note_off_c,0,93,0
1,379500,Note_on_c,0,96,40
1,379600,Note_off_c,0,96,0
1,379628,Note_on_c,0,100,117
1,379722,Note_off_c,0,100,0
1,379739,Note_on_c,0,79,40
1,379839,Note_off_c,0,79,0
1,379867,Note_on_c,0,83,111
1,379962,Note_off_c,0,83,0
1,379984,Note_on_c,0,48,40
1,380079,Note_off_c,0,48,0
1,380107,Note_on_c,0,51,85
1,380202,Note_off_c,0,51,0
1,380224,Note_on_c,0,55,40
1,380319,Note_off_c,0,55,0
1,380347,Note_on_c,0,55,97
1,380441,Note_off_c,0,55,0
1,380464,Note_on_c,0,58,40
1,380558,Note_off_c,0,58,0
1,380586,Note_on_c,0,62,117
1,380681,Note_off_c,0,62,0
1,380703,Note_on_c,0,65,40
1,380798,Note_off_c,0,65,0
1,380826,Note_on_c,0,69,118
1,380926,Note_off_c,0,69,0
1,380943,Note_on_c,0,55,40
1,381038,Note_off_c,0,55,0
1,381066,Note_on_c,0,58,100
1,381166,Note_off_c,0,58,0
1,381183,Note_on_c,0,79,40
1,381277,Note_off_c,0,79,0
1,381305,Note_on_c,0,82,97
1,381405,Note_off_c,0,82,0
1,381422,Note_on_c,0,86,40
1,381517,Note_off_c,0,86,0
1,381550,Note_on_c,0,89,94
1,381645,Note_off_c,0,89,0
1,381662,Note_on_c,0,93,40
1,381756,Note_off_c,0,93,0
1,381790,Note_on_c,0,48,83
1,381885,Note_off_c,0,48,0
1,381901,Note_on_c,0,51,40
1,381996,Note_off_c,0,51,0
1,382030,Note_on_c,0,55,100
1,382124,Note_off_c,0,55,0
1,382141,Note_on_c,0,58,40
1,382236,Note_off_c,0,58,0
1,382269,Note_on_c,0,62,119
1,382364,Note_off_c,0,62,0
1,382381,Note_on_c,0,48,40
1,382475,Note_off_c,0,48,0
1,382509,Note_on_c,0,51,103
1,382604,Note_off_c,0,51,0
1,382620,Note_on_c,0,62,40
1,382715,Note_off_c,0,62,0
1,382749,Note_on_c,0,55,116
1,382843,Note_off_c,0,55,0
1,382860,Note_on_c,0,58,40
1,382960,Note_off_c,0,58,0
1,382988,Note_on_c,0,62,80
1,383083,Note_off_c,0,62,0
1,383100,Note_on_c,0,65,40
1,383200,Note_off_c,0,65,0
1,383228,Note_on_c,0,86,108
1,383322,Note_off_c,0,86,0
1,383339,Note_on_c,0,72,40
1,383439,Note_off_c,0,72,0
1,383467,Note_on_c,0,75,97
1,383562,Note_off_c,0,75,0
1,383584,Note_on_c,0,79,40
1,383679,Note_off_c,0,79,0
1,383707,Note_on_c,0,82,101
1,383802,Note_off_c,0,82,0
1,383824,Note_on_c,0,86,40
1,383919,Note_off_c,0,86,0
1,383947,Note_on_c,0,89,103
1,384041,Note_off_c,0,89,0
1,384064,Note_on_c,0,69,40
1,384158,Note_off_c,0,69,0
1,384186,Note_on_c,0,48,107
1,384281,Note_off_c,0,48,0
1,384303,Note_on_c,0,51,40
1,384398,Note_off_c,0,51,0
1,384426,Note_on_c,0,62,97
1,384526,Note_off_c,0,62,0
1,384543,Note_on_c,0,65,40
1,384638,Note_off_c,0,65,0
1,384665,Note_on_c,0,69,89
1,384766,Note_off_c,0,69,0
1,384783,Note_on_c,0,72,40
1,384877,Note_off_c,0,72,0
1,384905,Note_on_c,0,76,94
1,385005,Note_off_c,0,76,0
1,385022,Note_on_c,0,96,40
1,385117,Note_off_c,0,96,0
1,385150,Note_on_c,0,100,90
1,385245,Note_off_c,0,100,0
1,385262,Note_on_c,0,103,40
1,385356,Note_off_c,0,103,0
1,385390,Note_on_c,0,107,114
1,385485,Note_off_c,0,107,0
1,385501,Note_on_c,0,72,40
1,385596,Note_off_c,0,72,0
1,385629,Note_on_c,0,75,107
1,385724,Note_off_c,0,75,0
1,385741,Note_on_c,0,79,40
1,385836,Note_off_c,0,79,0
1,385869,Note_on_c,0,48,114
1,385964,Note_off_c,0,48,0
1,385981,Note_on_c,0,51,40
1,386075,Note_off_c,0,51,0
1,386109,Note_on_c,0,55,115
1,386203,Note_off_c,0,55,0
1,386220,Note_on_c,0,58,40
1,386315,Note_off_c,0,58,0
1,386348,Note_on_c,0,62,112
1,386443,Note_off_c,0,62,0
1,386460,Note_on_c,0,55,40
1,386560,Note_off_c,0,55,0
1,386588,Note_on_c,0,58,107
1,386683,Note_off_c,0,58,0
1,386699,Note_on_c,0,62,40
1,386800,Note_off_c,0,62,0
1,386828,Note_on_c,0,65,88
1,386922,Note_off_c,0,65,0
1,386939,Note_on_c,0,69,40
1,387039,Note_off_c,0,69,0
1,387067,Note_on_c,0,72,110
1,387162,Note_off_c,0,72,0
1,387184,Note_on_c,0,76,40
1,387279,Note_off_c,0,76,0
1,387307,Note_on_c,0,72,98
1,387402,Note_off_c,0,72,0
1,387424,Note_on_c,0,75,40
1,387519,Note_off_c,0,75,0
1,387547,Note_on_c,0,79,93
1,387641,Note_off_c,0,79,0
1,387663,Note_on_c,0,82,40
1,387758,Note_off_c,0,82,0
1,387786,Note_on_c,0,86,87
1,387881,Note_off_c,0,86,0
1,387903,Note_on_c,0,48,40
1,387998,Note_off_c,0,48,0
1,388026,Note_on_c,0,51,96
1,388126,Note_off_c,0,51,0
1,388143,Note_on_c,0,55,40
1,388238,Note_off_c,0,55,0
1,388265,Note_on_c,0,48,92
1,388366,Note_off_c,0,48,0
1,388382,Note_on_c,0,51,40
1,388477,Note_off_c,0,51,0
1,388505,Note_on_c,0,55,108
1,388605,Note_off_c,0,55,0
1,388622,Note_on_c,0,58,40
1,388717,Note_off_c,0,58,0
1,388750,Note_on_c,0,69,113
1,388845,Note_off_c,0,69,0
1,388862,Note_on_c,0,55,40
1,388956,Note_off_c,0,55,0
1,388990,Note_on_c,0,58,106
1,389085,Note_off_c,0,58,0
1,389101,Note_on_c,0,79,40
1,389196,Note_off_c,0,79,0
1,389229,Note_on_c,0,82,111
1,389324,Note_off_c,0,82,0
1,389341,Note_on_c,0,86,40
1,389436,Note_off_c,0,86,0
1,389469,Note_on_c,0,89,93
1,389564,Note_off_c,0,89,0
1,389580,Note_on_c,0,93,40
1,389675,Note_off_c,0,93,0
1,389709,Note_on_c,0,48,105
1,389803,Note_off_c,0,48,0
1,389820,Note_on_c,0,51,40
1,389915,Note_off_c,0,51,0
1,389948,Note_on_c,0,55,94
1,390043,Note_off_c,0,55,0
1,390060,Note_on_c,0,58,40
1,390160,Note_off_c,0,58,0
1,390188,Note_on_c,0,62,90
1,390283,Note_off_c,0,62,0
1,390299,Note_on_c,0,65,40
1,390400,Note_off_c,0,65,0
1,390427,Note_on_c,0,69,106
1,390522,Note_off_c,0,69,0
1,390539,Note_on_c,0,79,40
1,390639,Note_off_c,0,79,0
1,390667,Note_on_c,0,83,83
1,390762,Note_off_c,0,83,0
1,390784,Note_on_c,0,86,40
1,390879,Note_off_c,0,86,0
1,390907,Note_on_c,0,90,108
1,391002,Note_off_c,0,90,0
1,391024,Note_on_c,0,55,40
1,391119,Note_off_c,0,55,0
1,391146,Note_on_c,0,75,87
1,391241,Note_off_c,0,75,0
1,391263,Note_on_c,0,79,40
1,391358,Note_off_c,0,79,0
1,391386,Note_on_c,0,72,106
1,391481,Note_off_c,0,72,0
1,391503,Note_on_c,0,75,40
1,391598,Note_off_c,0,75,0
1,391626,Note_on_c,0,79,95
1,391726,Note_off_c,0,79,0
1,391743,Note_on_c,0,82,40
1,391837,Note_off_c,0,82,0
1,391865,Note_on_c,0,86,104
1,391966,Note_off_c,0,86,0
1,391982,Note_on_c,0,48,40
1,392077,Note_off_c,0,48,0
1,392105,Note_on_c,0,51,116
1,392205,Note_off_c,0,51,0
1,392222,Note_on_c,0,55,40
1,392317,Note_off_c,0,55,0
1,392350,Note_on_c,0,58,110
1,392445,Note_off_c,0,58,0
1,392462,Note_on_c,0,62,40
1,392556,Note_off_c,0,62,0
1,392590,Note_on_c,0,72,115
1,392685,Note_off_c,0,72,0
1,392701,Note_on_c,0,76,40
1,392796,Note_off_c,0,76,0
1,392829,Note_on_c,0,55,110
1,392924,Note_off_c,0,55,0
1,392941,Note_on_c,0,58,40
1,393036,Note_off_c,0,58,0
1,393069,Note_on_c,0,62,98
1,393164,Note_off_c,0,62,0
1,393180,Note_on_c,0,65,40
1,393275,Note_off_c,0,65,0
1,393309,Note_on_c,0,69,109
1,393403,Note_off_c,0,69,0
1,393420,Note_on_c,0,72,40
1,393515,Note_off_c,0,72,0
1,393548,Note_on_c,0,75,105
1,393643,Note_off_c,0,75,0
1,393660,Note_on_c,0,79,40
1,393760,Note_off_c,0,79,0
1,393788,Note_on_c,0,48,90
1,393882,Note_off_c,0,48,0
1,393899,Note_on_c,0,51,40
1,394000,Note_off_c,0,51,0
1,394028,Note_on_c,0,55,96
1,394122,Note_off_c,0,55,0
1,394139,Note_on_c,0,58,40
1,394239,Note_off_c,0,58,0
1,394267,Note_on_c,0,62,114
1,394362,Note_off_c,0,62,0
1,394384,Note_on_c,0,55,40
1,394479,Note_off_c,0,55,0
1,394507,Note_on_c,0,58,80
1,394601,Note_off_c,0,58,0
1,394624,Note_on_c,0,62,40
1,394719,Note_off_c,0,62,0
1,394746,Note_on_c,0,65,115
1,394841,Note_off_c,0,65,0
1,394863,Note_on_c,0,69,40
1,394958,Note_off_c,0,69,0
1,394986,Note_on_c,0,72,88
1,395081,Note_off_c,0,72,0
1,395103,Note_on_c,0,76,40
1,395198,Note_off_c,0,76,0
1,395226,Note_on_c,0,72,88
1,395326,Note_off_c,0,72,0
1,395343,Note_on_c,0,75,40
1,395437,Note_off_c,0,75,0
1,395465,Note_on_c,0,79,92
1,395566,Note_off_c,0,79,0
1,395582,Note_on_c,0,82,40
1,395677,Note_off_c,0,82,0
1,395705,Note_on_c,0,86,100
1,395805,Note_off_c,0,86,0
1,395822,Note_on_c,0,65,40
1,395917,Note_off_c,0,65,0
1,395950,Note_on_c,0,69,116
1,396045,Note_off_c,0,69,0
1,396061,Note_on_c,0,72,40
1,396156,Note_off_c,0,72,0
1,396190,Note_on_c,0,76,86
1,396284,Note_off_c,0,76,0
1,396301,Note_on_c,0,79,40
1,396396,Note_off_c,0,79,0
1,396429,Note_on_c,0,83,86
1,396524,Note_off_c,0,83,0
1,396541,Note_on_c,0,48,40
1,396635,Note_off_c,0,48,0
1,396669,Note_on_c,0,58,108
1,396764,Note_off_c,0,58,0
1,396780,Note_on_c,0,62,40
1,396875,Note_off_c,0,62,0
1,396909,Note_on_c,0,55,99
1,397003,Note_off_c,0,55,0
1,397020,Note_on_c,0,58,40
1,397115,Note_off_c,0,58,0
1,397148,Note_on_c,0,62,112
1,397243,Note_off_c,0,62,0
1,397260,Note_on_c,0,82,40
1,397360,Note_off_c,0,82,0
1,397388,Note_on_c,0,86,83
1,397483,Note_off_c,0,86,0
1,397499,Note_on_c,0,72,40
1,397599,Note_off_c,0,72,0
1,397627,Note_on_c,0,75,110
1,397722,Note_off_c,0,75,0
1,397739,Note_on_c,0,79,40
1,397839,Note_off_c,0,79,0
1,397867,Note_on_c,0,82,99
1,397962,Note_off_c,0,82,0
1,397984,Note_on_c,0,86,40
1,398079,Note_off_c,0,86,0
1,398107,Note_on_c,0,65,86
1,398201,Note_off_c,0,65,0
1,398224,Note_on_c,0,69,40
1,398318,Note_off_c,0,69,0
1,398346,Note_on_c,0,48,98
1,398441,Note_off_c,0,48,0
1,398463,Note_on_c,0,58,40
1,398558,Note_off_c,0,58,0
1,398586,Note_on_c,0,62,106
1,398681,Note_off_c,0,62,0
1,398703,Note_on_c,0,65,40
1,398798,Note_off_c,0,65,0
1,398826,Note_on_c,0,69,113
1,398926,Note_off_c,0,69,0
1,398943,Note_on_c,0,55,40
1,399037,Note_off_c,0,55,0
1,399065,Note_on_c,0,75,114
1,399165,Note_off_c,0,75,0
1,399182,Note_on_c,0,79,40
1,399277,Note_off_c,0,79,0
1,399305,Note_on_c,0,72,91
1,399405,Note_off_c,0,72,0
1,399422,Note_on_c,0,75,40
1,399517,Note_off_c,0,75,0
1,399550,Note_on_c,0,79,109
1,399645,Note_off_c,0,79,0
1,399661,Note_on_c,0,82,40
1,399756,Note_off_c,0,82,0
1,399790,Note_on_c,0,86,105
1,399884,Note_off_c,0,86,0
1,399901,Note_on_c,0,48,40
1,399996,Note_off_c,0,48,0
1,400029,Note_on_c,0,51,86
1,400124,Note_off_c,0,51,0
1,400141,Note_on_c,0,55,40
1,400235,Note_off_c,0,55,0
1,400269,Note_on_c,0,58,99
1,400364,Note_off_c,0,58,0
1,400380,Note_on_c,0,62,40
1,400475,Note_off_c,0,62,0
1,400508,Note_on_c,0,72,83
1,400603,Note_off_c,0,72,0
1,400620,Note_on_c,0,76,40
1,400715,Note_off_c,0,76,0
1,400748,Note_on_c,0,55,115
1,400843,Note_off_c,0,55,0
1,400860,Note_on_c,0,58,40
1,400960,Note_off_c,0,58,0
1,400988,Note_on_c,0,62,85
1,401082,Note_off_c,0,62,0
1,401099,Note_on_c,0,65,40
1,401199,Note_off_c,0,65,0
1,401227,Note_on_c,0,69,94
1,401322,Note_off_c,0,69,0
1,401339,Note_on_c,0,89,40
1,401439,Note_off_c,0,89,0
1,401467,Note_on_c,0,93,92
1,401562,Note_off_c,0,93,0
1,401584,Note_on_c,0,96,40
1,401679,Note_off_c,0,96,0
1,401707,Note_on_c,0,100,119
1,401801,Note_off_c,0,100,0
1,401824,Note_on_c,0,103,40
1,401918,Note_off_c,0,103,0
1,401946,Note_on_c,0,83,94
1,402041,Note_off_c,0,83,0
1,402063,Note_on_c,0,48,40
1,402158,Note_off_c,0,48,0
1,402186,Note_on_c,0,51,88
1,402281,Note_off_c,0,51,0
1,402303,Note_on_c,0,55,40
1,402398,Note_off_c,0,55,0
1,402425,Note_on_c,0,48,87
1,402526,Note_off_c,0,48,0
1,402542,Note_on_c,0,51,40
1,402637,Note_off_c,0,51,0
1,402665,Note_on_c,0,55,103
1,402765,Note_off_c,0,55,0
1,402782,Note_on_c,0,65,40
1,402877,Note_off_c,0,65,0
1,402905,Note_on_c,0,69,100
1,403005,Note_off_c,0,69,0
1,403022,Note_on_c,0,55,40
1,403116,Note_off_c,0,55,0
1,403150,Note_on_c,0,75,108
1,403245,Note_off_c,0,75,0
1,403261,Note_on_c,0,79,40
1,403356,Note_off_c,0,79,0
1,403389,Note_on_c,0,82,99
1,403484,Note_off_c,0,82,0
1,403501,Note_on_c,0,86,40
1,403597,Note_off_c,0,86,0
1,403630,Note_on_c,0,89,106
1,403725,Note_off_c,0,89,0
1,403742,Note_on_c,0,69,40
1,403836,Note_off_c,0,69,0
1,403870,Note_on_c,0,48,115
1,403965,Note_off_c,0,48,0
1,403981,Note_on_c,0,51,40
1,404076,Note_off_c,0,51,0
1,404110,Note_on_c,0,55,87
1,404204,Note_off_c,0,55,0
1,404221,Note_on_c,0,58,40
1,404316,Note_off_c,0,58,0
1,404349,Note_on_c,0,62,86
1,404444,Note_off_c,0,62,0
1,404461,Note_on_c,0,48,40
1,404561,Note_off_c,0,48,0
1,404589,Note_on_c,0,58,108
1,404683,Note_off_c,0,58,0
1,404700,Note_on_c,0,62,40
1,404800,Note_off_c,0,62,0
1,404828,Note_on_c,0,55,90
1,404923,Note_off_c,0,55,0
1,404940,Note_on_c,0,58,40
1,405040,Note_off_c,0,58,0
1,405068,Note_on_c,0,62,116
1,405163,Note_off_c,0,62,0
1,405185,Note_on_c,0,82,40
1,405280,Note_off_c,0,82,0
1,405308,Note_on_c,0,86,87
1,405402,Note_off_c,0,86,0
1,405424,Note_on_c,0,72,40
1,405519,Note_off_c,0,72,0
1,405547,Note_on_c,0,75,96
1,405642,Note_off_c,0,75,0
1,405664,Note_on_c,0,79,40
1,405759,Note_off_c,0,79,0
1,405787,Note_on_c,0,82,95
1,405881,Note_off_c,0,82,0
1,405904,Note_on_c,0,86,40
1,405999,Note_off_c,0,86,0
1,406026,Note_on_c,0,65,113
1,406127,Note_off_c,0,65,0
1,406143,Note_on_c,0,69,40
1,406238,Note_off_c,0,69,0
1,406266,Note_on_c,0,48,89
1,406366,Note_off_c,0,48,0
1,406383,Note_on_c,0,51,40
1,406478,Note_off_c,0,51,0
1,406506,Note_on_c,0,55,90
1,406606,Note_off_c,0,55,0
1,406623,Note_on_c,0,65,40
1,406717,Note_off_c,0,65,0
1,406751,Note_on_c,0,69,85
1,406846,Note_off_c,0,69,0
1,406862,Note_on_c,0,72,40
1,406957,Note_off_c,0,72,0
1,406990,Note_on_c,0,76,118
1,407085,Note_off_c,0,76,0
1,407102,Note_on_c,0,79,40
1,407197,Note_off_c,0,79,0
1,407230,Note_on_c,0,83,115
1,407325,Note_off_c,0,83,0
1,407342,Note_on_c,0,86,40
1,407436,Note_off_c,0,86,0
1,407470,Note_on_c,0,107,91
1,407564,Note_off_c,0,107,0
1,407581,Note_on_c,0,72,40
1,407676,Note_off_c,0,72,0
1,407709,Note_on_c,0,75,98
1,407804,Note_off_c,0,75,0
1,407821,Note_on_c,0,55,40
1,407915,Note_off_c,0,55,0
1,407949,Note_on_c,0,48,118
1,408044,Note_off_c,0,48,0
1,408060,Note_on_c,0,51,40
1,408161,Note_off_c,0,51,0
1,408189,Note_on_c,0,55,86
1,408283,Note_off_c,0,55,0
1,408300,Note_on_c,0,58,40
1,408400,Note_off_c,0,58,0
1,408428,Note_on_c,0,69,103
1,408523,Note_off_c,0,69,0
1,408540,Note_on_c,0,55,40
1,408640,Note_off_c,0,55,0
1,408668,Note_on_c,0,58,92
1,408763,Note_off_c,0,58,0
1,408779,Note_on_c,0,62,40
1,408879,Note_off_c,0,62,0
1,408908,Note_on_c,0,65,99
1,409002,Note_off_c,0,65,0
1,409024,Note_on_c,0,69,40
1,409119,Note_off_c,0,69,0
1,409147,Note_on_c,0,72,102
1,409242,Note_off_c,0,72,0
1,409264,Note_on_c,0,93,40
1,409359,Note_off_c,0,93,0
1,409387,Note_on_c,0,72,107
1,409482,Note_off_c,0,72,0
1,409504,Note_on_c,0,75,40
1,409598,Note_off_c,0,75,0
1,409626,Note_on_c,0,79,107
1,409727,Note_off_c,0,79,0
1,409743,Note_on_c,0,82,40
1,409838,Note_off_c,0,82,0
1,409866,Note_on_c,0,62,110
1,409966,Note_off_c,0,62,0
1,409983,Note_on_c,0,48,40
1,410078,Note_off_c,0,48,0
1,410106,Note_on_c,0,51,90
1,410206,Note_off_c,0,51,0
1,410223,Note_on_c,0,55,40
1,410317,Note_off_c,0,55,0
1,410351,Note_on_c,0,48,87
1,410445,Note_off_c,0,48,0
1,410462,Note_on_c,0,51,40
1,410557,Note_off_c,0,51,0
1,410590,Note_on_c,0,55,99
1,410685,Note_off_c,0,55,0
1,410702,Note_on_c,0,65,40
1,410797,Note_off_c,0,65,0
1,410830,Note_on_c,0,69,110
1,410925,Note_off_c,0,69,0
1,410941,Note_on_c,0,55,40
1,411036,Note_off_c,0,55,0
1,411070,Note_on_c,0,58,114
1,411164,Note_off_c,0,58,0
1,411181,Note_on_c,0,62,40
1,411276,Note_off_c,0,62,0
1,411309,Note_on_c,0,82,94
1,411404,Note_off_c,0,82,0
1,411421,Note_on_c,0,86,40
1,411515,Note_off_c,0,86,0
1,411549,Note_on_c,0,89,118
1,411644,Note_off_c,0,89,0
1,411660,Note_on_c,0,93,40
1,411761,Note_off_c,0,93,0
1,411789,Note_on_c,0,72,80
1,411883,Note_off_c,0,72,0
1,411900,Note_on_c,0,75,40
1,412000,Note_off_c,0,75,0
1,412028,Note_on_c,0,79,82
1,412123,Note_off_c,0,79,0
1,412140,Note_on_c,0,58,40
1,412240,Note_off_c,0,58,0
1,412268,Note_on_c,0,62,88
1,412362,Note_off_c,0,62,0
1,412379,Note_on_c,0,65,40
1,412479,Note_off_c,0,65,0
1,412507,Note_on_c,0,76,117
1,412602,Note_off_c,0,76,0
1,412624,Note_on_c,0,79,40
1,412719,Note_off_c,0,79,0
1,412747,Note_on_c,0,83,89
1,412842,Note_off_c,0,83,0
1,412864,Note_on_c,0,86,40
1,412959,Note_off_c,0,86,0
1,412987,Note_on_c,0,90,105
1,413081,Note_off_c,0,90,0
1,413104,Note_on_c,0,72,40
1,413198,Note_off_c,0,72,0
1,413226,Note_on_c,0,75,93
1,413327,Note_off_c,0,75,0
1,413343,Note_on_c,0,79,40
1,413438,Note_off_c,0,79,0
1,413466,Note_on_c,0,72,83
1,413566,Note_off_c,0,72,0
1,413583,Note_on_c,0,75,40
1,413678,Note_off_c,0,75,0
1,413706,Note_on_c,0,79,115
1,413806,Note_off_c,0,79,0
1,413823,Note_on_c,0,82,40
1,413917,Note_off_c,0,82,0
1,413951,Note_on_c,0,62,103
1,414045,Note_off_c,0,62,0
1,414062,Note_on_c,0,48,40
1,414157,Note_off_c,0,48,0
1,414190,Note_on_c,0,51,88
1,414285,Note_off_c,0,51,0
1,414302,Note_on_c,0,55,40
1,414397,Note_off_c,0,55,0
1,414430,Note_on_c,0,58,114
1,414525,Note_off_c,0,58,0
1,414541,Note_on_c,0,69,40
1,414636,Note_off_c,0,69,0
1,414670,Note_on_c,0,72,99
1,414764,Note_off_c,0,72,0
1,414781,Note_on_c,0,76,40
1,414876,Note_off_c,0,76,0
1,414909,Note_on_c,0,55,100
1,415004,Note_off_c,0,55,0
1,415021,Note_on_c,0,58,40
1,415115,Note_off_c,0,58,0
1,415149,Note_on_c,0,62,92
1,415244,Note_off_c,0,62,0
1,415260,Note_on_c,0,65,40
1,415361,Note_off_c,0,65,0
1,415388,Note_on_c,0,86,97
1,415483,Note_off_c,0,86,0
1,415500,Note_on_c,0,72,40
1,415600,Note_off_c,0,72,0
1,415628,Note_on_c,0,75,107
1,415723,Note_off_c,0,75,0
1,415739,Note_on_c,0,79,40
1,415840,Note_off_c,0,79,0
1,415868,Note_on_c,0,72,115
1,415962,Note_off_c,0,72,0
1,415979,Note_on_c,0,51,40
1,416079,Note_off_c,0,51,0
1,416107,Note_on_c,0,55,110
1,416202,Note_off_c,0,55,0
1,416224,Note_on_c,0,58,40
1,416319,Note_off_c,0,58,0
1,416347,Note_on_c,0,62,86
1,416442,Note_off_c,0,62,0
1,416464,Note_on_c,0,48,40
1,416559,Note_off_c,0,48,0
1,416587,Note_on_c,0,51,98
1,416681,Note_off_c,0,51,0
1,416704,Note_on_c,0,55,40
1,416798,Note_off_c,0,55,0
1,416826,Note_on_c,0,65,98
1,416926,Note_off_c,0,65,0
1,416943,Note_on_c,0,69,40
1,417038,Note_off_c,0,69,0
1,417066,Note_on_c,0,72,114
1,417166,Note_off_c,0,72,0
1,417183,Note_on_c,0,93,40
1,417278,Note_off_c,0,93,0
1,417305,Note_on_c,0,72,89
1,417406,Note_off_c,0,72,0
1,417423,Note_on_c,0,75,40
1,417517,Note_off_c,0,75,0
1,417545,Note_on_c,0,79,109
1,417645,Note_off_c,0,79,0
1,417662,Note_on_c,0,82,40
1,417757,Note_off_c,0,82,0
1,417790,Note_on_c,0,62,82
1,417885,Note_off_c,0,62,0
1,417902,Note_on_c,0,65,40
1,417996,Note_off_c,0,65,0
1,418030,Note_on_c,0,69,108
1,418125,Note_off_c,0,69,0
1,418141,Note_on_c,0,72,40
1,418236,Note_off_c,0,72,0
1,418269,Note_on_c,0,76,99
1,418364,Note_off_c,0,76,0
1,418381,Note_on_c,0,79,40
1,418476,Note_off_c,0,79,0
1,418509,Note_on_c,0,83,116
1,418604,Note_off_c,0,83,0
1,418621,Note_on_c,0,55,40
1,418715,Note_off_c,0,55,0
1,418749,Note_on_c,0,58,82
1,418843,Note_off_c,0,58,0
1,418860,Note_on_c,0,62,40
1,418960,Note_off_c,0,62,0
1,418988,Note_on_c,0,55,97
1,419083,Note_off_c,0,55,0
1,419100,Note_on_c,0,58,40
1,419200,Note_off_c,0,58,0
1,419228,Note_on_c,0,79,117
1,419323,Note_off_c,0,79,0
1,419339,Note_on_c,0,82,40
1,419440,Note_off_c,0,82,0
1,419468,Note_on_c,0,86,85
1,419562,Note_off_c,0,86,0
1,419579,Note_on_c,0,72,40
1,419679,Note_off_c,0,72,0
1,419707,Note_on_c,0,75,106
1,419802,Note_off_c,0,75,0
1,419824,Note_on_c,0,79,40
1,419919,Note_off_c,0,79,0
1,419947,Note_on_c,0,82,114
1,420042,Note_off_c,0,82,0
1,420064,Note_on_c,0,62,40
1,420159,Note_off_c,0,62,0
1,420186,Note_on_c,0,65,95
1,420281,Note_off_c,0,65,0
1,420304,Note_on_c,0,69,40
1,420398,Note_off_c,0,69,0
1,420426,Note_on_c,0,48,92
1,420526,Note_off_c,0,48,0
1,420543,Note_on_c,0,51,40
1,420638,Note_off_c,0,51,0
1,420666,Note_on_c,0,62,88
1,420766,Note_off_c,0,62,0
1,420783,Note_on_c,0,65,40
1,420877,Note_off_c,0,65,0
1,420905,Note_on_c,0,69,99
1,421006,Note_off_c,0,69,0
1,421022,Note_on_c,0,55,40
1,421117,Note_off_c,0,55,0
1,421145,Note_on_c,0,58,87
1,421245,Note_off_c,0,58,0
1,421262,Note_on_c,0,62,40
1,421357,Note_off_c,0,62,0
1,421390,Note_on_c,0,55,112
1,421485,Note_off_c,0,55,0
1,421502,Note_on_c,0,75,40
1,421596,Note_off_c,0,75,0
1,421630,Note_on_c,0,79,108
1,421725,Note_off_c,0,79,0
1,421741,Note_on_c,0,82,40
1,421836,Note_off_c,0,82,0
1,421869,Note_on_c,0,62,81
1,421964,Note_off_c,0,62,0
1,421981,Note_on_c,0,48,40
1,422076,Note_off_c,0,48,0
1,422109,Note_on_c,0,51,91
1,422204,Note_off_c,0,51,0
1,422220,Note_on_c,0,55,40
1,422315,Note_off_c,0,55,0
1,422349,Note_on_c,0,58,88
1,422443,Note_off_c,0,58,0
1,422460,Note_on_c,0,69,40
1,422560,Note_off_c,0,69,0
1,422588,Note_on_c,0,72,94
1,422683,Note_off_c,0,72,0
1,422700,Note_on_c,0,76,40
1,422800,Note_off_c,0,76,0
1,422828,Note_on_c,0,55,109
1,422923,Note_off_c,0,55,0
1,422939,Note_on_c,0,58,40
1,423040,Note_off_c,0,58,0
1,423068,Note_on_c,0,62,115
1,423162,Note_off_c,0,62,0
1,423179,Note_on_c,0,65,40
1,423279,Note_off_c,0,65,0
1,423307,Note_on_c,0,86,89
1,423402,Note_off_c,0,86,0
1,423424,Note_on_c,0,89,40
1,423519,Note_off_c,0,89,0
1,423547,Note_on_c,0,93,100
1,423641,Note_off_c,0,93,0
1,423664,Note_on_c,0,96,40
1,423759,Note_off_c,0,96,0
1,423786,Note_on_c,0,100,82
1,423881,Note_off_c,0,100,0
1,423903,Note_on_c,0,79,40
1,423998,Note_off_c,0,79,0
1,424026,Note_on_c,0,83,108
1,424126,Note_off_c,0,83,0
1,424143,Note_on_c,0,48,40
1,424238,Note_off_c,0,48,0
1,424266,Note_on_c,0,51,118
1,424366,Note_off_c,0,51,0
1,424383,Note_on_c,0,55,40
1,424477,Note_off_c,0,55,0
1,424505,Note_on_c,0,48,116
1,424606,Note_off_c,0,48,0
1,424622,Note_on_c,0,51,40
1,424717,Note_off_c,0,51,0
1,424745,Note_on_c,0,62,117
1,424845,Note_off_c,0,62,0
1,424862,Note_on_c,0,65,40
1,424957,Note_off_c,0,65,0
1,424990,Note_on_c,0,69,107
1,425085,Note_off_c,0,69,0
1,425102,Note_on_c,0,55,40
1,425196,Note_off_c,0,55,0
1,425230,Note_on_c,0,58,118
1,425324,Note_off_c,0,58,0
1,425341,Note_on_c,0,79,40
1,425436,Note_off_c,0,79,0
1,425469,Note_on_c,0,82,106
1,425564,Note_off_c,0,82,0
1,425581,Note_on_c,0,86,40
1,425675,Note_off_c,0,86,0
1,425709,Note_on_c,0,89,87
1,425804,Note_off_c,0,89,0
1,425820,Note_on_c,0,93,40
1,425915,Note_off_c,0,93,0
1,425949,Note_on_c,0,72,114
1,426043,Note_off_c,0,72,0
1,426060,Note_on_c,0,75,40
1,426160,Note_off_c,0,75,0
1,426188,Note_on_c,0,55,109
1,426283,Note_off_c,0,55,0
1,426300,Note_on_c,0,58,40
1,426400,Note_off_c,0,58,0
1,426428,Note_on_c,0,62,105
1,426523,Note_off_c,0,62,0
1,426539,Note_on_c,0,55,40
1,426639,Note_off_c,0,55,0
1,426667,Note_on_c,0,58,112
1,426762,Note_off_c,0,58,0
1,426779,Note_on_c,0,62,40
1,426879,Note_off_c,0,62,0
1,426907,Note_on_c,0,55,114
1,427002,Note_off_c,0,55,0
1,427024,Note_on_c,0,58,40
1,427119,Note_off_c,0,58,0
1,427147,Note_on_c,0,79,91
1,427241,Note_off_c,0,79,0
1,427264,Note_on_c,0,82,40
1,427358,Note_off_c,0,82,0
1,427386,Note_on_c,0,86,106
1,427481,Note_off_c,0,86,0
1,427503,Note_on_c,0,72,40
1,427598,Note_off_c,0,72,0
1,427626,Note_on_c,0,75,90
1,427726,Note_off_c,0,75,0
1,427743,Note_on_c,0,79,40
1,427838,Note_off_c,0,79,0
1,427866,Note_on_c,0,82,104
1,427966,Note_off_c,0,82,0
1,427983,Note_on_c,0,62,40
1,428077,Note_off_c,0,62,0
1,428105,Note_on_c,0,65,115
1,428206,Note_off_c,0,65,0
1,428222,Note_on_c,0,69,40
1,428317,Note_off_c,0,69,0
1,428345,Note_on_c,0,48,110
1,428445,Note_off_c,0,48,0
1,428462,Note_on_c,0,51,40
1,428557,Note_off_c,0,51,0
1,428590,Note_on_c,0,62,111
1,428685,Note_off_c,0,62,0
1,428701,Note_on_c,0,65,40
1,428796,Note_off_c,0,65,0
1,428830,Note_on_c,0,69,107
1,428924,Note_off_c,0,69,0
1,428941,Note_on_c,0,72,40
1,429036,Note_off_c,0,72,0
1,429069,Note_on_c,0,76,98
1,429164,Note_off_c,0,76,0
1,429181,Note_on_c,0,79,40
1,429275,Note_off_c,0,79,0
1,429309,Note_on_c,0,83,113
1,429404,Note_off_c,0,83,0
1,429420,Note_on_c,0,103,40
1,429515,Note_off_c,0,103,0
1,429549,Note_on_c,0,107,119
1,429643,Note_off_c,0,107,0
1,429660,Note_on_c,0,72,40
1,429760,Note_off_c,0,72,0
1,429788,Note_on_c,0,75,107
1,429883,Note_off_c,0,75,0
1,429900,Note_on_c,0,79,40
1,430000,Note_off_c,0,79,0
1,430028,Note_on_c,0,48,87
1,430123,Note_off_c,0,48,0
1,430139,Note_on_c,0,51,40
1,430239,Note_off_c,0,51,0
1,430267,Note_on_c,0,55,108
1,430362,Note_off_c,0,55,0
1,430379,Note_on_c,0,58,40
1,430479,Note_off_c,0,58,0
1,430507,Note_on_c,0,62,102
1,430602,Note_off_c,0,62,0
1,430624,Note_on_c,0,48,40
1,430719,Note_off_c,0,48,0
1,430747,Note_on_c,0,51,97
1,430841,Note_off_c,0,51,0
1,430864,Note_on_c,0,62,40
1,430958,Note_off_c,0,62,0
1,430986,Note_on_c,0,65,88
1,431081,Note_off_c,0,65,0
1,431103,Note_on_c,0,69,40
1,431198,Note_off_c,0,69,0
1,431226,Note_on_c,0,89,105
1,431326,Note_off_c,0,89,0
1,431343,Note_on_c,0,93,40
1,431438,Note_off_c,0,93,0
1,431466,Note_on_c,0,72,86
1,431566,Note_off_c,0,72,0
1,431582,Note_on_c,0,75,40
1,431677,Note_off_c,0,75,0
1,431705,Note_on_c,0,79,87
1,431805,Note_off_c,0,79,0
1,431822,Note_on_c,0,58,40
1,431917,Note_off_c,0,58,0
1,431945,Note_on_c,0,62,101
1,432045,Note_off_c,0,62,0
1,432062,Note_on_c,0,48,40
1,432156,Note_off_c,0,48,0
1,432190,Note_on_c,0,51,84
1,432285,Note_off_c,0,51,0
1,432301,Note_on_c,0,55,40
1,432396,Note_off_c,0,55,0
1,432430,Note_on_c,0,48,115
1,432524,Note_off_c,0,48,0
1,432541,Note_on_c,0,51,40
1,432636,Note_off_c,0,51,0
1,432669,Note_on_c,0,62,100
1,432764,Note_off_c,0,62,0
1,432781,Note_on_c,0,65,40
1,432875,Note_off_c,0,65,0
1,432909,Note_on_c,0,69,110
1,433004,Note_off_c,0,69,0
1,433020,Note_on_c,0,55,40
1,433115,Note_off_c,0,55,0
1,433148,Note_on_c,0,58,82
1,433243,Note_off_c,0,58,0
1,433260,Note_on_c,0,79,40
1,433355,Note_off_c,0,79,0
1,433388,Note_on_c,0,82,94
1,433483,Note_off_c,0,82,0
1,433500,Note_on_c,0,86,40
1,433600,Note_off_c,0,86,0
1,433628,Note_on_c,0,89,99
1,433722,Note_off_c,0,89,0
1,433739,Note_on_c,0,93,40
1,433839,Note_off_c,0,93,0
1,433867,Note_on_c,0,72,107
1,433962,Note_off_c,0,72,0
1,433979,Note_on_c,0,75,40
1,434079,Note_off_c,0,75,0
1,434107,Note_on_c,0,55,86
1,434202,Note_off_c,0,55,0
1,434224,Note_on_c,0,58,40
1,434319,Note_off_c,0,58,0
1,434347,Note_on_c,0,62,94
1,434441,Note_off_c,0,62,0
1,434464,Note_on_c,0,65,40
1,434558,Note_off_c,0,65,0
1,434586,Note_on_c,0,69,119
1,434681,Note_off_c,0,69,0
1,434703,Note_on_c,0,79,40
1,434798,Note_off_c,0,79,0
1,434826,Note_on_c,0,83,113
1,434926,Note_off_c,0,83,0
1,434943,Note_on_c,0,86,40
1,435038,Note_off_c,0,86,0
1,435065,Note_on_c,0,90,105
1,435166,Note_off_c,0,90,0
1,435183,Note_on_c,0,55,40
1,435277,Note_off_c,0,55,0
1,435305,Note_on_c,0,58,104
1,435405,Note_off_c,0,58,0
1,435422,Note_on_c,0,62,40
1,435517,Note_off_c,0,62,0
1,435545,Note_on_c,0,72,109
1,435645,Note_off_c,0,72,0
1,435662,Note_on_c,0,75,40
1,435756,Note_off_c,0,75,0
1,435790,Note_on_c,0,79,95
1,435885,Note_off_c,0,79,0
1,435901,Note_on_c,0,58,40
1,435996,Note_off_c,0,58,0
1,436029,Note_on_c,0,62,95
1,436124,Note_off_c,0,62,0
1,436141,Note_on_c,0,48,40
1,436236,Note_off_c,0,48,0
1,436269,Note_on_c,0,51,97
1,436364,Note_off_c,0,51,0
1,436381,Note_on_c,0,55,40
1,436475,Note_off_c,0,55,0
1,436509,Note_on_c,0,65,113
1,436603,Note_off_c,0,65,0
1,436620,Note_on_c,0,69,40
1,436715,Note_off_c,0,69,0
1,436748,Note_on_c,0,72,89
1,436843,Note_off_c,0,72,0
1,436860,Note_on_c,0,76,40
1,436955,Note_off_c,0,76,0
1,436988,Note_on_c,0,55,96
1,437083,Note_off_c,0,55,0
1,437099,Note_on_c,0,58,40
1,437200,Note_off_c,0,58,0
1,437228,Note_on_c,0,62,100
1,437322,Note_off_c,0,62,0
1,437339,Note_on_c,0,82,40
1,437439,Note_off_c,0,82,0
1,437467,Note_on_c,0,86,97
1,437562,Note_off_c,0,86,0
1,437579,Note_on_c,0,72,40
1,437679,Note_off_c,0,72,0
1,437707,Note_on_c,0,75,84
1,437802,Note_off_c,0,75,0
1,437824,Note_on_c,0,79,40
1,437919,Note_off_c,0,79,0
1,437946,Note_on_c,0,48,83
1,438041,Note_off_c,0,48,0
1,438064,Note_on_c,0,51,40
1,438158,Note_off_c,0,51,0
1,438186,Note_on_c,0,55,114
1,438281,Note_off_c,0,55,0
1,438303,Note_on_c,0,58,40
1,438398,Note_off_c,0,58,0
1,438426,Note_on_c,0,62,93
1,438526,Note_off_c,0,62,0
1,438543,Note_on_c,0,48,40
1,438637,Note_off_c,0,48,0
1,438665,Note_on_c,0,51,108
1,438766,Note_off_c,0,51,0
1,438782,Note_on_c,0,62,40
1,438877,Note_off_c,0,62,0
1,438905,Note_on_c,0,65,81
1,439005,Note_off_c,0,65,0
1,439022,Note_on_c,0,69,40
1,439117,Note_off_c,0,69,0
1,439145,Note_on_c,0,72,100
1,439245,Note_off_c,0,72,0
1,439262,Note_on_c,0,76,40
1,439356,Note_off_c,0,76,0
1,439390,Note_on_c,0,72,90
1,439485,Note_off_c,0,72,0
1,439501,Note_on_c,0,75,40
1,439596,Note_off_c,0,75,0
1,439629,Note_on_c,0,79,85
1,439724,Note_off_c,0,79,0
1,439741,Note_on_c,0,82,40
1,439836,Note_off_c,0,82,0
1,439869,Note_on_c,0,86,96
1,439964,Note_off_c,0,86,0
1,439981,Note_on_c,0,89,40
1,440075,Note_off_c,0,89,0
1,440109,Note_on_c,0,93,110
1,440203,Note_off_c,0,93,0
1,440220,Note_on_c,0,72,40
1,440315,Note_off_c,0,72,0
1,440348,Note_on_c,0,76,115
1,440443,Note_off_c,0,76,0
1,440460,Note_on_c,0,79,40
1,440555,Note_off_c,0,79,0
1,440588,Note_on_c,0,90,98
1,440683,Note_off_c,0,90,0
1,440699,Note_on_c,0,55,40
1,440800,Note_off_c,0,55,0
1,440828,Note_on_c,0,58,85
1,440922,Note_off_c,0,58,0
1,440939,Note_on_c,0,62,40
1,441039,Note_off_c,0,62,0
1,441067,Note_on_c,0,55,94
1,441162,Note_off_c,0,55,0
1,441179,Note_on_c,0,75,40
1,441279,Note_off_c,0,75,0
1,441307,Note_on_c,0,79,86
1,441401,Note_off_c,0,79,0
1,441424,Note_on_c,0,82,40
1,441518,Note_off_c,0,82,0
1,441546,Note_on_c,0,86,92
1,441641,Note_off_c,0,86,0
1,441663,Note_on_c,0,72,40
1,441758,Note_off_c,0,72,0
1,441786,Note_on_c,0,75,109
1,441881,Note_off_c,0,75,0
1,441903,Note_on_c,0,79,40
1,441998,Note_off_c,0,79,0
1,442026,Note_on_c,0,58,86
1,442120,Note_off_c,0,58,0
1,442143,Note_on_c,0,62,40
1,442237,Note_off_c,0,62,0
1,442265,Note_on_c,0,65,86
1,442365,Note_off_c,0,65,0
1,442382,Note_on_c,0,69,40
1,442477,Note_off_c,0,69,0
1,442505,Note_on_c,0,48,94
1,442605,Note_off_c,0,48,0
1,442622,Note_on_c,0,58,40
1,442717,Note_off_c,0,58,0
1,442745,Note_on_c,0,62,110
1,442845,Note_off_c,0,62,0
1,442862,Note_on_c,0,65,40
1,442956,Note_off_c,0,65,0
1,442990,Note_on_c,0,69,115
1,443084,Note_off_c,0,69,0
1,443101,Note_on_c,0,55,40
1,443196,Note_off_c,0,55,0
1,443229,Note_on_c,0,58,109
1,443324,Note_off_c,0,58,0
1,443341,Note_on_c,0,62,40
1,443436,Note_off_c,0,62,0
1,443469,Note_on_c,0,72,86
1,443564,Note_off_c,0,72,0
1,443580,Note_on_c,0,75,40
1,443675,Note_off_c,0,75,0
1,443709,Note_on_c,0,79,92
1,443803,Note_off_c,0,79,0
1,443820,Note_on_c,0,82,40
1,443915,Note_off_c,0,82,0
1,443948,Note_on_c,0,86,103
1,444043,Note_off_c,0,86,0
1,444060,Note_on_c,0,48,40
1,444154,Note_off_c,0,48,0
1,444188,Note_on_c,0,51,95
1,444283,Note_off_c,0,51,0
1,444299,Note_on_c,0,55,40
1,444399,Note_off_c,0,55,0
1,444427,Note_on_c,0,58,108
1,444523,Note_off_c,0,58,0
1,444540,Note_on_c,0,62,40
1,444640,Note_off_c,0,62,0
1,444668,Note_on_c,0,65,83
1,444763,Note_off_c,0,65,0
1,444779,Note_on_c,0,69,40
1,444880,Note_off_c,0,69,0
1,444908,Note_on_c,0,55,112
1,445002,Note_off_c,0,55,0
1,445025,Note_on_c,0,58,40
1,445119,Note_off_c,0,58,0
1,445147,Note_on_c,0,62,113
1,445242,Note_off_c,0,62,0
1,445264,Note_on_c,0,82,40
1,445359,Note_off_c,0,82,0
1,445387,Note_on_c,0,86,87
1,445482,Note_off_c,0,86,0
1,445504,Note_on_c,0,89,40
1,445599,Note_off_c,0,89,0
1,445627,Note_on_c,0,93,107
1,445721,Note_off_c,0,93,0
1,445744,Note_on_c,0,96,40
1,445838,Note_off_c,0,96,0
1,445867,Note_on_c,0,76,87
1,445966,Note_off_c,0,76,0
1,445983,Note_on_c,0,79,40
1,446078,Note_off_c,0,79,0
1,446106,Note_on_c,0,83,116
1,446206,Note_off_c,0,83,0
1,446223,Note_on_c,0,48,40
1,446318,Note_off_c,0,48,0
1,446345,Note_on_c,0,51,108
1,446446,Note_off_c,0,51,0
1,446462,Note_on_c,0,55,40
1,446557,Note_off_c,0,55,0
1,446591,Note_on_c,0,48,108
1,446685,Note_off_c,0,48,0
1,446702,Note_on_c,0,58,40
1,446797,Note_off_c,0,58,0
1,446830,Note_on_c,0,62,86
1,446925,Note_off_c,0,62,0
1,446942,Note_on_c,0,65,40
1,447037,Note_off_c,0,65,0
1,447070,Note_on_c,0,69,113
1,447165,Note_off_c,0,69,0
1,447181,Note_on_c,0,55,40
1,447276,Note_off_c,0,55,0
1,447309,Note_on_c,0,75,84
1,447404,Note_off_c,0,75,0
1,447421,Note_on_c,0,79,40
1,447516,Note_off_c,0,79,0
1,447549,Note_on_c,0,82,117
1,447644,Note_off_c,0,82,0
1,447661,Note_on_c,0,86,40
1,447755,Note_off_c,0,86,0
1,447789,Note_on_c,0,89,108
1,447884,Note_off_c,0,89,0
1,447900,Note_on_c,0,93,40
1,448001,Note_off_c,0,93,0
1,448028,Note_on_c,0,72,102
1,448123,Note_off_c,0,72,0
1,448140,Note_on_c,0,51,40
1,448240,Note_off_c,0,51,0
1,448268,Note_on_c,0,55,82
1,448363,Note_off_c,0,55,0
1,448380,Note_on_c,0,58,40
1,448480,Note_off_c,0,58,0
1,448508,Note_on_c,0,62,83
1,448602,Note_off_c,0,62,0
1,448625,Note_on_c,0,48,40
1,448719,Note_off_c,0,48,0
1,448747,Note_on_c,0,58,109
1,448842,Note_off_c,0,58,0
1,448864,Note_on_c,0,62,40
1,448959,Note_off_c,0,62,0
1,448987,Note_on_c,0,55,94
1,449082,Note_off_c,0,55,0
1,449104,Note_on_c,0,58,40
1,449199,Note_off_c,0,58,0
1,449227,Note_on_c,0,62,112
1,449321,Note_off_c,0,62,0
1,449344,Note_on_c,0,65,40
1,449438,Note_off_c,0,65,0
1,449466,Note_on_c,0,69,115
1,449566,Note_off_c,0,69,0
1,449583,Note_on_c,0,72,40
1,449678,Note_off_c,0,72,0
1,449706,Note_on_c,0,75,101
1,449806,Note_off_c,0,75,0
1,449823,Note_on_c,0,79,40
1,449918,Note_off_c,0,79,0
1,449945,Note_on_c,0,58,87
1,450046,Note_off_c,0,58,0
1,450062,Note_on_c,0,62,40
1,450157,Note_off_c,0,62,0
1,450191,Note_on_c,0,65,106
1,450285,Note_off_c,0,65,0
1,450302,Note_on_c,0,69,40
1,450397,Note_off_c,0,69,0
1,450431,Note_on_c,0,48,96
1,450525,Note_off_c,0,48,0
1,450542,Note_on_c,0,58,40
1,450636,Note_off_c,0,58,0
1,450670,Note_on_c,0,62,116
1,450764,Note_off_c,0,62,0
1,450781,Note_on_c,0,65,40
1,450876,Note_off_c,0,65,0
1,450910,Note_on_c,0,69,112
1,451004,Note_off_c,0,69,0
1,451021,Note_on_c,0,72,40
1,451115,Note_off_c,0,72,0
1,451149,Note_on_c,0,76,109
1,451244,Note_off_c,0,76,0
1,451261,Note_on_c,0,79,40
1,451355,Note_off_c,0,79,0
1,451389,Note_on_c,0,100,99
1,451483,Note_off_c,0,100,0
1,451500,Note_on_c,0,103,40
1,451600,Note_off_c,0,103,0
1,451628,Note_on_c,0,107,88
1,451723,Note_off_c,0,107,0
1,451740,Note_on_c,0,72,40
1,451840,Note_off_c,0,72,0
1,451868,Note_on_c,0,75,98
1,451963,Note_off_c,0,75,0
1,451979,Note_on_c,0,55,40
1,452080,Note_off_c,0,55,0
1,452108,Note_on_c,0,48,103
1,452202,Note_off_c,0,48,0
1,452225,Note_on_c,0,51,40
1,452319,Note_off_c,0,51,0
1,452347,Note_on_c,0,55,80
1,452442,Note_off_c,0,55,0
1,452464,Note_on_c,0,58,40
1,452559,Note_off_c,0,58,0
1,452587,Note_on_c,0,62,92
1,452682,Note_off_c,0,62,0
1,452704,Note_on_c,0,48,40
1,452799,Note_off_c,0,48,0
1,452826,Note_on_c,0,58,111
1,452921,Note_off_c,0,58,0
1,452944,Note_on_c,0,62,40
1,453038,Note_off_c,0,62,0
1,453066,Note_on_c,0,65,108
1,453166,Note_off_c,0,65,0
1,453183,Note_on_c,0,69,40
1,453278,Note_off_c,0,69,0
1,453306,Note_on_c,0,72,99
1,453406,Note_off_c,0,72,0
1,453423,Note_on_c,0,93,40
1,453517,Note_off_c,0,93,0
1,453545,Note_on_c,0,72,107
1,453646,Note_off_c,0,72,0
1,453662,Note_on_c,0,75,40
1,453757,Note_off_c,0,75,0
1,453790,Note_on_c,0,79,96
1,453885,Note_off_c,0,79,0
1,453902,Note_on_c,0,82,40
1,453997,Note_off_c,0,82,0
1,454030,Note_on_c,0,86,88
1,454125,Note_off_c,0,86,0
1,454142,Note_on_c,0,72,40
1,454236,Note_off_c,0,72,0
1,454270,Note_on_c,0,51,113
1,454364,Note_off_c,0,51,0
1,454381,Note_on_c,0,55,40
1,454476,Note_off_c,0,55,0
1,454509,Note_on_c,0,48,89
1,454604,Note_off_c,0,48,0
1,454621,Note_on_c,0,58,40
1,454716,Note_off_c,0,58,0
1,454749,Note_on_c,0,62,92
1,454844,Note_off_c,0,62,0
1,454860,Note_on_c,0,65,40
1,454955,Note_off_c,0,65,0
1,454989,Note_on_c,0,69,110
1,455083,Note_off_c,0,69,0
1,455100,Note_on_c,0,55,40
1,455200,Note_off_c,0,55,0
1,455228,Note_on_c,0,75,118
1,455323,Note_off_c,0,75,0
1,455340,Note_on_c,0,79,40
1,455440,Note_off_c,0,79,0
1,455468,Note_on_c,0,82,115
1,455563,Note_off_c,0,82,0
1,455579,Note_on_c,0,86,40
1,455680,Note_off_c,0,86,0
1,455708,Note_on_c,0,89,113
1,455802,Note_off_c,0,89,0
1,455825,Note_on_c,0,93,40
1,455919,Note_off_c,0,93,0
1,455947,Note_on_c,0,72,82
1,456042,Note_off_c,0,72,0
1,456064,Note_on_c,0,51,40
1,456159,Note_off_c,0,51,0
1,456187,Note_on_c,0,55,104
1,456281,Note_off_c,0,55,0
1,456304,Note_on_c,0,58,40
1,456398,Note_off_c,0,58,0
1,456426,Note_on_c,0,62,87
1,456521,Note_off_c,0,62,0
1,456543,Note_on_c,0,65,40
1,456638,Note_off_c,0,65,0
1,456666,Note_on_c,0,76,115
1,456766,Note_off_c,0,76,0
1,456783,Note_on_c,0,79,40
1,456878,Note_off_c,0,79,0
1,456906,Note_on_c,0,83,100
1,457006,Note_off_c,0,83,0
1,457023,Note_on_c,0,86,40
1,457117,Note_off_c,0,86,0
1,457145,Note_on_c,0,90,109
1,457246,Note_off_c,0,90,0
1,457262,Note_on_c,0,55,40
1,457357,Note_off_c,0,55,0
1,457390,Note_on_c,0,58,82
1,457485,Note_off_c,0,58,0
1,457502,Note_on_c,0,79,40
1,457597,Note_off_c,0,79,0
1,457630,Note_on_c,0,72,87
1,457725,Note_off_c,0,72,0
1,457741,Note_on_c,0,75,40
1,457836,Note_off_c,0,75,0
1,457870,Note_on_c,0,79,85
1,457964,Note_off_c,0,79,0
1,457981,Note_on_c,0,82,40
1,458076,Note_off_c,0,82,0
1,458110,Note_on_c,0,62,118
1,458204,Note_off_c,0,62,0
1,458221,Note_on_c,0,48,40
1,458315,Note_off_c,0,48,0
1,458349,Note_on_c,0,51,119
1,458444,Note_off_c,0,51,0
1,458460,Note_on_c,0,55,40
1,458555,Note_off_c,0,55,0
1,458589,Note_on_c,0,58,115
1,458683,Note_off_c,0,58,0
1,458700,Note_on_c,0,62,40
1,458800,Note_off_c,0,62,0
1,458828,Note_on_c,0,65,98
1,458923,Note_off_c,0,65,0
1,458940,Note_on_c,0,76,40
1,459040,Note_off_c,0,76,0
1,459068,Note_on_c,0,55,88
1,459162,Note_off_c,0,55,0
1,459179,Note_on_c,0,58,40
1,459279,Note_off_c,0,58,0
1,459307,Note_on_c,0,79,94
1,459402,Note_off_c,0,79,0
1,459424,Note_on_c,0,82,40
1,459519,Note_off_c,0,82,0
1,459547,Note_on_c,0,86,81
1,459642,Note_off_c,0,86,0
1,459664,Note_on_c,0,72,40
1,459759,Note_off_c,0,72,0
1,459787,Note_on_c,0,75,88
1,459881,Note_off_c,0,75,0
1,459904,Note_on_c,0,55,40
1,459998,Note_off_c,0,55,0
1,460027,Note_on_c,0,48,106
1,460121,Note_off_c,0,48,0
1,460143,Note_on_c,0,51,40
1,460238,Note_off_c,0,51,0
1,460266,Note_on_c,0,55,112
1,460355,Note_off_c,0,55,0
